{
.appVersion = "908";
classes = (
{
automatic = 1;

glyphs = (
{
color = 10;
glyphname = A;
lastChange = "2015-02-16 21:41:57 +0000";
layers = (
{
anchors = (
{
name = bottom;
position = "{334, 0}";
},
{
name = ogonek;
position = "{600, 10}";
},
{
name = top;
position = "{334, 671}";
}
);
background = {
paths = (
{
closed = 1;
nodes = (
"660 0 LINE",
"394 686 LINE",
"273 686 LINE",
"7 0 LINE",
"105 0 LINE",
"172 183 LINE",
"490 183 LINE",
"559 0 LINE"
);
},
{
closed = 1;
nodes = (
"459 266 LINE",
"203 266 LINE",
"328 604 LINE",
"333 604 LINE"
);
}
);
};
layerId = UUID0;
paths = (
{
closed = 1;
nodes = (
"660 0 LINE",
"394 686 LINE",
"273 686 LINE",
"7 0 LINE",
"105 0 LINE",
"172 183 LINE",
"490 183 LINE",
"559 0 LINE"
);
},
{
closed = 1;
nodes = (
"459 266 LINE",
"203 266 LINE",
"328 604 LINE",
"333 604 LINE"
);
}
);
width = 667;
},
{
anchors = (
{
name = bottom;
position = "{361, 0}";
},
{
name = ogonek;
position = "{650, 10}";
},
{
name = top;
position = "{361, 671}";
}
);
background = {
paths = (
{
closed = 1;
nodes = (
"720 0 LINE",
"452 686 LINE",
"270 686 LINE",
"2 0 LINE",
"152 0 LINE",
"201 131 LINE",
"513 131 LINE",
"562 0 LINE"
);
},
{
closed = 1;
nodes = (
"467 252 LINE",
"246 252 LINE",
"311 426 LINE",
"324 460 OFFCURVE",
"354 561 OFFCURVE",
"354 561 CURVE",
"359 561 LINE",
"359 561 OFFCURVE",
"389 460 OFFCURVE",
"402 426 CURVE SMOOTH"
);
}
);
};
layerId = "4E7A989A-9DEE-440F-9785-5637679BA6FC";
paths = (
{
closed = 1;
nodes = (
"720 0 LINE",
"452 686 LINE",
"270 686 LINE",
"2 0 LINE",
"152 0 LINE",
"201 131 LINE",
"513 131 LINE",
"562 0 LINE"
);
},
{
closed = 1;
nodes = (
"467 252 LINE",
"246 252 LINE",
"311 426 LINE",
"324 460 OFFCURVE",
"354 561 OFFCURVE",
"354 561 CURVE",
"359 561 LINE",
"359 561 OFFCURVE",
"389 460 OFFCURVE",
"402 426 CURVE SMOOTH"
);
}
);
width = 722;
}
);
leftKerningGroup = A;
rightKerningGroup = A;
unicode = 0041;
},
{
color = 10;
glyphname = Aacute;
lastChange = "2015-02-16 21:41:57 +0000";
layers = (
{
background = {
paths = (
{
closed = 1;
nodes = (
"660 0 LINE",
"394 686 LINE",
"273 686 LINE",
"7 0 LINE",
"105 0 LINE",
"172 183 LINE",
"490 183 LINE",
"559 0 LINE"
);
},
{
closed = 1;
nodes = (
"459 266 LINE",
"203 266 LINE",
"328 604 LINE",
"333 604 LINE"
);
},
{
closed = 1;
nodes = (
"337 737 LINE",
"445 866 LINE",
"444 869 LINE",
"348 869 LINE",
"262 737 LINE"
);
}
);
};
components = (
{
name = A;
},
{
name = acute;
transform = "{1, 0, 0, 1, 221, 145}";
}
);
layerId = UUID0;
width = 667;
},
{
background = {
paths = (
{
closed = 1;
nodes = (
"720 0 LINE",
"452 686 LINE",
"270 686 LINE",
"2 0 LINE",
"152 0 LINE",
"201 131 LINE",
"513 131 LINE",
"562 0 LINE"
);
},
{
closed = 1;
nodes = (
"467 252 LINE",
"246 252 LINE",
"311 426 LINE",
"324 460 OFFCURVE",
"354 561 OFFCURVE",
"354 561 CURVE",
"359 561 LINE",
"359 561 OFFCURVE",
"389 460 OFFCURVE",
"402 426 CURVE SMOOTH"
);
},
{
closed = 1;
nodes = (
"386 737 LINE",
"494 866 LINE",
"493 869 LINE",
"360 869 LINE",
"281 737 LINE"
);
}
);
};
components = (
{
name = A;
},
{
name = acute;
transform = "{1, 0, 0, 1, 233, 145}";
}
);
layerId = "4E7A989A-9DEE-440F-9785-5637679BA6FC";
width = 722;
}
);
leftKerningGroup = A;
rightKerningGroup = A;
unicode = 00C1;
},
{
color = 10;
glyphname = Abreve;
lastChange = "2015-02-16 21:41:57 +0000";
layers = (
{
background = {
paths = (
{
closed = 1;
nodes = (
"660 0 LINE",
"394 686 LINE",
"273 686 LINE",
"7 0 LINE",
"105 0 LINE",
"172 183 LINE",
"490 183 LINE",
"559 0 LINE"
);
},
{
closed = 1;
nodes = (
"459 266 LINE",
"203 266 LINE",
"328 604 LINE",
"333 604 LINE"
);
},
{
closed = 1;
nodes = (
"418 857 LINE",
"415 835 OFFCURVE",
"397 804 OFFCURVE",
"333 804 CURVE SMOOTH",
"269 804 OFFCURVE",
"254 835 OFFCURVE",
"249 857 CURVE",
"188 857 LINE",
"188 802 OFFCURVE",
"221 740 OFFCURVE",
"333 740 CURVE SMOOTH",
"445 740 OFFCURVE",
"479 802 OFFCURVE",
"479 857 CURVE"
);
}
);
};
components = (
{
name = A;
},
{
name = breve;
transform = "{1, 0, 0, 1, 167, 145}";
}
);
layerId = UUID0;
width = 667;
},
{
background = {
paths = (
{
closed = 1;
nodes = (
"720 0 LINE",
"452 686 LINE",
"270 686 LINE",
"2 0 LINE",
"152 0 LINE",
"201 131 LINE",
"513 131 LINE",
"562 0 LINE"
);
},
{
closed = 1;
nodes = (
"467 252 LINE",
"246 252 LINE",
"311 426 LINE",
"324 460 OFFCURVE",
"354 561 OFFCURVE",
"354 561 CURVE",
"359 561 LINE",
"359 561 OFFCURVE",
"389 460 OFFCURVE",
"402 426 CURVE SMOOTH"
);
},
{
closed = 1;
nodes = (
"430 868 LINE",
"428 848 OFFCURVE",
"405 820 OFFCURVE",
"358 820 CURVE SMOOTH",
"311 820 OFFCURVE",
"290 848 OFFCURVE",
"287 868 CURVE",
"197 868 LINE",
"197 804 OFFCURVE",
"242 731 OFFCURVE",
"358 731 CURVE SMOOTH",
"474 731 OFFCURVE",
"520 804 OFFCURVE",
"520 868 CURVE"
);
}
);
};
components = (
{
name = A;
},
{
name = breve;
transform = "{1, 0, 0, 1, 194, 145}";
}
);
layerId = "4E7A989A-9DEE-440F-9785-5637679BA6FC";
width = 722;
}
);
leftKerningGroup = A;
rightKerningGroup = A;
unicode = 0102;
},
{
color = 10;
glyphname = Acircumflex;
lastChange = "2015-02-16 21:41:57 +0000";
layers = (
{
background = {
paths = (
{
closed = 1;
nodes = (
"660 0 LINE",
"394 686 LINE",
"273 686 LINE",
"7 0 LINE",
"105 0 LINE",
"172 183 LINE",
"490 183 LINE",
"559 0 LINE"
);
},
{
closed = 1;
nodes = (
"459 266 LINE",
"203 266 LINE",
"328 604 LINE",
"333 604 LINE"
);
},
{
closed = 1;
nodes = (
"481 737 LINE",
"376 872 LINE",
"292 872 LINE",
"186 737 LINE",
"276 737 LINE",
"334 816 LINE",
"391 737 LINE"
);
}
);
};
components = (
{
name = A;
},
{
name = circumflex;
transform = "{1, 0, 0, 1, 167, 145}";
}
);
layerId = UUID0;
width = 667;
},
{
background = {
paths = (
{
closed = 1;
nodes = (
"720 0 LINE",
"452 686 LINE",
"270 686 LINE",
"2 0 LINE",
"152 0 LINE",
"201 131 LINE",
"513 131 LINE",
"562 0 LINE"
);
},
{
closed = 1;
nodes = (
"467 252 LINE",
"246 252 LINE",
"311 426 LINE",
"324 460 OFFCURVE",
"354 561 OFFCURVE",
"354 561 CURVE",
"359 561 LINE",
"359 561 OFFCURVE",
"389 460 OFFCURVE",
"402 426 CURVE SMOOTH"
);
},
{
closed = 1;
nodes = (
"528 737 LINE",
"423 872 LINE",
"301 872 LINE",
"195 737 LINE",
"306 737 LINE",
"362 806 LINE",
"417 737 LINE"
);
}
);
};
components = (
{
name = A;
},
{
name = circumflex;
transform = "{1, 0, 0, 1, 194, 145}";
}
);
layerId = "4E7A989A-9DEE-440F-9785-5637679BA6FC";
width = 722;
}
);
leftKerningGroup = A;
rightKerningGroup = A;
unicode = 00C2;
},
{
color = 10;
glyphname = Adieresis;
lastChange = "2015-02-16 21:41:57 +0000";
layers = (
{
background = {
paths = (
{
closed = 1;
nodes = (
"660 0 LINE",
"394 686 LINE",
"273 686 LINE",
"7 0 LINE",
"105 0 LINE",
"172 183 LINE",
"490 183 LINE",
"559 0 LINE"
);
},
{
closed = 1;
nodes = (
"459 266 LINE",
"203 266 LINE",
"328 604 LINE",
"333 604 LINE"
);
},
{
closed = 1;
nodes = (
"283 753 LINE",
"283 848 LINE",
"196 848 LINE",
"196 753 LINE"
);
},
{
closed = 1;
nodes = (
"470 753 LINE",
"470 848 LINE",
"383 848 LINE",
"383 753 LINE"
);
}
);
};
components = (
{
name = A;
},
{
name = dieresis;
transform = "{1, 0, 0, 1, 167, 145}";
}
);
layerId = UUID0;
width = 667;
},
{
background = {
paths = (
{
closed = 1;
nodes = (
"720 0 LINE",
"452 686 LINE",
"270 686 LINE",
"2 0 LINE",
"152 0 LINE",
"201 131 LINE",
"513 131 LINE",
"562 0 LINE"
);
},
{
closed = 1;
nodes = (
"467 252 LINE",
"246 252 LINE",
"311 426 LINE",
"324 460 OFFCURVE",
"354 561 OFFCURVE",
"354 561 CURVE",
"359 561 LINE",
"359 561 OFFCURVE",
"389 460 OFFCURVE",
"402 426 CURVE SMOOTH"
);
},
{
closed = 1;
nodes = (
"314 741 LINE",
"314 859 LINE",
"196 859 LINE",
"196 741 LINE"
);
},
{
closed = 1;
nodes = (
"525 741 LINE",
"525 859 LINE",
"406 859 LINE",
"406 741 LINE"
);
}
);
};
components = (
{
name = A;
},
{
name = dieresis;
transform = "{1, 0, 0, 1, 195, 145}";
}
);
layerId = "4E7A989A-9DEE-440F-9785-5637679BA6FC";
width = 722;
}
);
leftKerningGroup = A;
rightKerningGroup = A;
unicode = 00C4;
},
{
color = 10;
glyphname = Agrave;
lastChange = "2015-02-16 21:41:57 +0000";
layers = (
{
background = {
paths = (
{
closed = 1;
nodes = (
"660 0 LINE",
"394 686 LINE",
"273 686 LINE",
"7 0 LINE",
"105 0 LINE",
"172 183 LINE",
"490 183 LINE",
"559 0 LINE"
);
},
{
closed = 1;
nodes = (
"459 266 LINE",
"203 266 LINE",
"328 604 LINE",
"333 604 LINE"
);
},
{
closed = 1;
nodes = (
"401 736 LINE",
"315 868 LINE",
"219 868 LINE",
"218 865 LINE",
"326 736 LINE"
);
}
);
};
components = (
{
name = A;
},
{
name = grave;
transform = "{1, 0, 0, 1, 113, 145}";
}
);
layerId = UUID0;
width = 667;
},
{
background = {
paths = (
{
closed = 1;
nodes = (
"720 0 LINE",
"452 686 LINE",
"270 686 LINE",
"2 0 LINE",
"152 0 LINE",
"201 131 LINE",
"513 131 LINE",
"562 0 LINE"
);
},
{
closed = 1;
nodes = (
"467 252 LINE",
"246 252 LINE",
"311 426 LINE",
"324 460 OFFCURVE",
"354 561 OFFCURVE",
"354 561 CURVE",
"359 561 LINE",
"359 561 OFFCURVE",
"389 460 OFFCURVE",
"402 426 CURVE SMOOTH"
);
},
{
closed = 1;
nodes = (
"431 737 LINE",
"352 869 LINE",
"219 869 LINE",
"218 866 LINE",
"326 737 LINE"
);
}
);
};
components = (
{
name = A;
},
{
name = grave;
transform = "{1, 0, 0, 1, 125, 145}";
}
);
layerId = "4E7A989A-9DEE-440F-9785-5637679BA6FC";
width = 722;
}
);
leftKerningGroup = A;
rightKerningGroup = A;
unicode = 00C0;
},
{
color = 10;
glyphname = Amacron;
lastChange = "2015-02-16 21:41:57 +0000";
layers = (
{
background = {
paths = (
{
closed = 1;
nodes = (
"489 763 LINE",
"489 835 LINE",
"184 835 LINE",
"184 763 LINE"
);
},
{
closed = 1;
nodes = (
"660 0 LINE",
"394 686 LINE",
"273 686 LINE",
"7 0 LINE",
"105 0 LINE",
"172 183 LINE",
"490 183 LINE",
"559 0 LINE"
);
},
{
closed = 1;
nodes = (
"459 266 LINE",
"203 266 LINE",
"328 604 LINE",
"333 604 LINE"
);
}
);
};
components = (
{
name = A;
}
);
layerId = UUID0;
paths = (
{
closed = 1;
nodes = (
"489 763 LINE",
"489 835 LINE",
"184 835 LINE",
"184 763 LINE"
);
}
);
width = 667;
},
{
background = {
paths = (
{
closed = 1;
nodes = (
"720 0 LINE",
"452 686 LINE",
"270 686 LINE",
"2 0 LINE",
"152 0 LINE",
"201 131 LINE",
"513 131 LINE",
"562 0 LINE"
);
},
{
closed = 1;
nodes = (
"467 252 LINE",
"246 252 LINE",
"311 426 LINE",
"324 460 OFFCURVE",
"354 561 OFFCURVE",
"354 561 CURVE",
"359 561 LINE",
"359 561 OFFCURVE",
"389 460 OFFCURVE",
"402 426 CURVE SMOOTH"
);
},
{
closed = 1;
nodes = (
"510 755 LINE",
"510 843 LINE",
"205 843 LINE",
"205 755 LINE"
);
}
);
};
components = (
{
name = A;
},
{
name = macron;
transform = "{1, 0, 0, 1, 194, 145}";
}
);
layerId = "4E7A989A-9DEE-440F-9785-5637679BA6FC";
width = 722;
}
);
leftKerningGroup = A;
rightKerningGroup = A;
unicode = 0100;
},
{
color = 10;
glyphname = Aogonek;
lastChange = "2015-02-16 21:41:57 +0000";
layers = (
{
background = {
paths = (
{
closed = 1;
nodes = (
"660 -117 LINE",
"628 -117 LINE SMOOTH",
"599 -117 OFFCURVE",
"582 -101 OFFCURVE",
"582 -72 CURVE SMOOTH",
"582 -43 OFFCURVE",
"603 -17 OFFCURVE",
"624 0 CURVE",
"660 0 LINE",
"394 686 LINE",
"273 686 LINE",
"7 0 LINE",
"105 0 LINE",
"172 183 LINE",
"490 183 LINE",
"559 0 LINE",
"530 -23 OFFCURVE",
"505 -50 OFFCURVE",
"505 -92 CURVE SMOOTH",
"505 -161 OFFCURVE",
"555 -182 OFFCURVE",
"597 -182 CURVE SMOOTH",
"617 -182 OFFCURVE",
"640 -177 OFFCURVE",
"660 -168 CURVE"
);
},
{
closed = 1;
nodes = (
"459 266 LINE",
"203 266 LINE",
"328 604 LINE",
"333 604 LINE"
);
}
);
};
layerId = UUID0;
paths = (
{
closed = 1;
nodes = (
"660 -117 LINE",
"628 -117 LINE SMOOTH",
"599 -117 OFFCURVE",
"582 -101 OFFCURVE",
"582 -72 CURVE SMOOTH",
"582 -43 OFFCURVE",
"603 -17 OFFCURVE",
"624 0 CURVE",
"660 0 LINE",
"394 686 LINE",
"273 686 LINE",
"7 0 LINE",
"105 0 LINE",
"172 183 LINE",
"490 183 LINE",
"559 0 LINE",
"530 -23 OFFCURVE",
"505 -50 OFFCURVE",
"505 -92 CURVE SMOOTH",
"505 -161 OFFCURVE",
"555 -182 OFFCURVE",
"597 -182 CURVE SMOOTH",
"617 -182 OFFCURVE",
"640 -177 OFFCURVE",
"660 -168 CURVE"
);
},
{
closed = 1;
nodes = (
"459 266 LINE",
"203 266 LINE",
"328 604 LINE",
"333 604 LINE"
);
}
);
width = 667;
},
{
background = {
paths = (
{
closed = 1;
nodes = (
"721 -113 LINE",
"685 -113 LINE SMOOTH",
"643 -113 OFFCURVE",
"627 -94 OFFCURVE",
"627 -62 CURVE SMOOTH",
"627 -38 OFFCURVE",
"640 -15 OFFCURVE",
"652 0 CURVE",
"720 0 LINE",
"452 686 LINE",
"270 686 LINE",
"2 0 LINE",
"152 0 LINE",
"201 131 LINE",
"513 131 LINE",
"562 0 LINE",
"540 -23 OFFCURVE",
"522 -51 OFFCURVE",
"522 -94 CURVE SMOOTH",
"522 -161 OFFCURVE",
"576 -182 OFFCURVE",
"638 -182 CURVE SMOOTH",
"665 -182 OFFCURVE",
"692 -177 OFFCURVE",
"721 -168 CURVE"
);
},
{
closed = 1;
nodes = (
"467 252 LINE",
"246 252 LINE",
"311 426 LINE",
"324 460 OFFCURVE",
"354 561 OFFCURVE",
"354 561 CURVE",
"359 561 LINE",
"359 561 OFFCURVE",
"389 460 OFFCURVE",
"402 426 CURVE SMOOTH"
);
}
);
};
layerId = "4E7A989A-9DEE-440F-9785-5637679BA6FC";
paths = (
{
closed = 1;
nodes = (
"721 -113 LINE",
"685 -113 LINE SMOOTH",
"643 -113 OFFCURVE",
"627 -94 OFFCURVE",
"627 -62 CURVE SMOOTH",
"627 -38 OFFCURVE",
"640 -15 OFFCURVE",
"652 0 CURVE",
"720 0 LINE",
"452 686 LINE",
"270 686 LINE",
"2 0 LINE",
"152 0 LINE",
"201 131 LINE",
"513 131 LINE",
"562 0 LINE",
"540 -23 OFFCURVE",
"522 -51 OFFCURVE",
"522 -94 CURVE SMOOTH",
"522 -161 OFFCURVE",
"576 -182 OFFCURVE",
"638 -182 CURVE SMOOTH",
"665 -182 OFFCURVE",
"692 -177 OFFCURVE",
"721 -168 CURVE"
);
},
{
closed = 1;
nodes = (
"467 252 LINE",
"246 252 LINE",
"311 426 LINE",
"324 460 OFFCURVE",
"354 561 OFFCURVE",
"354 561 CURVE",
"359 561 LINE",
"359 561 OFFCURVE",
"389 460 OFFCURVE",
"402 426 CURVE SMOOTH"
);
}
);
width = 722;
}
);
leftKerningGroup = A;
rightKerningGroup = A;
unicode = 0104;
},
{
color = 10;
glyphname = Aring;
lastChange = "2015-02-16 21:41:57 +0000";
layers = (
{
background = {
paths = (
{
closed = 1;
nodes = (
"660 0 LINE",
"394 686 LINE",
"273 686 LINE",
"7 0 LINE",
"105 0 LINE",
"172 183 LINE",
"490 183 LINE",
"559 0 LINE"
);
},
{
closed = 1;
nodes = (
"459 266 LINE",
"203 266 LINE",
"328 604 LINE",
"333 604 LINE"
);
},
{
closed = 1;
nodes = (
"393 703 OFFCURVE",
"429 746 OFFCURVE",
"429 799 CURVE SMOOTH",
"429 852 OFFCURVE",
"393 895 OFFCURVE",
"333 895 CURVE SMOOTH",
"273 895 OFFCURVE",
"237 852 OFFCURVE",
"237 799 CURVE SMOOTH",
"237 746 OFFCURVE",
"273 703 OFFCURVE",
"333 703 CURVE SMOOTH"
);
},
{
closed = 1;
nodes = (
"384 771 OFFCURVE",
"363 748 OFFCURVE",
"333 748 CURVE SMOOTH",
"303 748 OFFCURVE",
"282 771 OFFCURVE",
"282 799 CURVE SMOOTH",
"282 827 OFFCURVE",
"303 850 OFFCURVE",
"333 850 CURVE SMOOTH",
"363 850 OFFCURVE",
"384 827 OFFCURVE",
"384 799 CURVE SMOOTH"
);
}
);
};
components = (
{
name = A;
},
{
name = ring;
transform = "{1, 0, 0, 1, 167, 145}";
}
);
layerId = UUID0;
width = 667;
},
{
background = {
paths = (
{
closed = 1;
nodes = (
"720 0 LINE",
"452 686 LINE",
"270 686 LINE",
"2 0 LINE",
"152 0 LINE",
"201 131 LINE",
"513 131 LINE",
"562 0 LINE"
);
},
{
closed = 1;
nodes = (
"467 252 LINE",
"246 252 LINE",
"311 426 LINE",
"324 460 OFFCURVE",
"354 561 OFFCURVE",
"354 561 CURVE",
"359 561 LINE",
"359 561 OFFCURVE",
"389 460 OFFCURVE",
"402 426 CURVE SMOOTH"
);
},
{
closed = 1;
nodes = (
"424 700 OFFCURVE",
"462 745 OFFCURVE",
"462 801 CURVE SMOOTH",
"462 857 OFFCURVE",
"424 902 OFFCURVE",
"361 902 CURVE SMOOTH",
"298 902 OFFCURVE",
"260 857 OFFCURVE",
"260 801 CURVE SMOOTH",
"260 745 OFFCURVE",
"298 700 OFFCURVE",
"361 700 CURVE SMOOTH"
);
},
{
closed = 1;
nodes = (
"405 776 OFFCURVE",
"387 757 OFFCURVE",
"361 757 CURVE SMOOTH",
"334 757 OFFCURVE",
"317 776 OFFCURVE",
"317 801 CURVE SMOOTH",
"317 826 OFFCURVE",
"334 845 OFFCURVE",
"361 845 CURVE SMOOTH",
"387 845 OFFCURVE",
"405 826 OFFCURVE",
"405 801 CURVE SMOOTH"
);
}
);
};
components = (
{
name = A;
},
{
name = ring;
transform = "{1, 0, 0, 1, 194, 145}";
}
);
layerId = "4E7A989A-9DEE-440F-9785-5637679BA6FC";
width = 722;
}
);
leftKerningGroup = A;
rightKerningGroup = A;
unicode = 00C5;
},
{
color = 10;
glyphname = Aringacute;
lastChange = "2015-02-16 21:41:57 +0000";
layers = (
{
background = {
paths = (
{
closed = 1;
nodes = (
"660 0 LINE",
"394 686 LINE",
"417 703 OFFCURVE",
"429 731 OFFCURVE",
"429 763 CURVE SMOOTH",
"429 816 OFFCURVE",
"393 859 OFFCURVE",
"333 859 CURVE SMOOTH",
"273 859 OFFCURVE",
"237 816 OFFCURVE",
"237 763 CURVE SMOOTH",
"237 731 OFFCURVE",
"250 703 OFFCURVE",
"273 686 CURVE",
"7 0 LINE",
"105 0 LINE",
"172 183 LINE",
"490 183 LINE",
"559 0 LINE"
);
},
{
closed = 1;
nodes = (
"459 266 LINE",
"203 266 LINE",
"328 604 LINE",
"333 604 LINE"
);
},
{
closed = 1;
nodes = (
"371 883 LINE",
"479 1012 LINE",
"478 1015 LINE",
"382 1015 LINE",
"296 883 LINE"
);
},
{
closed = 1;
nodes = (
"384 735 OFFCURVE",
"363 712 OFFCURVE",
"333 712 CURVE SMOOTH",
"303 712 OFFCURVE",
"282 735 OFFCURVE",
"282 763 CURVE SMOOTH",
"282 791 OFFCURVE",
"303 814 OFFCURVE",
"333 814 CURVE SMOOTH",
"363 814 OFFCURVE",
"384 791 OFFCURVE",
"384 763 CURVE SMOOTH"
);
}
);
};
layerId = UUID0;
paths = (
{
closed = 1;
nodes = (
"105 0 LINE",
"172 183 LINE",
"490 183 LINE",
"559 0 LINE",
"660 0 LINE",
"400 671 LINE",
"419 688 OFFCURVE",
"429 714 OFFCURVE",
"429 743 CURVE SMOOTH",
"429 796 OFFCURVE",
"393 839 OFFCURVE",
"333 839 CURVE SMOOTH",
"273 839 OFFCURVE",
"237 796 OFFCURVE",
"237 743 CURVE SMOOTH",
"237 714 OFFCURVE",
"248 688 OFFCURVE",
"267 671 CURVE",
"7 0 LINE"
);
},
{
closed = 1;
nodes = (
"328 604 LINE",
"333 604 LINE",
"459 266 LINE",
"203 266 LINE"
);
},
{
closed = 1;
nodes = (
"303 692 OFFCURVE",
"282 715 OFFCURVE",
"282 743 CURVE SMOOTH",
"282 771 OFFCURVE",
"303 794 OFFCURVE",
"333 794 CURVE SMOOTH",
"363 794 OFFCURVE",
"384 771 OFFCURVE",
"384 743 CURVE SMOOTH",
"384 715 OFFCURVE",
"363 692 OFFCURVE",
"333 692 CURVE SMOOTH"
);
},
{
closed = 1;
nodes = (
"371 861 LINE",
"479 990 LINE",
"478 993 LINE",
"382 993 LINE",
"296 861 LINE"
);
}
);
width = 667;
},
{
background = {
paths = (
{
closed = 1;
nodes = (
"720 0 LINE",
"452 686 LINE",
"458 700 OFFCURVE",
"462 716 OFFCURVE",
"462 733 CURVE SMOOTH",
"462 789 OFFCURVE",
"424 834 OFFCURVE",
"361 834 CURVE SMOOTH",
"298 834 OFFCURVE",
"260 789 OFFCURVE",
"260 733 CURVE SMOOTH",
"260 716 OFFCURVE",
"263 700 OFFCURVE",
"270 686 CURVE",
"2 0 LINE",
"152 0 LINE",
"201 131 LINE",
"513 131 LINE",
"562 0 LINE"
);
},
{
closed = 1;
nodes = (
"467 252 LINE",
"246 252 LINE",
"311 426 LINE",
"324 460 OFFCURVE",
"354 561 OFFCURVE",
"354 561 CURVE",
"359 561 LINE",
"359 561 OFFCURVE",
"389 460 OFFCURVE",
"402 426 CURVE SMOOTH"
);
},
{
closed = 1;
nodes = (
"335 688 OFFCURVE",
"317 708 OFFCURVE",
"317 733 CURVE SMOOTH",
"317 758 OFFCURVE",
"334 777 OFFCURVE",
"361 777 CURVE SMOOTH",
"387 777 OFFCURVE",
"405 758 OFFCURVE",
"405 733 CURVE SMOOTH",
"405 708 OFFCURVE",
"388 688 OFFCURVE",
"362 688 CURVE SMOOTH"
);
},
{
closed = 1;
nodes = (
"407 860 LINE",
"515 989 LINE",
"514 992 LINE",
"381 992 LINE",
"302 860 LINE"
);
}
);
};
layerId = "4E7A989A-9DEE-440F-9785-5637679BA6FC";
paths = (
{
closed = 1;
nodes = (
"152 0 LINE",
"201 131 LINE",
"513 131 LINE",
"562 0 LINE",
"720 0 LINE",
"452 686 LINE",
"458 700 OFFCURVE",
"462 716 OFFCURVE",
"462 733 CURVE SMOOTH",
"462 789 OFFCURVE",
"424 834 OFFCURVE",
"361 834 CURVE SMOOTH",
"298 834 OFFCURVE",
"260 789 OFFCURVE",
"260 733 CURVE SMOOTH",
"260 716 OFFCURVE",
"263 700 OFFCURVE",
"270 686 CURVE",
"2 0 LINE"
);
},
{
closed = 1;
nodes = (
"311 426 LINE",
"324 460 OFFCURVE",
"354 561 OFFCURVE",
"354 561 CURVE",
"359 561 LINE",
"359 561 OFFCURVE",
"389 460 OFFCURVE",
"402 426 CURVE SMOOTH",
"467 252 LINE",
"246 252 LINE"
);
},
{
closed = 1;
nodes = (
"335 688 OFFCURVE",
"317 708 OFFCURVE",
"317 733 CURVE SMOOTH",
"317 758 OFFCURVE",
"334 777 OFFCURVE",
"361 777 CURVE SMOOTH",
"387 777 OFFCURVE",
"405 758 OFFCURVE",
"405 733 CURVE SMOOTH",
"405 708 OFFCURVE",
"388 688 OFFCURVE",
"362 688 CURVE SMOOTH"
);
},
{
closed = 1;
nodes = (
"407 861 LINE",
"515 990 LINE",
"514 993 LINE",
"381 993 LINE",
"302 861 LINE"
);
}
);
width = 722;
}
);
leftKerningGroup = A;
rightKerningGroup = A;
unicode = 01FA;
},
{
color = 10;
glyphname = Atilde;
lastChange = "2015-02-16 21:41:57 +0000";
layers = (
{
background = {
paths = (
{
closed = 1;
nodes = (
"660 0 LINE",
"394 686 LINE",
"273 686 LINE",
"7 0 LINE",
"105 0 LINE",
"172 183 LINE",
"490 183 LINE",
"559 0 LINE"
);
},
{
closed = 1;
nodes = (
"459 266 LINE",
"203 266 LINE",
"328 604 LINE",
"333 604 LINE"
);
},
{
closed = 1;
nodes = (
"432 852 LINE",
"430 829 OFFCURVE",
"419 821 OFFCURVE",
"404 821 CURVE SMOOTH",
"354 821 OFFCURVE",
"311 852 OFFCURVE",
"255 852 CURVE SMOOTH",
"195 852 OFFCURVE",
"170 804 OFFCURVE",
"170 748 CURVE",
"235 748 LINE",
"237 771 OFFCURVE",
"248 779 OFFCURVE",
"263 779 CURVE SMOOTH",
"313 779 OFFCURVE",
"356 748 OFFCURVE",
"412 748 CURVE SMOOTH",
"472 748 OFFCURVE",
"497 796 OFFCURVE",
"497 852 CURVE"
);
}
);
};
components = (
{
name = A;
},
{
name = tilde;
transform = "{1, 0, 0, 1, 167, 145}";
}
);
layerId = UUID0;
width = 667;
},
{
background = {
paths = (
{
closed = 1;
nodes = (
"720 0 LINE",
"452 686 LINE",
"270 686 LINE",
"2 0 LINE",
"152 0 LINE",
"201 131 LINE",
"513 131 LINE",
"562 0 LINE"
);
},
{
closed = 1;
nodes = (
"467 252 LINE",
"246 252 LINE",
"311 426 LINE",
"324 460 OFFCURVE",
"354 561 OFFCURVE",
"354 561 CURVE",
"359 561 LINE",
"359 561 OFFCURVE",
"389 460 OFFCURVE",
"402 426 CURVE SMOOTH"
);
},
{
closed = 1;
nodes = (
"457 860 LINE",
"453 832 OFFCURVE",
"441 823 OFFCURVE",
"422 823 CURVE SMOOTH",
"377 823 OFFCURVE",
"338 860 OFFCURVE",
"289 860 CURVE SMOOTH",
"219 860 OFFCURVE",
"191 803 OFFCURVE",
"191 738 CURVE",
"261 738 LINE",
"265 765 OFFCURVE",
"277 775 OFFCURVE",
"296 775 CURVE SMOOTH",
"341 775 OFFCURVE",
"380 738 OFFCURVE",
"428 738 CURVE SMOOTH",
"499 738 OFFCURVE",
"527 795 OFFCURVE",
"527 860 CURVE"
);
}
);
};
components = (
{
name = A;
},
{
name = tilde;
transform = "{1, 0, 0, 1, 194, 145}";
}
);
layerId = "4E7A989A-9DEE-440F-9785-5637679BA6FC";
width = 722;
}
);
leftKerningGroup = A;
rightKerningGroup = A;
unicode = 00C3;
},
{
color = 10;
glyphname = AE;
lastChange = "2015-02-12 03:02:41 +0000";
layers = (
{
anchors = (
{
name = top;
position = "{500, 671}";
}
);
background = {
paths = (
{
closed = 1;
nodes = (
"946 0 LINE",
"946 83 LINE",
"641 83 LINE",
"578 309 LINE",
"896 309 LINE",
"896 392 LINE",
"554 392 LINE",
"495 603 LINE",
"940 603 LINE",
"940 686 LINE",
"345 686 LINE",
"-1 0 LINE",
"94 0 LINE",
"184 183 LINE",
"515 183 LINE",
"566 0 LINE"
);
},
{
closed = 1;
nodes = (
"492 266 LINE",
"225 266 LINE",
"393 603 LINE",
"398 603 LINE"
);
}
);
};
layerId = UUID0;
paths = (
{
closed = 1;
nodes = (
"946 0 LINE",
"946 83 LINE",
"641 83 LINE",
"578 309 LINE",
"896 309 LINE",
"896 392 LINE",
"554 392 LINE",
"495 603 LINE",
"940 603 LINE",
"940 686 LINE",
"345 686 LINE",
"-1 0 LINE",
"94 0 LINE",
"184 183 LINE",
"515 183 LINE",
"566 0 LINE"
);
},
{
closed = 1;
nodes = (
"492 266 LINE",
"225 266 LINE",
"393 603 LINE",
"398 603 LINE"
);
}
);
width = 1000;
},
{
anchors = (
{
name = top;
position = "{500, 671}";
}
);
background = {
paths = (
{
closed = 1;
nodes = (
"945 0 LINE",
"945 123 LINE",
"669 123 LINE",
"625 289 LINE",
"895 289 LINE",
"895 412 LINE",
"592 412 LINE",
"552 563 LINE",
"939 563 LINE",
"939 686 LINE",
"327 686 LINE",
"-5 0 LINE",
"145 0 LINE",
"205 131 LINE",
"521 131 LINE",
"555 0 LINE"
);
},
{
closed = 1;
nodes = (
"490 252 LINE",
"261 252 LINE",
"405 563 LINE",
"410 563 LINE"
);
}
);
};
layerId = "4E7A989A-9DEE-440F-9785-5637679BA6FC";
paths = (
{
closed = 1;
nodes = (
"945 0 LINE",
"945 123 LINE",
"669 123 LINE",
"625 289 LINE",
"895 289 LINE",
"895 412 LINE",
"592 412 LINE",
"552 563 LINE",
"939 563 LINE",
"939 686 LINE",
"327 686 LINE",
"-5 0 LINE",
"145 0 LINE",
"205 131 LINE",
"521 131 LINE",
"555 0 LINE"
);
},
{
closed = 1;
nodes = (
"490 252 LINE",
"261 252 LINE",
"405 563 LINE",
"410 563 LINE"
);
}
);
width = 1000;
}
);
unicode = 00C6;
},
{
color = 10;
glyphname = AEacute;
lastChange = "2015-02-12 03:02:43 +0000";
layers = (
{
background = {
paths = (
{
closed = 1;
nodes = (
"946 0 LINE",
"946 83 LINE",
"641 83 LINE",
"578 309 LINE",
"896 309 LINE",
"896 392 LINE",
"554 392 LINE",
"495 603 LINE",
"940 603 LINE",
"940 686 LINE",
"345 686 LINE",
"-1 0 LINE",
"94 0 LINE",
"184 183 LINE",
"515 183 LINE",
"566 0 LINE"
);
},
{
closed = 1;
nodes = (
"492 266 LINE",
"225 266 LINE",
"393 603 LINE",
"398 603 LINE"
);
},
{
closed = 1;
nodes = (
"647 737 LINE",
"755 866 LINE",
"754 869 LINE",
"658 869 LINE",
"572 737 LINE"
);
}
);
};
components = (
{
name = AE;
},
{
name = acute;
transform = "{1, 0, 0, 1, 387, 145}";
}
);
layerId = UUID0;
width = 1000;
},
{
background = {
paths = (
{
closed = 1;
nodes = (
"945 0 LINE",
"945 123 LINE",
"669 123 LINE",
"625 289 LINE",
"895 289 LINE",
"895 412 LINE",
"592 412 LINE",
"552 563 LINE",
"939 563 LINE",
"939 686 LINE",
"327 686 LINE",
"-5 0 LINE",
"145 0 LINE",
"205 131 LINE",
"521 131 LINE",
"555 0 LINE"
);
},
{
closed = 1;
nodes = (
"490 252 LINE",
"261 252 LINE",
"405 563 LINE",
"410 563 LINE"
);
},
{
closed = 1;
nodes = (
"669 737 LINE",
"777 866 LINE",
"776 869 LINE",
"643 869 LINE",
"564 737 LINE"
);
}
);
};
components = (
{
name = AE;
},
{
name = acute;
transform = "{1, 0, 0, 1, 372, 145}";
}
);
layerId = "4E7A989A-9DEE-440F-9785-5637679BA6FC";
width = 1000;
}
);
unicode = 01FC;
},
{
color = 10;
glyphname = B;
lastChange = "2015-02-12 03:02:41 +0000";
layers = (
{
anchors = (
{
name = bottom;
position = "{334, 0}";
},
{
name = top;
position = "{334, 671}";
}
);
background = {
paths = (
{
closed = 1;
nodes = (
"410 0 LINE",
"530 0 OFFCURVE",
"620 54 OFFCURVE",
"620 182 CURVE SMOOTH",
"620 283 OFFCURVE",
"563 338 OFFCURVE",
"487 356 CURVE",
"487 360 LINE",
"552 381 OFFCURVE",
"601 439 OFFCURVE",
"601 518 CURVE SMOOTH",
"601 619 OFFCURVE",
"524 686 OFFCURVE",
"410 686 CURVE SMOOTH",
"79 686 LINE",
"79 0 LINE"
);
},
{
closed = 1;
nodes = (
"401 310 LINE",
"481 310 OFFCURVE",
"523 272 OFFCURVE",
"523 194 CURVE SMOOTH",
"523 113 OFFCURVE",
"478 83 OFFCURVE",
"408 83 CURVE SMOOTH",
"174 83 LINE",
"174 310 LINE"
);
},
{
closed = 1;
nodes = (
"399 603 LINE",
"462 603 OFFCURVE",
"504 571 OFFCURVE",
"504 499 CURVE SMOOTH",
"504 436 OFFCURVE",
"459 393 OFFCURVE",
"391 393 CURVE SMOOTH",
"174 393 LINE",
"174 603 LINE"
);
}
);
};
layerId = UUID0;
paths = (
{
closed = 1;
nodes = (
"410 0 LINE",
"530 0 OFFCURVE",
"620 54 OFFCURVE",
"620 182 CURVE SMOOTH",
"620 283 OFFCURVE",
"563 338 OFFCURVE",
"487 356 CURVE",
"487 360 LINE",
"552 381 OFFCURVE",
"601 439 OFFCURVE",
"601 518 CURVE SMOOTH",
"601 619 OFFCURVE",
"524 686 OFFCURVE",
"410 686 CURVE SMOOTH",
"79 686 LINE",
"79 0 LINE"
);
},
{
closed = 1;
nodes = (
"401 310 LINE",
"481 310 OFFCURVE",
"523 272 OFFCURVE",
"523 194 CURVE SMOOTH",
"523 113 OFFCURVE",
"478 83 OFFCURVE",
"408 83 CURVE SMOOTH",
"174 83 LINE",
"174 310 LINE"
);
},
{
closed = 1;
nodes = (
"399 603 LINE",
"462 603 OFFCURVE",
"504 571 OFFCURVE",
"504 499 CURVE SMOOTH",
"504 436 OFFCURVE",
"459 393 OFFCURVE",
"391 393 CURVE SMOOTH",
"174 393 LINE",
"174 603 LINE"
);
}
);
width = 667;
},
{
anchors = (
{
name = bottom;
position = "{361, 0}";
},
{
name = top;
position = "{361, 671}";
}
);
background = {
paths = (
{
closed = 1;
nodes = (
"460 0 LINE",
"576 0 OFFCURVE",
"671 62 OFFCURVE",
"671 192 CURVE SMOOTH",
"671 276 OFFCURVE",
"616 341 OFFCURVE",
"540 356 CURVE",
"540 360 LINE",
"603 381 OFFCURVE",
"652 437 OFFCURVE",
"652 516 CURVE SMOOTH",
"652 617 OFFCURVE",
"569 686 OFFCURVE",
"460 686 CURVE SMOOTH",
"67 686 LINE",
"67 0 LINE"
);
},
{
closed = 1;
nodes = (
"428 291 LINE",
"492 291 OFFCURVE",
"522 255 OFFCURVE",
"522 208 CURVE SMOOTH",
"522 152 OFFCURVE",
"484 123 OFFCURVE",
"436 123 CURVE SMOOTH",
"213 123 LINE",
"213 291 LINE"
);
},
{
closed = 1;
nodes = (
"426 563 LINE",
"472 563 OFFCURVE",
"503 537 OFFCURVE",
"503 485 CURVE SMOOTH",
"503 445 OFFCURVE",
"475 412 OFFCURVE",
"419 412 CURVE SMOOTH",
"213 412 LINE",
"213 563 LINE"
);
}
);
};
layerId = "4E7A989A-9DEE-440F-9785-5637679BA6FC";
paths = (
{
closed = 1;
nodes = (
"460 0 LINE",
"576 0 OFFCURVE",
"671 62 OFFCURVE",
"671 192 CURVE SMOOTH",
"671 276 OFFCURVE",
"616 341 OFFCURVE",
"540 356 CURVE",
"540 360 LINE",
"603 381 OFFCURVE",
"652 437 OFFCURVE",
"652 516 CURVE SMOOTH",
"652 617 OFFCURVE",
"569 686 OFFCURVE",
"460 686 CURVE SMOOTH",
"67 686 LINE",
"67 0 LINE"
);
},
{
closed = 1;
nodes = (
"428 291 LINE",
"492 291 OFFCURVE",
"522 255 OFFCURVE",
"522 208 CURVE SMOOTH",
"522 152 OFFCURVE",
"484 123 OFFCURVE",
"436 123 CURVE SMOOTH",
"213 123 LINE",
"213 291 LINE"
);
},
{
closed = 1;
nodes = (
"426 563 LINE",
"472 563 OFFCURVE",
"503 537 OFFCURVE",
"503 485 CURVE SMOOTH",
"503 445 OFFCURVE",
"475 412 OFFCURVE",
"419 412 CURVE SMOOTH",
"213 412 LINE",
"213 563 LINE"
);
}
);
width = 722;
}
);
unicode = 0042;
},
{
color = 10;
glyphname = C;
lastChange = "2015-02-16 21:47:37 +0000";
layers = (
{
anchors = (
{
name = bottom;
position = "{361, 0}";
},
{
name = top;
position = "{361, 671}";
}
);
background = {
paths = (
{
closed = 1;
nodes = (
"583 246 LINE",
"583 127 OFFCURVE",
"504 69 OFFCURVE",
"381 69 CURVE SMOOTH",
"221 69 OFFCURVE",
"145 147 OFFCURVE",
"145 343 CURVE SMOOTH",
"145 539 OFFCURVE",
"221 617 OFFCURVE",
"381 617 CURVE SMOOTH",
"502 617 OFFCURVE",
"579 558 OFFCURVE",
"579 438 CURVE",
"676 438 LINE",
"676 613 OFFCURVE",
"553 698 OFFCURVE",
"381 698 CURVE SMOOTH",
"161 698 OFFCURVE",
"47 581 OFFCURVE",
"47 343 CURVE SMOOTH",
"47 105 OFFCURVE",
"161 -12 OFFCURVE",
"381 -12 CURVE SMOOTH",
"553 -12 OFFCURVE",
"676 69 OFFCURVE",
"676 246 CURVE"
);
}
);
};
layerId = UUID0;
paths = (
{
closed = 1;
nodes = (
"583 246 LINE",
"583 127 OFFCURVE",
"504 69 OFFCURVE",
"381 69 CURVE SMOOTH",
"221 69 OFFCURVE",
"145 147 OFFCURVE",
"145 343 CURVE SMOOTH",
"145 539 OFFCURVE",
"221 617 OFFCURVE",
"381 617 CURVE SMOOTH",
"502 617 OFFCURVE",
"579 558 OFFCURVE",
"579 438 CURVE",
"676 438 LINE",
"676 613 OFFCURVE",
"553 698 OFFCURVE",
"381 698 CURVE SMOOTH",
"161 698 OFFCURVE",
"47 581 OFFCURVE",
"47 343 CURVE SMOOTH",
"47 105 OFFCURVE",
"161 -12 OFFCURVE",
"381 -12 CURVE SMOOTH",
"553 -12 OFFCURVE",
"676 69 OFFCURVE",
"676 246 CURVE"
);
}
);
width = 722;
},
{
anchors = (
{
name = bottom;
position = "{361, 0}";
},
{
name = top;
position = "{361, 671}";
}
);
background = {
paths = (
{
closed = 1;
nodes = (
"537 254 LINE",
"537 163 OFFCURVE",
"473 111 OFFCURVE",
"377 111 CURVE SMOOTH",
"249 111 OFFCURVE",
"191 187 OFFCURVE",
"191 328 CURVE SMOOTH",
"191 358 LINE SMOOTH",
"191 494 OFFCURVE",
"249 575 OFFCURVE",
"377 575 CURVE SMOOTH",
"466 575 OFFCURVE",
"532 523 OFFCURVE",
"532 431 CURVE",
"681 431 LINE",
"681 612 OFFCURVE",
"544 698 OFFCURVE",
"374 698 CURVE SMOOTH",
"168 698 OFFCURVE",
"42 585 OFFCURVE",
"42 343 CURVE SMOOTH",
"42 91 OFFCURVE",
"168 -12 OFFCURVE",
"374 -12 CURVE SMOOTH",
"547 -12 OFFCURVE",
"681 73 OFFCURVE",
"681 254 CURVE"
);
}
);
};
layerId = "4E7A989A-9DEE-440F-9785-5637679BA6FC";
paths = (
{
closed = 1;
nodes = (
"537 254 LINE",
"537 163 OFFCURVE",
"473 111 OFFCURVE",
"377 111 CURVE SMOOTH",
"249 111 OFFCURVE",
"191 187 OFFCURVE",
"191 328 CURVE SMOOTH",
"191 358 LINE SMOOTH",
"191 494 OFFCURVE",
"249 575 OFFCURVE",
"377 575 CURVE SMOOTH",
"466 575 OFFCURVE",
"532 523 OFFCURVE",
"532 431 CURVE",
"681 431 LINE",
"681 612 OFFCURVE",
"544 698 OFFCURVE",
"374 698 CURVE SMOOTH",
"168 698 OFFCURVE",
"42 585 OFFCURVE",
"42 343 CURVE SMOOTH",
"42 91 OFFCURVE",
"168 -12 OFFCURVE",
"374 -12 CURVE SMOOTH",
"547 -12 OFFCURVE",
"681 73 OFFCURVE",
"681 254 CURVE"
);
}
);
width = 722;
}
);
leftKerningGroup = O;
unicode = 0043;
},
{
color = 10;
glyphname = Cacute;
lastChange = "2015-02-16 21:47:37 +0000";
layers = (
{
background = {
paths = (
{
closed = 1;
nodes = (
"583 246 LINE",
"583 127 OFFCURVE",
"504 69 OFFCURVE",
"381 69 CURVE SMOOTH",
"221 69 OFFCURVE",
"145 147 OFFCURVE",
"145 343 CURVE SMOOTH",
"145 539 OFFCURVE",
"221 617 OFFCURVE",
"381 617 CURVE SMOOTH",
"502 617 OFFCURVE",
"579 558 OFFCURVE",
"579 438 CURVE",
"676 438 LINE",
"676 613 OFFCURVE",
"553 698 OFFCURVE",
"381 698 CURVE SMOOTH",
"161 698 OFFCURVE",
"47 581 OFFCURVE",
"47 343 CURVE SMOOTH",
"47 105 OFFCURVE",
"161 -12 OFFCURVE",
"381 -12 CURVE SMOOTH",
"553 -12 OFFCURVE",
"676 69 OFFCURVE",
"676 246 CURVE"
);
},
{
closed = 1;
nodes = (
"397 737 LINE",
"505 866 LINE",
"504 869 LINE",
"408 869 LINE",
"322 737 LINE"
);
}
);
};
components = (
{
name = C;
},
{
name = acute;
transform = "{1, 0, 0, 1, 248, 145}";
}
);
layerId = UUID0;
width = 722;
},
{
background = {
paths = (
{
closed = 1;
nodes = (
"537 254 LINE",
"537 163 OFFCURVE",
"473 111 OFFCURVE",
"377 111 CURVE SMOOTH",
"249 111 OFFCURVE",
"191 187 OFFCURVE",
"191 328 CURVE SMOOTH",
"191 358 LINE SMOOTH",
"191 494 OFFCURVE",
"249 575 OFFCURVE",
"377 575 CURVE SMOOTH",
"466 575 OFFCURVE",
"532 523 OFFCURVE",
"532 431 CURVE",
"681 431 LINE",
"681 612 OFFCURVE",
"544 698 OFFCURVE",
"374 698 CURVE SMOOTH",
"168 698 OFFCURVE",
"42 585 OFFCURVE",
"42 343 CURVE SMOOTH",
"42 91 OFFCURVE",
"168 -12 OFFCURVE",
"374 -12 CURVE SMOOTH",
"547 -12 OFFCURVE",
"681 73 OFFCURVE",
"681 254 CURVE"
);
},
{
closed = 1;
nodes = (
"427 737 LINE",
"535 866 LINE",
"534 869 LINE",
"401 869 LINE",
"322 737 LINE"
);
}
);
};
components = (
{
name = C;
},
{
name = acute;
transform = "{1, 0, 0, 1, 233, 145}";
}
);
layerId = "4E7A989A-9DEE-440F-9785-5637679BA6FC";
width = 722;
}
);
leftKerningGroup = O;
unicode = 0106;
},
{
color = 10;
glyphname = Ccaron;
lastChange = "2015-02-16 21:47:37 +0000";
layers = (
{
background = {
paths = (
{
closed = 1;
nodes = (
"583 246 LINE",
"583 127 OFFCURVE",
"504 69 OFFCURVE",
"381 69 CURVE SMOOTH",
"221 69 OFFCURVE",
"145 147 OFFCURVE",
"145 343 CURVE SMOOTH",
"145 539 OFFCURVE",
"221 617 OFFCURVE",
"381 617 CURVE SMOOTH",
"502 617 OFFCURVE",
"579 558 OFFCURVE",
"579 438 CURVE",
"676 438 LINE",
"676 613 OFFCURVE",
"553 698 OFFCURVE",
"381 698 CURVE SMOOTH",
"161 698 OFFCURVE",
"47 581 OFFCURVE",
"47 343 CURVE SMOOTH",
"47 105 OFFCURVE",
"161 -12 OFFCURVE",
"381 -12 CURVE SMOOTH",
"553 -12 OFFCURVE",
"676 69 OFFCURVE",
"676 246 CURVE"
);
},
{
closed = 1;
nodes = (
"422 737 LINE",
"527 872 LINE",
"437 872 LINE",
"380 793 LINE",
"322 872 LINE",
"232 872 LINE",
"338 737 LINE"
);
}
);
};
components = (
{
name = C;
},
{
name = caron;
transform = "{1, 0, 0, 1, 194, 145}";
}
);
layerId = UUID0;
width = 722;
},
{
background = {
paths = (
{
closed = 1;
nodes = (
"537 254 LINE",
"537 163 OFFCURVE",
"473 111 OFFCURVE",
"377 111 CURVE SMOOTH",
"249 111 OFFCURVE",
"191 187 OFFCURVE",
"191 328 CURVE SMOOTH",
"191 358 LINE SMOOTH",
"191 494 OFFCURVE",
"249 575 OFFCURVE",
"377 575 CURVE SMOOTH",
"466 575 OFFCURVE",
"532 523 OFFCURVE",
"532 431 CURVE",
"681 431 LINE",
"681 612 OFFCURVE",
"544 698 OFFCURVE",
"374 698 CURVE SMOOTH",
"168 698 OFFCURVE",
"42 585 OFFCURVE",
"42 343 CURVE SMOOTH",
"42 91 OFFCURVE",
"168 -12 OFFCURVE",
"374 -12 CURVE SMOOTH",
"547 -12 OFFCURVE",
"681 73 OFFCURVE",
"681 254 CURVE"
);
},
{
closed = 1;
nodes = (
"441 737 LINE",
"546 872 LINE",
"435 872 LINE",
"380 803 LINE",
"324 872 LINE",
"213 872 LINE",
"319 737 LINE"
);
}
);
};
components = (
{
name = C;
},
{
name = caron;
transform = "{1, 0, 0, 1, 194, 145}";
}
);
layerId = "4E7A989A-9DEE-440F-9785-5637679BA6FC";
width = 722;
}
);
leftKerningGroup = O;
unicode = 010C;
},
{
color = 10;
glyphname = Ccedilla;
lastChange = "2015-02-16 21:47:37 +0000";
layers = (
{
background = {
paths = (
{
closed = 1;
nodes = (
"383 -77 LINE",
"413 -77 OFFCURVE",
"422 -85 OFFCURVE",
"422 -101 CURVE SMOOTH",
"422 -120 OFFCURVE",
"406 -125 OFFCURVE",
"381 -125 CURVE SMOOTH",
"281 -125 LINE",
"281 -174 LINE",
"308 -179 OFFCURVE",
"344 -182 OFFCURVE",
"376 -182 CURVE SMOOTH",
"423 -182 OFFCURVE",
"494 -168 OFFCURVE",
"494 -101 CURVE SMOOTH",
"494 -55 OFFCURVE",
"451 -39 OFFCURVE",
"402 -36 CURVE",
"406 -11 LINE",
"565 -4 OFFCURVE",
"676 77 OFFCURVE",
"676 246 CURVE",
"583 246 LINE",
"583 127 OFFCURVE",
"504 69 OFFCURVE",
"381 69 CURVE SMOOTH",
"221 69 OFFCURVE",
"145 147 OFFCURVE",
"145 343 CURVE SMOOTH",
"145 539 OFFCURVE",
"221 617 OFFCURVE",
"381 617 CURVE SMOOTH",
"502 617 OFFCURVE",
"579 558 OFFCURVE",
"579 438 CURVE",
"676 438 LINE",
"676 613 OFFCURVE",
"553 698 OFFCURVE",
"381 698 CURVE SMOOTH",
"161 698 OFFCURVE",
"47 581 OFFCURVE",
"47 343 CURVE SMOOTH",
"47 119 OFFCURVE",
"148 2 OFFCURVE",
"344 -10 CURVE",
"332 -77 LINE"
);
}
);
};
layerId = UUID0;
paths = (
{
closed = 1;
nodes = (
"383 -77 LINE",
"413 -77 OFFCURVE",
"422 -85 OFFCURVE",
"422 -101 CURVE SMOOTH",
"422 -120 OFFCURVE",
"406 -125 OFFCURVE",
"381 -125 CURVE SMOOTH",
"281 -125 LINE",
"281 -174 LINE",
"308 -179 OFFCURVE",
"344 -182 OFFCURVE",
"376 -182 CURVE SMOOTH",
"423 -182 OFFCURVE",
"494 -168 OFFCURVE",
"494 -101 CURVE SMOOTH",
"494 -55 OFFCURVE",
"451 -39 OFFCURVE",
"402 -36 CURVE",
"406 -11 LINE",
"565 -4 OFFCURVE",
"676 77 OFFCURVE",
"676 246 CURVE",
"583 246 LINE",
"583 127 OFFCURVE",
"504 69 OFFCURVE",
"381 69 CURVE SMOOTH",
"221 69 OFFCURVE",
"145 147 OFFCURVE",
"145 343 CURVE SMOOTH",
"145 539 OFFCURVE",
"221 617 OFFCURVE",
"381 617 CURVE SMOOTH",
"502 617 OFFCURVE",
"579 558 OFFCURVE",
"579 438 CURVE",
"676 438 LINE",
"676 613 OFFCURVE",
"553 698 OFFCURVE",
"381 698 CURVE SMOOTH",
"161 698 OFFCURVE",
"47 581 OFFCURVE",
"47 343 CURVE SMOOTH",
"47 119 OFFCURVE",
"148 2 OFFCURVE",
"344 -10 CURVE",
"332 -77 LINE"
);
}
);
width = 722;
},
{
background = {
paths = (
{
closed = 1;
nodes = (
"265 -174 LINE",
"295 -179 OFFCURVE",
"335 -182 OFFCURVE",
"369 -182 CURVE SMOOTH",
"423 -182 OFFCURVE",
"505 -168 OFFCURVE",
"505 -101 CURVE SMOOTH",
"505 -55 OFFCURVE",
"460 -36 OFFCURVE",
"407 -33 CURVE",
"410 -10 LINE",
"565 1 OFFCURVE",
"681 86 OFFCURVE",
"681 254 CURVE",
"537 254 LINE",
"537 163 OFFCURVE",
"473 111 OFFCURVE",
"377 111 CURVE SMOOTH",
"249 111 OFFCURVE",
"191 187 OFFCURVE",
"191 328 CURVE SMOOTH",
"191 358 LINE SMOOTH",
"191 494 OFFCURVE",
"249 575 OFFCURVE",
"377 575 CURVE SMOOTH",
"466 575 OFFCURVE",
"532 523 OFFCURVE",
"532 431 CURVE",
"681 431 LINE",
"681 612 OFFCURVE",
"544 698 OFFCURVE",
"374 698 CURVE SMOOTH",
"168 698 OFFCURVE",
"42 585 OFFCURVE",
"42 343 CURVE SMOOTH",
"42 111 OFFCURVE",
"148 6 OFFCURVE",
"325 -9 CURVE",
"315 -77 LINE",
"356 -77 LINE SMOOTH",
"388 -77 OFFCURVE",
"398 -85 OFFCURVE",
"398 -101 CURVE SMOOTH",
"398 -120 OFFCURVE",
"381 -125 OFFCURVE",
"353 -125 CURVE SMOOTH",
"265 -125 LINE"
);
}
);
};
layerId = "4E7A989A-9DEE-440F-9785-5637679BA6FC";
paths = (
{
closed = 1;
nodes = (
"265 -174 LINE",
"295 -179 OFFCURVE",
"335 -182 OFFCURVE",
"369 -182 CURVE SMOOTH",
"423 -182 OFFCURVE",
"505 -168 OFFCURVE",
"505 -101 CURVE SMOOTH",
"505 -55 OFFCURVE",
"460 -36 OFFCURVE",
"407 -33 CURVE",
"410 -10 LINE",
"565 1 OFFCURVE",
"681 86 OFFCURVE",
"681 254 CURVE",
"537 254 LINE",
"537 163 OFFCURVE",
"473 111 OFFCURVE",
"377 111 CURVE SMOOTH",
"249 111 OFFCURVE",
"191 187 OFFCURVE",
"191 328 CURVE SMOOTH",
"191 358 LINE SMOOTH",
"191 494 OFFCURVE",
"249 575 OFFCURVE",
"377 575 CURVE SMOOTH",
"466 575 OFFCURVE",
"532 523 OFFCURVE",
"532 431 CURVE",
"681 431 LINE",
"681 612 OFFCURVE",
"544 698 OFFCURVE",
"374 698 CURVE SMOOTH",
"168 698 OFFCURVE",
"42 585 OFFCURVE",
"42 343 CURVE SMOOTH",
"42 111 OFFCURVE",
"148 6 OFFCURVE",
"325 -9 CURVE",
"315 -77 LINE",
"356 -77 LINE SMOOTH",
"388 -77 OFFCURVE",
"398 -85 OFFCURVE",
"398 -101 CURVE SMOOTH",
"398 -120 OFFCURVE",
"381 -125 OFFCURVE",
"353 -125 CURVE SMOOTH",
"265 -125 LINE"
);
}
);
width = 722;
}
);
leftKerningGroup = O;
unicode = 00C7;
},
{
color = 10;
glyphname = Ccircumflex;
lastChange = "2015-02-16 21:47:37 +0000";
layers = (
{
background = {
paths = (
{
closed = 1;
nodes = (
"583 246 LINE",
"583 127 OFFCURVE",
"504 69 OFFCURVE",
"381 69 CURVE SMOOTH",
"221 69 OFFCURVE",
"145 147 OFFCURVE",
"145 343 CURVE SMOOTH",
"145 539 OFFCURVE",
"221 617 OFFCURVE",
"381 617 CURVE SMOOTH",
"502 617 OFFCURVE",
"579 558 OFFCURVE",
"579 438 CURVE",
"676 438 LINE",
"676 613 OFFCURVE",
"553 698 OFFCURVE",
"381 698 CURVE SMOOTH",
"161 698 OFFCURVE",
"47 581 OFFCURVE",
"47 343 CURVE SMOOTH",
"47 105 OFFCURVE",
"161 -12 OFFCURVE",
"381 -12 CURVE SMOOTH",
"553 -12 OFFCURVE",
"676 69 OFFCURVE",
"676 246 CURVE"
);
},
{
closed = 1;
nodes = (
"530 738 LINE",
"425 873 LINE",
"341 873 LINE",
"235 738 LINE",
"325 738 LINE",
"383 817 LINE",
"440 738 LINE"
);
}
);
};
components = (
{
name = C;
},
{
name = circumflex;
transform = "{1, 0, 0, 1, 194, 145}";
}
);
layerId = UUID0;
width = 722;
},
{
background = {
paths = (
{
closed = 1;
nodes = (
"537 254 LINE",
"537 163 OFFCURVE",
"473 111 OFFCURVE",
"377 111 CURVE SMOOTH",
"249 111 OFFCURVE",
"191 187 OFFCURVE",
"191 328 CURVE SMOOTH",
"191 358 LINE SMOOTH",
"191 494 OFFCURVE",
"249 575 OFFCURVE",
"377 575 CURVE SMOOTH",
"466 575 OFFCURVE",
"532 523 OFFCURVE",
"532 431 CURVE",
"681 431 LINE",
"681 612 OFFCURVE",
"544 698 OFFCURVE",
"374 698 CURVE SMOOTH",
"168 698 OFFCURVE",
"42 585 OFFCURVE",
"42 343 CURVE SMOOTH",
"42 91 OFFCURVE",
"168 -12 OFFCURVE",
"374 -12 CURVE SMOOTH",
"547 -12 OFFCURVE",
"681 73 OFFCURVE",
"681 254 CURVE"
);
},
{
closed = 1;
nodes = (
"546 737 LINE",
"441 872 LINE",
"319 872 LINE",
"213 737 LINE",
"324 737 LINE",
"380 806 LINE",
"435 737 LINE"
);
}
);
};
components = (
{
name = C;
},
{
name = circumflex;
transform = "{1, 0, 0, 1, 194, 145}";
}
);
layerId = "4E7A989A-9DEE-440F-9785-5637679BA6FC";
width = 722;
}
);
leftKerningGroup = O;
unicode = 0108;
},
{
color = 10;
glyphname = Cdotaccent;
lastChange = "2015-02-16 21:47:37 +0000";
layers = (
{
background = {
paths = (
{
closed = 1;
nodes = (
"583 246 LINE",
"583 127 OFFCURVE",
"504 69 OFFCURVE",
"381 69 CURVE SMOOTH",
"221 69 OFFCURVE",
"145 147 OFFCURVE",
"145 343 CURVE SMOOTH",
"145 539 OFFCURVE",
"221 617 OFFCURVE",
"381 617 CURVE SMOOTH",
"502 617 OFFCURVE",
"579 558 OFFCURVE",
"579 438 CURVE",
"676 438 LINE",
"676 613 OFFCURVE",
"553 698 OFFCURVE",
"381 698 CURVE SMOOTH",
"161 698 OFFCURVE",
"47 581 OFFCURVE",
"47 343 CURVE SMOOTH",
"47 105 OFFCURVE",
"161 -12 OFFCURVE",
"381 -12 CURVE SMOOTH",
"553 -12 OFFCURVE",
"676 69 OFFCURVE",
"676 246 CURVE"
);
},
{
closed = 1;
nodes = (
"420 753 LINE",
"420 848 LINE",
"333 848 LINE",
"333 753 LINE"
);
}
);
};
components = (
{
name = C;
},
{
name = dotaccent;
transform = "{1, 0, 0, 1, 194, 145}";
}
);
layerId = UUID0;
width = 722;
},
{
background = {
paths = (
{
closed = 1;
nodes = (
"537 254 LINE",
"537 163 OFFCURVE",
"473 111 OFFCURVE",
"377 111 CURVE SMOOTH",
"249 111 OFFCURVE",
"191 187 OFFCURVE",
"191 328 CURVE SMOOTH",
"191 358 LINE SMOOTH",
"191 494 OFFCURVE",
"249 575 OFFCURVE",
"377 575 CURVE SMOOTH",
"466 575 OFFCURVE",
"532 523 OFFCURVE",
"532 431 CURVE",
"681 431 LINE",
"681 612 OFFCURVE",
"544 698 OFFCURVE",
"374 698 CURVE SMOOTH",
"168 698 OFFCURVE",
"42 585 OFFCURVE",
"42 343 CURVE SMOOTH",
"42 91 OFFCURVE",
"168 -12 OFFCURVE",
"374 -12 CURVE SMOOTH",
"547 -12 OFFCURVE",
"681 73 OFFCURVE",
"681 254 CURVE"
);
},
{
closed = 1;
nodes = (
"451 736 LINE",
"451 866 LINE",
"316 866 LINE",
"316 736 LINE"
);
}
);
};
components = (
{
name = C;
},
{
name = dotaccent;
transform = "{1, 0, 0, 1, 193, 145}";
}
);
layerId = "4E7A989A-9DEE-440F-9785-5637679BA6FC";
width = 722;
}
);
leftKerningGroup = O;
unicode = 010A;
},
{
color = 10;
glyphname = D;
lastChange = "2015-02-16 21:45:07 +0000";
layers = (
{
anchors = (
{
name = bottom;
position = "{361, 0}";
},
{
name = center;
position = "{361, 343}";
},
{
name = top;
position = "{361, 671}";
}
);
background = {
paths = (
{
closed = 1;
nodes = (
"174 83 LINE",
"174 603 LINE",
"333 603 LINE SMOOTH",
"485 603 OFFCURVE",
"578 536 OFFCURVE",
"578 343 CURVE SMOOTH",
"578 150 OFFCURVE",
"485 83 OFFCURVE",
"333 83 CURVE SMOOTH"
);
},
{
closed = 1;
nodes = (
"333 0 LINE",
"547 0 OFFCURVE",
"676 105 OFFCURVE",
"676 343 CURVE SMOOTH",
"676 581 OFFCURVE",
"547 686 OFFCURVE",
"333 686 CURVE SMOOTH",
"79 686 LINE",
"79 0 LINE"
);
}
);
};
layerId = UUID0;
paths = (
{
closed = 1;
nodes = (
"174 83 LINE",
"174 603 LINE",
"333 603 LINE SMOOTH",
"485 603 OFFCURVE",
"578 536 OFFCURVE",
"578 343 CURVE SMOOTH",
"578 150 OFFCURVE",
"485 83 OFFCURVE",
"333 83 CURVE SMOOTH"
);
},
{
closed = 1;
nodes = (
"333 0 LINE",
"547 0 OFFCURVE",
"676 105 OFFCURVE",
"676 343 CURVE SMOOTH",
"676 581 OFFCURVE",
"547 686 OFFCURVE",
"333 686 CURVE SMOOTH",
"79 686 LINE",
"79 0 LINE"
);
}
);
width = 722;
},
{
anchors = (
{
name = bottom;
position = "{361, 0}";
},
{
name = center;
position = "{361, 343}";
},
{
name = top;
position = "{361, 671}";
}
);
background = {
paths = (
{
closed = 1;
nodes = (
"351 0 LINE",
"555 0 OFFCURVE",
"679 109 OFFCURVE",
"679 343 CURVE SMOOTH",
"679 577 OFFCURVE",
"555 686 OFFCURVE",
"351 686 CURVE SMOOTH",
"67 686 LINE",
"67 0 LINE"
);
},
{
closed = 1;
nodes = (
"530 328 LINE",
"530 200 OFFCURVE",
"470 123 OFFCURVE",
"351 123 CURVE SMOOTH",
"212 123 LINE",
"212 563 LINE",
"351 563 LINE",
"470 563 OFFCURVE",
"530 486 OFFCURVE",
"530 358 CURVE SMOOTH"
);
}
);
};
layerId = "4E7A989A-9DEE-440F-9785-5637679BA6FC";
paths = (
{
closed = 1;
nodes = (
"351 0 LINE",
"555 0 OFFCURVE",
"679 109 OFFCURVE",
"679 343 CURVE SMOOTH",
"679 577 OFFCURVE",
"555 686 OFFCURVE",
"351 686 CURVE SMOOTH",
"67 686 LINE",
"67 0 LINE"
);
},
{
closed = 1;
nodes = (
"530 328 LINE",
"530 200 OFFCURVE",
"470 123 OFFCURVE",
"351 123 CURVE SMOOTH",
"212 123 LINE",
"212 563 LINE",
"351 563 LINE",
"470 563 OFFCURVE",
"530 486 OFFCURVE",
"530 358 CURVE SMOOTH"
);
}
);
width = 722;
}
);
rightKerningGroup = O;
unicode = 0044;
},
{
color = 10;
glyphname = Eth;
lastChange = "2015-02-16 21:45:07 +0000";
layers = (
{
background = {
paths = (
{
closed = 1;
nodes = (
"333 0 LINE",
"547 0 OFFCURVE",
"676 105 OFFCURVE",
"676 343 CURVE SMOOTH",
"676 581 OFFCURVE",
"547 686 OFFCURVE",
"333 686 CURVE SMOOTH",
"79 686 LINE",
"79 387 LINE",
"5 387 LINE",
"5 324 LINE",
"79 324 LINE",
"79 0 LINE"
);
},
{
closed = 1;
nodes = (
"174 83 LINE",
"174 324 LINE",
"347 324 LINE",
"347 387 LINE",
"174 387 LINE",
"174 603 LINE",
"333 603 LINE SMOOTH",
"485 603 OFFCURVE",
"578 536 OFFCURVE",
"578 343 CURVE SMOOTH",
"578 150 OFFCURVE",
"485 83 OFFCURVE",
"333 83 CURVE SMOOTH"
);
}
);
};
layerId = UUID0;
paths = (
{
closed = 1;
nodes = (
"333 0 LINE",
"547 0 OFFCURVE",
"676 105 OFFCURVE",
"676 343 CURVE SMOOTH",
"676 581 OFFCURVE",
"547 686 OFFCURVE",
"333 686 CURVE SMOOTH",
"79 686 LINE",
"79 387 LINE",
"5 387 LINE",
"5 324 LINE",
"79 324 LINE",
"79 0 LINE"
);
},
{
closed = 1;
nodes = (
"174 83 LINE",
"174 324 LINE",
"347 324 LINE",
"347 387 LINE",
"174 387 LINE",
"174 603 LINE",
"333 603 LINE SMOOTH",
"485 603 OFFCURVE",
"578 536 OFFCURVE",
"578 343 CURVE SMOOTH",
"578 150 OFFCURVE",
"485 83 OFFCURVE",
"333 83 CURVE SMOOTH"
);
}
);
width = 722;
},
{
background = {
paths = (
{
closed = 1;
nodes = (
"351 0 LINE",
"555 0 OFFCURVE",
"679 109 OFFCURVE",
"679 343 CURVE SMOOTH",
"679 577 OFFCURVE",
"555 686 OFFCURVE",
"351 686 CURVE SMOOTH",
"67 686 LINE",
"67 397 LINE",
"4 397 LINE",
"4 312 LINE",
"67 312 LINE",
"67 0 LINE"
);
},
{
closed = 1;
nodes = (
"530 328 LINE",
"530 200 OFFCURVE",
"470 123 OFFCURVE",
"351 123 CURVE SMOOTH",
"212 123 LINE",
"212 312 LINE",
"351 312 LINE",
"351 397 LINE",
"212 397 LINE",
"212 563 LINE",
"351 563 LINE",
"470 563 OFFCURVE",
"530 486 OFFCURVE",
"530 358 CURVE SMOOTH"
);
}
);
};
layerId = "4E7A989A-9DEE-440F-9785-5637679BA6FC";
paths = (
{
closed = 1;
nodes = (
"351 0 LINE",
"555 0 OFFCURVE",
"679 109 OFFCURVE",
"679 343 CURVE SMOOTH",
"679 577 OFFCURVE",
"555 686 OFFCURVE",
"351 686 CURVE SMOOTH",
"67 686 LINE",
"67 397 LINE",
"4 397 LINE",
"4 312 LINE",
"67 312 LINE",
"67 0 LINE"
);
},
{
closed = 1;
nodes = (
"530 328 LINE",
"530 200 OFFCURVE",
"470 123 OFFCURVE",
"351 123 CURVE SMOOTH",
"212 123 LINE",
"212 312 LINE",
"351 312 LINE",
"351 397 LINE",
"212 397 LINE",
"212 563 LINE",
"351 563 LINE",
"470 563 OFFCURVE",
"530 486 OFFCURVE",
"530 358 CURVE SMOOTH"
);
}
);
width = 722;
}
);
rightKerningGroup = O;
unicode = 00D0;
},
{
color = 10;
glyphname = Dcaron;
lastChange = "2015-02-16 21:45:07 +0000";
layers = (
{
background = {
paths = (
{
closed = 1;
nodes = (
"174 83 LINE",
"174 603 LINE",
"333 603 LINE SMOOTH",
"485 603 OFFCURVE",
"578 536 OFFCURVE",
"578 343 CURVE SMOOTH",
"578 150 OFFCURVE",
"485 83 OFFCURVE",
"333 83 CURVE SMOOTH"
);
},
{
closed = 1;
nodes = (
"333 0 LINE",
"547 0 OFFCURVE",
"676 105 OFFCURVE",
"676 343 CURVE SMOOTH",
"676 581 OFFCURVE",
"547 686 OFFCURVE",
"333 686 CURVE SMOOTH",
"79 686 LINE",
"79 0 LINE"
);
},
{
closed = 1;
nodes = (
"403 736 LINE",
"508 871 LINE",
"418 871 LINE",
"361 792 LINE",
"303 871 LINE",
"213 871 LINE",
"319 736 LINE"
);
}
);
};
components = (
{
name = D;
},
{
name = caron;
transform = "{1, 0, 0, 1, 194, 145}";
}
);
layerId = UUID0;
width = 722;
},
{
background = {
paths = (
{
closed = 1;
nodes = (
"351 0 LINE",
"555 0 OFFCURVE",
"679 109 OFFCURVE",
"679 343 CURVE SMOOTH",
"679 577 OFFCURVE",
"555 686 OFFCURVE",
"351 686 CURVE SMOOTH",
"67 686 LINE",
"67 0 LINE"
);
},
{
closed = 1;
nodes = (
"530 328 LINE",
"530 200 OFFCURVE",
"470 123 OFFCURVE",
"351 123 CURVE SMOOTH",
"212 123 LINE",
"212 563 LINE",
"351 563 LINE",
"470 563 OFFCURVE",
"530 486 OFFCURVE",
"530 358 CURVE SMOOTH"
);
},
{
closed = 1;
nodes = (
"422 737 LINE",
"527 872 LINE",
"416 872 LINE",
"361 803 LINE",
"305 872 LINE",
"194 872 LINE",
"300 737 LINE"
);
}
);
};
components = (
{
name = D;
},
{
name = caron;
transform = "{1, 0, 0, 1, 194, 145}";
}
);
layerId = "4E7A989A-9DEE-440F-9785-5637679BA6FC";
width = 722;
}
);
rightKerningGroup = O;
unicode = 010E;
},
{
color = 10;
glyphname = Dcroat;
lastChange = "2015-02-16 21:45:07 +0000";
layers = (
{
background = {
paths = (
{
closed = 1;
nodes = (
"333 0 LINE",
"547 0 OFFCURVE",
"676 105 OFFCURVE",
"676 343 CURVE SMOOTH",
"676 581 OFFCURVE",
"547 686 OFFCURVE",
"333 686 CURVE SMOOTH",
"79 686 LINE",
"79 387 LINE",
"5 387 LINE",
"5 324 LINE",
"79 324 LINE",
"79 0 LINE"
);
},
{
closed = 1;
nodes = (
"174 83 LINE",
"174 324 LINE",
"347 324 LINE",
"347 387 LINE",
"174 387 LINE",
"174 603 LINE",
"333 603 LINE SMOOTH",
"485 603 OFFCURVE",
"578 536 OFFCURVE",
"578 343 CURVE SMOOTH",
"578 150 OFFCURVE",
"485 83 OFFCURVE",
"333 83 CURVE SMOOTH"
);
}
);
};
layerId = UUID0;
paths = (
{
closed = 1;
nodes = (
"333 0 LINE",
"547 0 OFFCURVE",
"676 105 OFFCURVE",
"676 343 CURVE SMOOTH",
"676 581 OFFCURVE",
"547 686 OFFCURVE",
"333 686 CURVE SMOOTH",
"79 686 LINE",
"79 387 LINE",
"5 387 LINE",
"5 324 LINE",
"79 324 LINE",
"79 0 LINE"
);
},
{
closed = 1;
nodes = (
"174 83 LINE",
"174 324 LINE",
"347 324 LINE",
"347 387 LINE",
"174 387 LINE",
"174 603 LINE",
"333 603 LINE SMOOTH",
"485 603 OFFCURVE",
"578 536 OFFCURVE",
"578 343 CURVE SMOOTH",
"578 150 OFFCURVE",
"485 83 OFFCURVE",
"333 83 CURVE SMOOTH"
);
}
);
width = 722;
},
{
background = {
paths = (
{
closed = 1;
nodes = (
"351 0 LINE",
"555 0 OFFCURVE",
"679 109 OFFCURVE",
"679 343 CURVE SMOOTH",
"679 577 OFFCURVE",
"555 686 OFFCURVE",
"351 686 CURVE SMOOTH",
"67 686 LINE",
"67 397 LINE",
"4 397 LINE",
"4 312 LINE",
"67 312 LINE",
"67 0 LINE"
);
},
{
closed = 1;
nodes = (
"530 328 LINE",
"530 200 OFFCURVE",
"470 123 OFFCURVE",
"351 123 CURVE SMOOTH",
"212 123 LINE",
"212 312 LINE",
"351 312 LINE",
"351 397 LINE",
"212 397 LINE",
"212 563 LINE",
"351 563 LINE",
"470 563 OFFCURVE",
"530 486 OFFCURVE",
"530 358 CURVE SMOOTH"
);
}
);
};
layerId = "4E7A989A-9DEE-440F-9785-5637679BA6FC";
paths = (
{
closed = 1;
nodes = (
"351 0 LINE",
"555 0 OFFCURVE",
"679 109 OFFCURVE",
"679 343 CURVE SMOOTH",
"679 577 OFFCURVE",
"555 686 OFFCURVE",
"351 686 CURVE SMOOTH",
"67 686 LINE",
"67 397 LINE",
"4 397 LINE",
"4 312 LINE",
"67 312 LINE",
"67 0 LINE"
);
},
{
closed = 1;
nodes = (
"530 328 LINE",
"530 200 OFFCURVE",
"470 123 OFFCURVE",
"351 123 CURVE SMOOTH",
"212 123 LINE",
"212 312 LINE",
"351 312 LINE",
"351 397 LINE",
"212 397 LINE",
"212 563 LINE",
"351 563 LINE",
"470 563 OFFCURVE",
"530 486 OFFCURVE",
"530 358 CURVE SMOOTH"
);
}
);
width = 722;
}
);
rightKerningGroup = O;
unicode = 0110;
},
{
color = 10;
glyphname = E;
lastChange = "2015-02-12 03:02:41 +0000";
layers = (
{
anchors = (
{
name = bottom;
position = "{334, 0}";
},
{
name = ogonek;
position = "{600, 10}";
},
{
name = top;
position = "{334, 671}";
}
);
background = {
paths = (
{
closed = 1;
nodes = (
"613 0 LINE",
"613 83 LINE",
"174 83 LINE",
"174 309 LINE",
"563 309 LINE",
"563 392 LINE",
"174 392 LINE",
"174 603 LINE",
"607 603 LINE",
"607 686 LINE",
"79 686 LINE",
"79 0 LINE"
);
}
);
};
layerId = UUID0;
paths = (
{
closed = 1;
nodes = (
"613 0 LINE",
"613 83 LINE",
"174 83 LINE",
"174 309 LINE",
"563 309 LINE",
"563 392 LINE",
"174 392 LINE",
"174 603 LINE",
"607 603 LINE",
"607 686 LINE",
"79 686 LINE",
"79 0 LINE"
);
}
);
width = 667;
},
{
anchors = (
{
name = bottom;
position = "{334, 0}";
},
{
name = ogonek;
position = "{600, 10}";
},
{
name = top;
position = "{334, 671}";
}
);
background = {
paths = (
{
closed = 1;
nodes = (
"612 0 LINE",
"612 123 LINE",
"212 123 LINE",
"212 289 LINE",
"562 289 LINE",
"562 412 LINE",
"212 412 LINE",
"212 563 LINE",
"606 563 LINE",
"606 686 LINE",
"67 686 LINE",
"67 0 LINE"
);
}
);
};
layerId = "4E7A989A-9DEE-440F-9785-5637679BA6FC";
paths = (
{
closed = 1;
nodes = (
"612 0 LINE",
"612 123 LINE",
"212 123 LINE",
"212 289 LINE",
"562 289 LINE",
"562 412 LINE",
"212 412 LINE",
"212 563 LINE",
"606 563 LINE",
"606 686 LINE",
"67 686 LINE",
"67 0 LINE"
);
}
);
width = 667;
}
);
unicode = 0045;
},
{
color = 10;
glyphname = Eacute;
lastChange = "2015-02-12 03:02:43 +0000";
layers = (
{
background = {
paths = (
{
closed = 1;
nodes = (
"613 0 LINE",
"613 83 LINE",
"174 83 LINE",
"174 309 LINE",
"563 309 LINE",
"563 392 LINE",
"174 392 LINE",
"174 603 LINE",
"607 603 LINE",
"607 686 LINE",
"79 686 LINE",
"79 0 LINE"
);
},
{
closed = 1;
nodes = (
"374 737 LINE",
"482 866 LINE",
"481 869 LINE",
"385 869 LINE",
"299 737 LINE"
);
}
);
};
components = (
{
name = E;
},
{
name = acute;
transform = "{1, 0, 0, 1, 221, 145}";
}
);
layerId = UUID0;
width = 667;
},
{
background = {
paths = (
{
closed = 1;
nodes = (
"612 0 LINE",
"612 123 LINE",
"212 123 LINE",
"212 289 LINE",
"562 289 LINE",
"562 412 LINE",
"212 412 LINE",
"212 563 LINE",
"606 563 LINE",
"606 686 LINE",
"67 686 LINE",
"67 0 LINE"
);
},
{
closed = 1;
nodes = (
"396 737 LINE",
"504 866 LINE",
"503 869 LINE",
"370 869 LINE",
"291 737 LINE"
);
}
);
};
components = (
{
name = E;
},
{
name = acute;
transform = "{1, 0, 0, 1, 206, 145}";
}
);
layerId = "4E7A989A-9DEE-440F-9785-5637679BA6FC";
width = 667;
}
);
unicode = 00C9;
},
{
color = 10;
glyphname = Ebreve;
lastChange = "2015-02-12 03:02:43 +0000";
layers = (
{
background = {
paths = (
{
closed = 1;
nodes = (
"613 0 LINE",
"613 83 LINE",
"174 83 LINE",
"174 309 LINE",
"563 309 LINE",
"563 392 LINE",
"174 392 LINE",
"174 603 LINE",
"607 603 LINE",
"607 686 LINE",
"79 686 LINE",
"79 0 LINE"
);
},
{
closed = 1;
nodes = (
"436 858 LINE",
"433 836 OFFCURVE",
"415 805 OFFCURVE",
"351 805 CURVE SMOOTH",
"287 805 OFFCURVE",
"272 836 OFFCURVE",
"267 858 CURVE",
"206 858 LINE",
"206 803 OFFCURVE",
"239 741 OFFCURVE",
"351 741 CURVE SMOOTH",
"463 741 OFFCURVE",
"497 803 OFFCURVE",
"497 858 CURVE"
);
}
);
};
components = (
{
name = E;
},
{
name = breve;
transform = "{1, 0, 0, 1, 167, 145}";
}
);
layerId = UUID0;
width = 667;
},
{
background = {
paths = (
{
closed = 1;
nodes = (
"612 0 LINE",
"612 123 LINE",
"212 123 LINE",
"212 289 LINE",
"562 289 LINE",
"562 412 LINE",
"212 412 LINE",
"212 563 LINE",
"606 563 LINE",
"606 686 LINE",
"67 686 LINE",
"67 0 LINE"
);
},
{
closed = 1;
nodes = (
"426 868 LINE",
"424 848 OFFCURVE",
"401 820 OFFCURVE",
"354 820 CURVE SMOOTH",
"307 820 OFFCURVE",
"286 848 OFFCURVE",
"283 868 CURVE",
"193 868 LINE",
"193 804 OFFCURVE",
"238 731 OFFCURVE",
"354 731 CURVE SMOOTH",
"470 731 OFFCURVE",
"516 804 OFFCURVE",
"516 868 CURVE"
);
}
);
};
components = (
{
name = E;
},
{
name = breve;
transform = "{1, 0, 0, 1, 167, 145}";
}
);
layerId = "4E7A989A-9DEE-440F-9785-5637679BA6FC";
width = 667;
}
);
unicode = 0114;
},
{
color = 10;
glyphname = Ecaron;
lastChange = "2015-02-12 03:02:43 +0000";
layers = (
{
background = {
paths = (
{
closed = 1;
nodes = (
"613 0 LINE",
"613 83 LINE",
"174 83 LINE",
"174 309 LINE",
"563 309 LINE",
"563 392 LINE",
"174 392 LINE",
"174 603 LINE",
"607 603 LINE",
"607 686 LINE",
"79 686 LINE",
"79 0 LINE"
);
},
{
closed = 1;
nodes = (
"398 737 LINE",
"503 872 LINE",
"413 872 LINE",
"356 793 LINE",
"298 872 LINE",
"208 872 LINE",
"314 737 LINE"
);
}
);
};
components = (
{
name = E;
},
{
name = caron;
transform = "{1, 0, 0, 1, 167, 145}";
}
);
layerId = UUID0;
width = 667;
},
{
background = {
paths = (
{
closed = 1;
nodes = (
"612 0 LINE",
"612 123 LINE",
"212 123 LINE",
"212 289 LINE",
"562 289 LINE",
"562 412 LINE",
"212 412 LINE",
"212 563 LINE",
"606 563 LINE",
"606 686 LINE",
"67 686 LINE",
"67 0 LINE"
);
},
{
closed = 1;
nodes = (
"418 737 LINE",
"523 872 LINE",
"412 872 LINE",
"357 803 LINE",
"301 872 LINE",
"190 872 LINE",
"296 737 LINE"
);
}
);
};
components = (
{
name = E;
},
{
name = caron;
transform = "{1, 0, 0, 1, 167, 145}";
}
);
layerId = "4E7A989A-9DEE-440F-9785-5637679BA6FC";
width = 667;
}
);
unicode = 011A;
},
{
color = 10;
glyphname = Ecircumflex;
lastChange = "2015-02-12 03:02:43 +0000";
layers = (
{
background = {
paths = (
{
closed = 1;
nodes = (
"613 0 LINE",
"613 83 LINE",
"174 83 LINE",
"174 309 LINE",
"563 309 LINE",
"563 392 LINE",
"174 392 LINE",
"174 603 LINE",
"607 603 LINE",
"607 686 LINE",
"79 686 LINE",
"79 0 LINE"
);
},
{
closed = 1;
nodes = (
"496 737 LINE",
"391 872 LINE",
"307 872 LINE",
"201 737 LINE",
"291 737 LINE",
"349 816 LINE",
"406 737 LINE"
);
}
);
};
components = (
{
name = E;
},
{
name = circumflex;
transform = "{1, 0, 0, 1, 167, 145}";
}
);
layerId = UUID0;
width = 667;
},
{
background = {
paths = (
{
closed = 1;
nodes = (
"612 0 LINE",
"612 123 LINE",
"212 123 LINE",
"212 289 LINE",
"562 289 LINE",
"562 412 LINE",
"212 412 LINE",
"212 563 LINE",
"606 563 LINE",
"606 686 LINE",
"67 686 LINE",
"67 0 LINE"
);
},
{
closed = 1;
nodes = (
"514 737 LINE",
"409 872 LINE",
"287 872 LINE",
"181 737 LINE",
"292 737 LINE",
"348 806 LINE",
"403 737 LINE"
);
}
);
};
components = (
{
name = E;
},
{
name = circumflex;
transform = "{1, 0, 0, 1, 167, 145}";
}
);
layerId = "4E7A989A-9DEE-440F-9785-5637679BA6FC";
width = 667;
}
);
unicode = 00CA;
},
{
color = 10;
glyphname = Edieresis;
lastChange = "2015-02-12 03:02:43 +0000";
layers = (
{
background = {
paths = (
{
closed = 1;
nodes = (
"613 0 LINE",
"613 83 LINE",
"174 83 LINE",
"174 309 LINE",
"563 309 LINE",
"563 392 LINE",
"174 392 LINE",
"174 603 LINE",
"607 603 LINE",
"607 686 LINE",
"79 686 LINE",
"79 0 LINE"
);
},
{
closed = 1;
nodes = (
"301 752 LINE",
"301 847 LINE",
"214 847 LINE",
"214 752 LINE"
);
},
{
closed = 1;
nodes = (
"488 752 LINE",
"488 847 LINE",
"401 847 LINE",
"401 752 LINE"
);
}
);
};
components = (
{
name = E;
},
{
name = dieresis;
transform = "{1, 0, 0, 1, 167, 145}";
}
);
layerId = UUID0;
width = 667;
},
{
background = {
paths = (
{
closed = 1;
nodes = (
"612 0 LINE",
"612 123 LINE",
"212 123 LINE",
"212 289 LINE",
"562 289 LINE",
"562 412 LINE",
"212 412 LINE",
"212 563 LINE",
"606 563 LINE",
"606 686 LINE",
"67 686 LINE",
"67 0 LINE"
);
},
{
closed = 1;
nodes = (
"301 741 LINE",
"301 859 LINE",
"183 859 LINE",
"183 741 LINE"
);
},
{
closed = 1;
nodes = (
"512 741 LINE",
"512 859 LINE",
"393 859 LINE",
"393 741 LINE"
);
}
);
};
components = (
{
name = E;
},
{
name = dieresis;
transform = "{1, 0, 0, 1, 168, 145}";
}
);
layerId = "4E7A989A-9DEE-440F-9785-5637679BA6FC";
width = 667;
}
);
unicode = 00CB;
},
{
color = 10;
glyphname = Edotaccent;
lastChange = "2015-02-12 03:02:43 +0000";
layers = (
{
background = {
paths = (
{
closed = 1;
nodes = (
"613 0 LINE",
"613 83 LINE",
"174 83 LINE",
"174 309 LINE",
"563 309 LINE",
"563 392 LINE",
"174 392 LINE",
"174 603 LINE",
"607 603 LINE",
"607 686 LINE",
"79 686 LINE",
"79 0 LINE"
);
},
{
closed = 1;
nodes = (
"398 753 LINE",
"398 848 LINE",
"311 848 LINE",
"311 753 LINE"
);
}
);
};
components = (
{
name = E;
},
{
name = dotaccent;
transform = "{1, 0, 0, 1, 167, 145}";
}
);
layerId = UUID0;
width = 667;
},
{
background = {
paths = (
{
closed = 1;
nodes = (
"612 0 LINE",
"612 123 LINE",
"212 123 LINE",
"212 289 LINE",
"562 289 LINE",
"562 412 LINE",
"212 412 LINE",
"212 563 LINE",
"606 563 LINE",
"606 686 LINE",
"67 686 LINE",
"67 0 LINE"
);
},
{
closed = 1;
nodes = (
"422 735 LINE",
"422 865 LINE",
"287 865 LINE",
"287 735 LINE"
);
}
);
};
components = (
{
name = E;
},
{
name = dotaccent;
transform = "{1, 0, 0, 1, 166, 145}";
}
);
layerId = "4E7A989A-9DEE-440F-9785-5637679BA6FC";
width = 667;
}
);
unicode = 0116;
},
{
color = 10;
glyphname = Egrave;
lastChange = "2015-02-12 03:02:43 +0000";
layers = (
{
background = {
paths = (
{
closed = 1;
nodes = (
"613 0 LINE",
"613 83 LINE",
"174 83 LINE",
"174 309 LINE",
"563 309 LINE",
"563 392 LINE",
"174 392 LINE",
"174 603 LINE",
"607 603 LINE",
"607 686 LINE",
"79 686 LINE",
"79 0 LINE"
);
},
{
closed = 1;
nodes = (
"407 737 LINE",
"321 869 LINE",
"225 869 LINE",
"224 866 LINE",
"332 737 LINE"
);
}
);
};
components = (
{
name = E;
},
{
name = grave;
transform = "{1, 0, 0, 1, 113, 145}";
}
);
layerId = UUID0;
width = 667;
},
{
background = {
paths = (
{
closed = 1;
nodes = (
"612 0 LINE",
"612 123 LINE",
"212 123 LINE",
"212 289 LINE",
"562 289 LINE",
"562 412 LINE",
"212 412 LINE",
"212 563 LINE",
"606 563 LINE",
"606 686 LINE",
"67 686 LINE",
"67 0 LINE"
);
},
{
closed = 1;
nodes = (
"419 737 LINE",
"340 869 LINE",
"207 869 LINE",
"206 866 LINE",
"314 737 LINE"
);
}
);
};
components = (
{
name = E;
},
{
name = grave;
transform = "{1, 0, 0, 1, 98, 145}";
}
);
layerId = "4E7A989A-9DEE-440F-9785-5637679BA6FC";
width = 667;
}
);
unicode = 00C8;
},
{
color = 10;
glyphname = Emacron;
lastChange = "2015-02-12 03:02:09 +0000";
layers = (
{
background = {
paths = (
{
closed = 1;
nodes = (
"509 763 LINE",
"509 835 LINE",
"204 835 LINE",
"204 763 LINE"
);
},
{
closed = 1;
nodes = (
"613 0 LINE",
"613 83 LINE",
"174 83 LINE",
"174 309 LINE",
"563 309 LINE",
"563 392 LINE",
"174 392 LINE",
"174 603 LINE",
"607 603 LINE",
"607 686 LINE",
"79 686 LINE",
"79 0 LINE"
);
}
);
};
components = (
{
name = E;
}
);
layerId = UUID0;
paths = (
{
closed = 1;
nodes = (
"509 763 LINE",
"509 835 LINE",
"204 835 LINE",
"204 763 LINE"
);
}
);
width = 667;
},
{
background = {
paths = (
{
closed = 1;
nodes = (
"612 0 LINE",
"612 123 LINE",
"212 123 LINE",
"212 289 LINE",
"562 289 LINE",
"562 412 LINE",
"212 412 LINE",
"212 563 LINE",
"606 563 LINE",
"606 686 LINE",
"67 686 LINE",
"67 0 LINE"
);
},
{
closed = 1;
nodes = (
"507 755 LINE",
"507 843 LINE",
"202 843 LINE",
"202 755 LINE"
);
}
);
};
components = (
{
name = E;
},
{
name = macron;
transform = "{1, 0, 0, 1, 167, 145}";
}
);
layerId = "4E7A989A-9DEE-440F-9785-5637679BA6FC";
width = 667;
}
);
unicode = 0112;
},
{
color = 10;
glyphname = Eogonek;
lastChange = "2015-02-12 01:36:50 +0000";
layers = (
{
background = {
paths = (
{
closed = 1;
nodes = (
"613 -117 LINE",
"581 -117 LINE SMOOTH",
"542 -117 OFFCURVE",
"528 -92 OFFCURVE",
"528 -66 CURVE SMOOTH",
"528 -40 OFFCURVE",
"553 0 OFFCURVE",
"613 0 CURVE",
"613 83 LINE",
"174 83 LINE",
"174 309 LINE",
"563 309 LINE",
"563 392 LINE",
"174 392 LINE",
"174 603 LINE",
"607 603 LINE",
"607 686 LINE",
"79 686 LINE",
"79 0 LINE",
"513 0 LINE",
"472 -21 OFFCURVE",
"450 -51 OFFCURVE",
"450 -94 CURVE SMOOTH",
"450 -162 OFFCURVE",
"510 -182 OFFCURVE",
"548 -182 CURVE SMOOTH",
"569 -182 OFFCURVE",
"591 -177 OFFCURVE",
"613 -168 CURVE"
);
}
);
};
layerId = UUID0;
paths = (
{
closed = 1;
nodes = (
"613 -117 LINE",
"581 -117 LINE SMOOTH",
"542 -117 OFFCURVE",
"528 -92 OFFCURVE",
"528 -66 CURVE SMOOTH",
"528 -40 OFFCURVE",
"553 0 OFFCURVE",
"613 0 CURVE",
"613 83 LINE",
"174 83 LINE",
"174 309 LINE",
"563 309 LINE",
"563 392 LINE",
"174 392 LINE",
"174 603 LINE",
"607 603 LINE",
"607 686 LINE",
"79 686 LINE",
"79 0 LINE",
"513 0 LINE",
"472 -21 OFFCURVE",
"450 -51 OFFCURVE",
"450 -94 CURVE SMOOTH",
"450 -162 OFFCURVE",
"510 -182 OFFCURVE",
"548 -182 CURVE SMOOTH",
"569 -182 OFFCURVE",
"591 -177 OFFCURVE",
"613 -168 CURVE"
);
}
);
width = 667;
},
{
background = {
paths = (
{
closed = 1;
nodes = (
"612 -113 LINE",
"588 -113 LINE SMOOTH",
"555 -113 OFFCURVE",
"540 -95 OFFCURVE",
"540 -76 CURVE SMOOTH",
"540 -45 OFFCURVE",
"585 -15 OFFCURVE",
"612 0 CURVE",
"612 123 LINE",
"212 123 LINE",
"212 289 LINE",
"562 289 LINE",
"562 412 LINE",
"212 412 LINE",
"212 563 LINE",
"606 563 LINE",
"606 686 LINE",
"67 686 LINE",
"67 0 LINE",
"509 0 LINE",
"469 -24 OFFCURVE",
"435 -53 OFFCURVE",
"435 -100 CURVE SMOOTH",
"435 -162 OFFCURVE",
"492 -182 OFFCURVE",
"541 -182 CURVE SMOOTH",
"565 -182 OFFCURVE",
"587 -177 OFFCURVE",
"612 -168 CURVE"
);
}
);
};
layerId = "4E7A989A-9DEE-440F-9785-5637679BA6FC";
paths = (
{
closed = 1;
nodes = (
"612 -113 LINE",
"588 -113 LINE SMOOTH",
"555 -113 OFFCURVE",
"540 -95 OFFCURVE",
"540 -76 CURVE SMOOTH",
"540 -45 OFFCURVE",
"585 -15 OFFCURVE",
"612 0 CURVE",
"612 123 LINE",
"212 123 LINE",
"212 289 LINE",
"562 289 LINE",
"562 412 LINE",
"212 412 LINE",
"212 563 LINE",
"606 563 LINE",
"606 686 LINE",
"67 686 LINE",
"67 0 LINE",
"509 0 LINE",
"469 -24 OFFCURVE",
"435 -53 OFFCURVE",
"435 -100 CURVE SMOOTH",
"435 -162 OFFCURVE",
"492 -182 OFFCURVE",
"541 -182 CURVE SMOOTH",
"565 -182 OFFCURVE",
"587 -177 OFFCURVE",
"612 -168 CURVE"
);
}
);
width = 667;
}
);
unicode = 0118;
},
{
color = 10;
glyphname = F;
lastChange = "2015-02-12 03:02:41 +0000";
layers = (
{
anchors = (
{
name = bottom;
position = "{306, 0}";
},
{
name = top;
position = "{306, 671}";
}
);
background = {
paths = (
{
closed = 1;
nodes = (
"529 302 LINE",
"529 385 LINE",
"174 385 LINE",
"174 603 LINE",
"565 603 LINE",
"565 686 LINE",
"79 686 LINE",
"79 0 LINE",
"174 0 LINE",
"174 302 LINE"
);
}
);
};
layerId = UUID0;
paths = (
{
closed = 1;
nodes = (
"529 302 LINE",
"529 385 LINE",
"174 385 LINE",
"174 603 LINE",
"565 603 LINE",
"565 686 LINE",
"79 686 LINE",
"79 0 LINE",
"174 0 LINE",
"174 302 LINE"
);
}
);
width = 611;
},
{
anchors = (
{
name = bottom;
position = "{306, 0}";
},
{
name = top;
position = "{306, 671}";
}
);
background = {
paths = (
{
closed = 1;
nodes = (
"527 271 LINE",
"527 394 LINE",
"212 394 LINE",
"212 563 LINE",
"564 563 LINE",
"564 686 LINE",
"67 686 LINE",
"67 0 LINE",
"212 0 LINE",
"212 271 LINE"
);
}
);
};
layerId = "4E7A989A-9DEE-440F-9785-5637679BA6FC";
paths = (
{
closed = 1;
nodes = (
"527 271 LINE",
"527 394 LINE",
"212 394 LINE",
"212 563 LINE",
"564 563 LINE",
"564 686 LINE",
"67 686 LINE",
"67 0 LINE",
"212 0 LINE",
"212 271 LINE"
);
}
);
width = 611;
}
);
unicode = 0046;
},
{
color = 10;
glyphname = G;
lastChange = "2015-02-16 21:47:37 +0000";
layers = (
{
anchors = (
{
name = bottom;
position = "{389, 0}";
},
{
name = top;
position = "{389, 671}";
}
);
background = {
paths = (
{
closed = 1;
nodes = (
"707 0 LINE",
"707 357 LINE",
"370 357 LINE",
"370 274 LINE",
"612 274 LINE",
"612 264 LINE SMOOTH",
"612 133 OFFCURVE",
"542 69 OFFCURVE",
"387 69 CURVE SMOOTH",
"229 69 OFFCURVE",
"146 144 OFFCURVE",
"146 343 CURVE SMOOTH",
"146 542 OFFCURVE",
"230 617 OFFCURVE",
"393 617 CURVE SMOOTH",
"522 617 OFFCURVE",
"610 566 OFFCURVE",
"610 452 CURVE",
"707 452 LINE",
"707 618 OFFCURVE",
"574 698 OFFCURVE",
"393 698 CURVE SMOOTH",
"165 698 OFFCURVE",
"47 581 OFFCURVE",
"47 343 CURVE SMOOTH",
"47 105 OFFCURVE",
"164 -12 OFFCURVE",
"387 -12 CURVE SMOOTH",
"486 -12 OFFCURVE",
"571 14 OFFCURVE",
"626 76 CURVE",
"633 0 LINE"
);
}
);
};
layerId = UUID0;
paths = (
{
closed = 1;
nodes = (
"707 0 LINE",
"707 357 LINE",
"370 357 LINE",
"370 274 LINE",
"612 274 LINE",
"612 264 LINE SMOOTH",
"612 133 OFFCURVE",
"542 69 OFFCURVE",
"387 69 CURVE SMOOTH",
"229 69 OFFCURVE",
"146 144 OFFCURVE",
"146 343 CURVE SMOOTH",
"146 542 OFFCURVE",
"230 617 OFFCURVE",
"393 617 CURVE SMOOTH",
"522 617 OFFCURVE",
"610 566 OFFCURVE",
"610 452 CURVE",
"707 452 LINE",
"707 618 OFFCURVE",
"574 698 OFFCURVE",
"393 698 CURVE SMOOTH",
"165 698 OFFCURVE",
"47 581 OFFCURVE",
"47 343 CURVE SMOOTH",
"47 105 OFFCURVE",
"164 -12 OFFCURVE",
"387 -12 CURVE SMOOTH",
"486 -12 OFFCURVE",
"571 14 OFFCURVE",
"626 76 CURVE",
"633 0 LINE"
);
}
);
width = 778;
},
{
anchors = (
{
name = bottom;
position = "{389, 0}";
},
{
name = top;
position = "{389, 671}";
}
);
background = {
paths = (
{
closed = 1;
nodes = (
"717 0 LINE",
"717 373 LINE",
"364 373 LINE",
"364 254 LINE",
"572 254 LINE",
"572 166 OFFCURVE",
"489 111 OFFCURVE",
"384 111 CURVE SMOOTH",
"253 111 OFFCURVE",
"191 182 OFFCURVE",
"191 328 CURVE SMOOTH",
"191 358 LINE SMOOTH",
"191 496 OFFCURVE",
"257 575 OFFCURVE",
"399 575 CURVE SMOOTH",
"486 575 OFFCURVE",
"567 530 OFFCURVE",
"567 452 CURVE",
"717 452 LINE",
"717 619 OFFCURVE",
"566 698 OFFCURVE",
"394 698 CURVE SMOOTH",
"176 698 OFFCURVE",
"42 585 OFFCURVE",
"42 343 CURVE SMOOTH",
"42 95 OFFCURVE",
"168 -12 OFFCURVE",
"374 -12 CURVE SMOOTH",
"479 -12 OFFCURVE",
"542 17 OFFCURVE",
"604 76 CURVE",
"617 0 LINE"
);
}
);
};
layerId = "4E7A989A-9DEE-440F-9785-5637679BA6FC";
paths = (
{
closed = 1;
nodes = (
"717 0 LINE",
"717 373 LINE",
"364 373 LINE",
"364 254 LINE",
"572 254 LINE",
"572 166 OFFCURVE",
"489 111 OFFCURVE",
"384 111 CURVE SMOOTH",
"253 111 OFFCURVE",
"191 182 OFFCURVE",
"191 328 CURVE SMOOTH",
"191 358 LINE SMOOTH",
"191 496 OFFCURVE",
"257 575 OFFCURVE",
"399 575 CURVE SMOOTH",
"486 575 OFFCURVE",
"567 530 OFFCURVE",
"567 452 CURVE",
"717 452 LINE",
"717 619 OFFCURVE",
"566 698 OFFCURVE",
"394 698 CURVE SMOOTH",
"176 698 OFFCURVE",
"42 585 OFFCURVE",
"42 343 CURVE SMOOTH",
"42 95 OFFCURVE",
"168 -12 OFFCURVE",
"374 -12 CURVE SMOOTH",
"479 -12 OFFCURVE",
"542 17 OFFCURVE",
"604 76 CURVE",
"617 0 LINE"
);
}
);
width = 778;
}
);
leftKerningGroup = O;
unicode = 0047;
},
{
color = 10;
glyphname = Gbreve;
lastChange = "2015-02-16 21:47:37 +0000";
layers = (
{
background = {
paths = (
{
closed = 1;
nodes = (
"707 0 LINE",
"707 357 LINE",
"370 357 LINE",
"370 274 LINE",
"612 274 LINE",
"612 264 LINE SMOOTH",
"612 133 OFFCURVE",
"542 69 OFFCURVE",
"387 69 CURVE SMOOTH",
"229 69 OFFCURVE",
"146 144 OFFCURVE",
"146 343 CURVE SMOOTH",
"146 542 OFFCURVE",
"230 617 OFFCURVE",
"393 617 CURVE SMOOTH",
"522 617 OFFCURVE",
"610 566 OFFCURVE",
"610 452 CURVE",
"707 452 LINE",
"707 618 OFFCURVE",
"574 698 OFFCURVE",
"393 698 CURVE SMOOTH",
"165 698 OFFCURVE",
"47 581 OFFCURVE",
"47 343 CURVE SMOOTH",
"47 105 OFFCURVE",
"164 -12 OFFCURVE",
"387 -12 CURVE SMOOTH",
"486 -12 OFFCURVE",
"571 14 OFFCURVE",
"626 76 CURVE",
"633 0 LINE"
);
},
{
closed = 1;
nodes = (
"481 858 LINE",
"478 836 OFFCURVE",
"460 805 OFFCURVE",
"396 805 CURVE SMOOTH",
"332 805 OFFCURVE",
"317 836 OFFCURVE",
"312 858 CURVE",
"251 858 LINE",
"251 803 OFFCURVE",
"284 741 OFFCURVE",
"396 741 CURVE SMOOTH",
"508 741 OFFCURVE",
"542 803 OFFCURVE",
"542 858 CURVE"
);
}
);
};
components = (
{
name = G;
},
{
name = breve;
transform = "{1, 0, 0, 1, 222, 145}";
}
);
layerId = UUID0;
width = 778;
},
{
background = {
paths = (
{
closed = 1;
nodes = (
"717 0 LINE",
"717 373 LINE",
"364 373 LINE",
"364 254 LINE",
"572 254 LINE",
"572 166 OFFCURVE",
"489 111 OFFCURVE",
"384 111 CURVE SMOOTH",
"253 111 OFFCURVE",
"191 182 OFFCURVE",
"191 328 CURVE SMOOTH",
"191 358 LINE SMOOTH",
"191 496 OFFCURVE",
"257 575 OFFCURVE",
"399 575 CURVE SMOOTH",
"486 575 OFFCURVE",
"567 530 OFFCURVE",
"567 452 CURVE",
"717 452 LINE",
"717 619 OFFCURVE",
"566 698 OFFCURVE",
"394 698 CURVE SMOOTH",
"176 698 OFFCURVE",
"42 585 OFFCURVE",
"42 343 CURVE SMOOTH",
"42 95 OFFCURVE",
"168 -12 OFFCURVE",
"374 -12 CURVE SMOOTH",
"479 -12 OFFCURVE",
"542 17 OFFCURVE",
"604 76 CURVE",
"617 0 LINE"
);
},
{
closed = 1;
nodes = (
"471 868 LINE",
"469 848 OFFCURVE",
"446 820 OFFCURVE",
"399 820 CURVE SMOOTH",
"352 820 OFFCURVE",
"331 848 OFFCURVE",
"328 868 CURVE",
"238 868 LINE",
"238 804 OFFCURVE",
"283 731 OFFCURVE",
"399 731 CURVE SMOOTH",
"515 731 OFFCURVE",
"561 804 OFFCURVE",
"561 868 CURVE"
);
}
);
};
components = (
{
name = G;
},
{
name = breve;
transform = "{1, 0, 0, 1, 222, 145}";
}
);
layerId = "4E7A989A-9DEE-440F-9785-5637679BA6FC";
width = 778;
}
);
leftKerningGroup = O;
unicode = 011E;
},
{
color = 10;
glyphname = Gcircumflex;
lastChange = "2015-02-16 21:47:37 +0000";
layers = (
{
background = {
paths = (
{
closed = 1;
nodes = (
"707 0 LINE",
"707 357 LINE",
"370 357 LINE",
"370 274 LINE",
"612 274 LINE",
"612 264 LINE SMOOTH",
"612 133 OFFCURVE",
"542 69 OFFCURVE",
"387 69 CURVE SMOOTH",
"229 69 OFFCURVE",
"146 144 OFFCURVE",
"146 343 CURVE SMOOTH",
"146 542 OFFCURVE",
"230 617 OFFCURVE",
"393 617 CURVE SMOOTH",
"522 617 OFFCURVE",
"610 566 OFFCURVE",
"610 452 CURVE",
"707 452 LINE",
"707 618 OFFCURVE",
"574 698 OFFCURVE",
"393 698 CURVE SMOOTH",
"165 698 OFFCURVE",
"47 581 OFFCURVE",
"47 343 CURVE SMOOTH",
"47 105 OFFCURVE",
"164 -12 OFFCURVE",
"387 -12 CURVE SMOOTH",
"486 -12 OFFCURVE",
"571 14 OFFCURVE",
"626 76 CURVE",
"633 0 LINE"
);
},
{
closed = 1;
nodes = (
"550 737 LINE",
"445 872 LINE",
"361 872 LINE",
"255 737 LINE",
"345 737 LINE",
"403 816 LINE",
"460 737 LINE"
);
}
);
};
components = (
{
name = G;
},
{
name = circumflex;
transform = "{1, 0, 0, 1, 222, 145}";
}
);
layerId = UUID0;
width = 778;
},
{
background = {
paths = (
{
closed = 1;
nodes = (
"717 0 LINE",
"717 373 LINE",
"364 373 LINE",
"364 254 LINE",
"572 254 LINE",
"572 166 OFFCURVE",
"489 111 OFFCURVE",
"384 111 CURVE SMOOTH",
"253 111 OFFCURVE",
"191 182 OFFCURVE",
"191 328 CURVE SMOOTH",
"191 358 LINE SMOOTH",
"191 496 OFFCURVE",
"257 575 OFFCURVE",
"399 575 CURVE SMOOTH",
"486 575 OFFCURVE",
"567 530 OFFCURVE",
"567 452 CURVE",
"717 452 LINE",
"717 619 OFFCURVE",
"566 698 OFFCURVE",
"394 698 CURVE SMOOTH",
"176 698 OFFCURVE",
"42 585 OFFCURVE",
"42 343 CURVE SMOOTH",
"42 95 OFFCURVE",
"168 -12 OFFCURVE",
"374 -12 CURVE SMOOTH",
"479 -12 OFFCURVE",
"542 17 OFFCURVE",
"604 76 CURVE",
"617 0 LINE"
);
},
{
closed = 1;
nodes = (
"569 737 LINE",
"464 872 LINE",
"342 872 LINE",
"236 737 LINE",
"347 737 LINE",
"403 806 LINE",
"458 737 LINE"
);
}
);
};
components = (
{
name = G;
},
{
name = circumflex;
transform = "{1, 0, 0, 1, 222, 145}";
}
);
layerId = "4E7A989A-9DEE-440F-9785-5637679BA6FC";
width = 778;
}
);
leftKerningGroup = O;
unicode = 011C;
},
{
color = 10;
glyphname = Gcommaaccent;
lastChange = "2015-02-16 21:47:37 +0000";
layers = (
{
background = {
paths = (
{
closed = 1;
nodes = (
"400 -230 LINE",
"443 -142 LINE",
"443 -58 LINE",
"355 -58 LINE",
"355 -149 LINE",
"392 -149 LINE",
"355 -230 LINE"
);
},
{
closed = 1;
nodes = (
"707 0 LINE",
"707 357 LINE",
"370 357 LINE",
"370 274 LINE",
"612 274 LINE",
"612 264 LINE SMOOTH",
"612 133 OFFCURVE",
"542 69 OFFCURVE",
"387 69 CURVE SMOOTH",
"229 69 OFFCURVE",
"146 144 OFFCURVE",
"146 343 CURVE SMOOTH",
"146 542 OFFCURVE",
"230 617 OFFCURVE",
"393 617 CURVE SMOOTH",
"522 617 OFFCURVE",
"610 566 OFFCURVE",
"610 452 CURVE",
"707 452 LINE",
"707 618 OFFCURVE",
"574 698 OFFCURVE",
"393 698 CURVE SMOOTH",
"165 698 OFFCURVE",
"47 581 OFFCURVE",
"47 343 CURVE SMOOTH",
"47 105 OFFCURVE",
"164 -12 OFFCURVE",
"387 -12 CURVE SMOOTH",
"486 -12 OFFCURVE",
"571 14 OFFCURVE",
"626 76 CURVE",
"633 0 LINE"
);
}
);
};
components = (
{
name = G;
},
{
name = commaaccent;
transform = "{1, 0, 0, 1, 278, 0}";
}
);
layerId = UUID0;
width = 778;
},
{
background = {
paths = (
{
closed = 1;
nodes = (
"388 -250 LINE",
"454 -141 LINE",
"454 -55 LINE",
"316 -55 LINE",
"316 -153 LINE",
"371 -153 LINE",
"316 -250 LINE"
);
},
{
closed = 1;
nodes = (
"717 0 LINE",
"717 373 LINE",
"364 373 LINE",
"364 254 LINE",
"572 254 LINE",
"572 166 OFFCURVE",
"489 111 OFFCURVE",
"384 111 CURVE SMOOTH",
"253 111 OFFCURVE",
"191 182 OFFCURVE",
"191 328 CURVE SMOOTH",
"191 358 LINE SMOOTH",
"191 496 OFFCURVE",
"257 575 OFFCURVE",
"399 575 CURVE SMOOTH",
"486 575 OFFCURVE",
"567 530 OFFCURVE",
"567 452 CURVE",
"717 452 LINE",
"717 619 OFFCURVE",
"566 698 OFFCURVE",
"394 698 CURVE SMOOTH",
"176 698 OFFCURVE",
"42 585 OFFCURVE",
"42 343 CURVE SMOOTH",
"42 95 OFFCURVE",
"168 -12 OFFCURVE",
"374 -12 CURVE SMOOTH",
"479 -12 OFFCURVE",
"542 17 OFFCURVE",
"604 76 CURVE",
"617 0 LINE"
);
}
);
};
components = (
{
name = G;
},
{
name = commaaccent;
transform = "{1, 0, 0, 1, 223, 0}";
}
);
layerId = "4E7A989A-9DEE-440F-9785-5637679BA6FC";
width = 778;
}
);
leftKerningGroup = O;
unicode = 0122;
},
{
color = 10;
glyphname = Gdotaccent;
lastChange = "2015-02-16 21:47:37 +0000";
layers = (
{
background = {
paths = (
{
closed = 1;
nodes = (
"707 0 LINE",
"707 357 LINE",
"370 357 LINE",
"370 274 LINE",
"612 274 LINE",
"612 264 LINE SMOOTH",
"612 133 OFFCURVE",
"542 69 OFFCURVE",
"387 69 CURVE SMOOTH",
"229 69 OFFCURVE",
"146 144 OFFCURVE",
"146 343 CURVE SMOOTH",
"146 542 OFFCURVE",
"230 617 OFFCURVE",
"393 617 CURVE SMOOTH",
"522 617 OFFCURVE",
"610 566 OFFCURVE",
"610 452 CURVE",
"707 452 LINE",
"707 618 OFFCURVE",
"574 698 OFFCURVE",
"393 698 CURVE SMOOTH",
"165 698 OFFCURVE",
"47 581 OFFCURVE",
"47 343 CURVE SMOOTH",
"47 105 OFFCURVE",
"164 -12 OFFCURVE",
"387 -12 CURVE SMOOTH",
"486 -12 OFFCURVE",
"571 14 OFFCURVE",
"626 76 CURVE",
"633 0 LINE"
);
},
{
closed = 1;
nodes = (
"445 752 LINE",
"445 847 LINE",
"358 847 LINE",
"358 752 LINE"
);
}
);
};
components = (
{
name = G;
},
{
name = dotaccent;
transform = "{1, 0, 0, 1, 222, 145}";
}
);
layerId = UUID0;
width = 778;
},
{
background = {
paths = (
{
closed = 1;
nodes = (
"717 0 LINE",
"717 373 LINE",
"364 373 LINE",
"364 254 LINE",
"572 254 LINE",
"572 166 OFFCURVE",
"489 111 OFFCURVE",
"384 111 CURVE SMOOTH",
"253 111 OFFCURVE",
"191 182 OFFCURVE",
"191 328 CURVE SMOOTH",
"191 358 LINE SMOOTH",
"191 496 OFFCURVE",
"257 575 OFFCURVE",
"399 575 CURVE SMOOTH",
"486 575 OFFCURVE",
"567 530 OFFCURVE",
"567 452 CURVE",
"717 452 LINE",
"717 619 OFFCURVE",
"566 698 OFFCURVE",
"394 698 CURVE SMOOTH",
"176 698 OFFCURVE",
"42 585 OFFCURVE",
"42 343 CURVE SMOOTH",
"42 95 OFFCURVE",
"168 -12 OFFCURVE",
"374 -12 CURVE SMOOTH",
"479 -12 OFFCURVE",
"542 17 OFFCURVE",
"604 76 CURVE",
"617 0 LINE"
);
},
{
closed = 1;
nodes = (
"464 734 LINE",
"464 864 LINE",
"329 864 LINE",
"329 734 LINE"
);
}
);
};
components = (
{
name = G;
},
{
name = dotaccent;
transform = "{1, 0, 0, 1, 221, 145}";
}
);
layerId = "4E7A989A-9DEE-440F-9785-5637679BA6FC";
width = 778;
}
);
leftKerningGroup = O;
unicode = 0120;
},
{
color = 10;
glyphname = H;
lastChange = "2015-02-12 03:02:41 +0000";
layers = (
{
anchors = (
{
name = bottom;
position = "{361, 0}";
},
{
name = center;
position = "{361, 343}";
},
{
name = top;
position = "{361, 671}";
}
);
background = {
paths = (
{
closed = 1;
nodes = (
"643 0 LINE",
"643 686 LINE",
"548 686 LINE",
"548 392 LINE",
"174 392 LINE",
"174 686 LINE",
"79 686 LINE",
"79 0 LINE",
"174 0 LINE",
"174 309 LINE",
"548 309 LINE",
"548 0 LINE"
);
}
);
};
layerId = UUID0;
paths = (
{
closed = 1;
nodes = (
"643 0 LINE",
"643 686 LINE",
"548 686 LINE",
"548 392 LINE",
"174 392 LINE",
"174 686 LINE",
"79 686 LINE",
"79 0 LINE",
"174 0 LINE",
"174 309 LINE",
"548 309 LINE",
"548 0 LINE"
);
}
);
width = 722;
},
{
anchors = (
{
name = bottom;
position = "{361, 0}";
},
{
name = center;
position = "{361, 343}";
},
{
name = top;
position = "{361, 671}";
}
);
background = {
paths = (
{
closed = 1;
nodes = (
"655 0 LINE",
"655 686 LINE",
"510 686 LINE",
"510 414 LINE",
"212 414 LINE",
"212 686 LINE",
"67 686 LINE",
"67 0 LINE",
"212 0 LINE",
"212 289 LINE",
"510 289 LINE",
"510 0 LINE"
);
}
);
};
layerId = "4E7A989A-9DEE-440F-9785-5637679BA6FC";
paths = (
{
closed = 1;
nodes = (
"655 0 LINE",
"655 686 LINE",
"510 686 LINE",
"510 414 LINE",
"212 414 LINE",
"212 686 LINE",
"67 686 LINE",
"67 0 LINE",
"212 0 LINE",
"212 289 LINE",
"510 289 LINE",
"510 0 LINE"
);
}
);
width = 722;
}
);
unicode = 0048;
},
{
color = 10;
glyphname = Hbar;
lastChange = "2015-02-12 01:36:49 +0000";
layers = (
{
background = {
paths = (
{
closed = 1;
nodes = (
"643 0 LINE",
"643 526 LINE",
"713 526 LINE",
"713 598 LINE",
"643 598 LINE",
"643 686 LINE",
"548 686 LINE",
"548 598 LINE",
"174 598 LINE",
"174 686 LINE",
"79 686 LINE",
"79 598 LINE",
"9 598 LINE",
"9 526 LINE",
"79 526 LINE",
"79 0 LINE",
"174 0 LINE",
"174 309 LINE",
"548 309 LINE",
"548 0 LINE"
);
},
{
closed = 1;
nodes = (
"548 392 LINE",
"174 392 LINE",
"174 526 LINE",
"548 526 LINE"
);
}
);
};
layerId = UUID0;
paths = (
{
closed = 1;
nodes = (
"643 0 LINE",
"643 526 LINE",
"713 526 LINE",
"713 598 LINE",
"643 598 LINE",
"643 686 LINE",
"548 686 LINE",
"548 598 LINE",
"174 598 LINE",
"174 686 LINE",
"79 686 LINE",
"79 598 LINE",
"9 598 LINE",
"9 526 LINE",
"79 526 LINE",
"79 0 LINE",
"174 0 LINE",
"174 309 LINE",
"548 309 LINE",
"548 0 LINE"
);
},
{
closed = 1;
nodes = (
"548 392 LINE",
"174 392 LINE",
"174 526 LINE",
"548 526 LINE"
);
}
);
width = 722;
},
{
background = {
paths = (
{
closed = 1;
nodes = (
"655 0 LINE",
"655 507 LINE",
"715 507 LINE",
"715 598 LINE",
"655 598 LINE",
"655 686 LINE",
"510 686 LINE",
"510 598 LINE",
"212 598 LINE",
"212 686 LINE",
"67 686 LINE",
"67 598 LINE",
"7 598 LINE",
"7 507 LINE",
"67 507 LINE",
"67 0 LINE",
"212 0 LINE",
"212 289 LINE",
"510 289 LINE",
"510 0 LINE"
);
},
{
closed = 1;
nodes = (
"510 414 LINE",
"212 414 LINE",
"212 507 LINE",
"510 507 LINE"
);
}
);
};
layerId = "4E7A989A-9DEE-440F-9785-5637679BA6FC";
paths = (
{
closed = 1;
nodes = (
"655 0 LINE",
"655 507 LINE",
"715 507 LINE",
"715 598 LINE",
"655 598 LINE",
"655 686 LINE",
"510 686 LINE",
"510 598 LINE",
"212 598 LINE",
"212 686 LINE",
"67 686 LINE",
"67 598 LINE",
"7 598 LINE",
"7 507 LINE",
"67 507 LINE",
"67 0 LINE",
"212 0 LINE",
"212 289 LINE",
"510 289 LINE",
"510 0 LINE"
);
},
{
closed = 1;
nodes = (
"510 414 LINE",
"212 414 LINE",
"212 507 LINE",
"510 507 LINE"
);
}
);
width = 722;
}
);
unicode = 0126;
},
{
color = 10;
glyphname = Hcircumflex;
lastChange = "2015-02-12 03:02:43 +0000";
layers = (
{
background = {
paths = (
{
closed = 1;
nodes = (
"643 0 LINE",
"643 686 LINE",
"548 686 LINE",
"548 392 LINE",
"174 392 LINE",
"174 686 LINE",
"79 686 LINE",
"79 0 LINE",
"174 0 LINE",
"174 309 LINE",
"548 309 LINE",
"548 0 LINE"
);
},
{
closed = 1;
nodes = (
"509 737 LINE",
"404 872 LINE",
"320 872 LINE",
"214 737 LINE",
"304 737 LINE",
"362 816 LINE",
"419 737 LINE"
);
}
);
};
components = (
{
name = H;
},
{
name = circumflex;
transform = "{1, 0, 0, 1, 194, 145}";
}
);
layerId = UUID0;
width = 722;
},
{
background = {
paths = (
{
closed = 1;
nodes = (
"655 0 LINE",
"655 686 LINE",
"510 686 LINE",
"510 414 LINE",
"212 414 LINE",
"212 686 LINE",
"67 686 LINE",
"67 0 LINE",
"212 0 LINE",
"212 289 LINE",
"510 289 LINE",
"510 0 LINE"
);
},
{
closed = 1;
nodes = (
"529 737 LINE",
"424 872 LINE",
"302 872 LINE",
"196 737 LINE",
"307 737 LINE",
"363 806 LINE",
"418 737 LINE"
);
}
);
};
components = (
{
name = H;
},
{
name = circumflex;
transform = "{1, 0, 0, 1, 194, 145}";
}
);
layerId = "4E7A989A-9DEE-440F-9785-5637679BA6FC";
width = 722;
}
);
unicode = 0124;
},
{
color = 10;
glyphname = I;
lastChange = "2015-02-12 03:02:41 +0000";
layers = (
{
anchors = (
{
name = bottom;
position = "{139, 0}";
},
{
name = ogonek;
position = "{250, 10}";
},
{
name = top;
position = "{139, 671}";
}
);
background = {
paths = (
{
closed = 1;
nodes = (
"187 0 LINE",
"187 686 LINE",
"92 686 LINE",
"92 0 LINE"
);
}
);
};
layerId = UUID0;
paths = (
{
closed = 1;
nodes = (
"187 0 LINE",
"187 686 LINE",
"92 686 LINE",
"92 0 LINE"
);
}
);
width = 278;
},
{
anchors = (
{
name = bottom;
position = "{139, 0}";
},
{
name = ogonek;
position = "{250, 10}";
},
{
name = top;
position = "{139, 671}";
}
);
background = {
paths = (
{
closed = 1;
nodes = (
"212 0 LINE",
"212 686 LINE",
"67 686 LINE",
"67 0 LINE"
);
}
);
};
layerId = "4E7A989A-9DEE-440F-9785-5637679BA6FC";
paths = (
{
closed = 1;
nodes = (
"212 0 LINE",
"212 686 LINE",
"67 686 LINE",
"67 0 LINE"
);
}
);
width = 278;
}
);
unicode = 0049;
},
{
color = 10;
glyphname = IJ;
lastChange = "2015-02-12 02:58:34 +0000";
layers = (
{
background = {
paths = (
{
closed = 1;
nodes = (
"187 0 LINE",
"187 686 LINE",
"92 686 LINE",
"92 0 LINE"
);
},
{
closed = 1;
nodes = (
"562 194 LINE",
"562 111 OFFCURVE",
"526 69 OFFCURVE",
"460 69 CURVE SMOOTH",
"395 69 OFFCURVE",
"359 106 OFFCURVE",
"359 178 CURVE SMOOTH",
"359 208 LINE",
"264 208 LINE",
"264 183 LINE SMOOTH",
"264 55 OFFCURVE",
"336 -12 OFFCURVE",
"460 -12 CURVE SMOOTH",
"585 -12 OFFCURVE",
"657 57 OFFCURVE",
"657 199 CURVE SMOOTH",
"657 686 LINE",
"562 686 LINE"
);
}
);
};
components = (
{
name = I;
},
{
name = J;
transform = "{1, 0, 0, 1, 278, 0}";
}
);
layerId = UUID0;
width = 778;
},
{
background = {
paths = (
{
closed = 1;
nodes = (
"212 0 LINE",
"212 686 LINE",
"67 686 LINE",
"67 0 LINE"
);
},
{
closed = 1;
nodes = (
"578 195 LINE",
"578 141 OFFCURVE",
"549 110 OFFCURVE",
"490 110 CURVE SMOOTH",
"429 110 OFFCURVE",
"398 141 OFFCURVE",
"398 195 CURVE SMOOTH",
"398 236 LINE",
"254 236 LINE",
"254 193 LINE SMOOTH",
"254 58 OFFCURVE",
"339 -12 OFFCURVE",
"490 -12 CURVE SMOOTH",
"641 -12 OFFCURVE",
"724 58 OFFCURVE",
"724 193 CURVE SMOOTH",
"724 686 LINE",
"578 686 LINE"
);
}
);
};
components = (
{
name = I;
},
{
name = J;
transform = "{1, 0, 0, 1, 278, 0}";
}
);
layerId = "4E7A989A-9DEE-440F-9785-5637679BA6FC";
width = 834;
}
);
unicode = 0132;
},
{
color = 10;
glyphname = Iacute;
lastChange = "2015-02-12 03:02:43 +0000";
layers = (
{
background = {
paths = (
{
closed = 1;
nodes = (
"187 0 LINE",
"187 686 LINE",
"92 686 LINE",
"92 0 LINE"
);
},
{
closed = 1;
nodes = (
"162 737 LINE",
"270 866 LINE",
"269 869 LINE",
"173 869 LINE",
"87 737 LINE"
);
}
);
};
components = (
{
name = I;
},
{
name = acute;
transform = "{1, 0, 0, 1, 26, 145}";
}
);
layerId = UUID0;
width = 278;
},
{
background = {
paths = (
{
closed = 1;
nodes = (
"212 0 LINE",
"212 686 LINE",
"67 686 LINE",
"67 0 LINE"
);
},
{
closed = 1;
nodes = (
"169 737 LINE",
"277 866 LINE",
"276 869 LINE",
"143 869 LINE",
"64 737 LINE"
);
}
);
};
components = (
{
name = I;
},
{
name = acute;
transform = "{1, 0, 0, 1, 11, 145}";
}
);
layerId = "4E7A989A-9DEE-440F-9785-5637679BA6FC";
width = 278;
}
);
unicode = 00CD;
},
{
color = 10;
glyphname = Ibreve;
lastChange = "2015-02-12 03:02:43 +0000";
layers = (
{
background = {
paths = (
{
closed = 1;
nodes = (
"187 0 LINE",
"187 686 LINE",
"92 686 LINE",
"92 0 LINE"
);
},
{
closed = 1;
nodes = (
"224 859 LINE",
"221 837 OFFCURVE",
"203 806 OFFCURVE",
"139 806 CURVE SMOOTH",
"75 806 OFFCURVE",
"60 837 OFFCURVE",
"55 859 CURVE",
"-6 859 LINE",
"-6 804 OFFCURVE",
"27 742 OFFCURVE",
"139 742 CURVE SMOOTH",
"251 742 OFFCURVE",
"285 804 OFFCURVE",
"285 859 CURVE"
);
}
);
};
components = (
{
name = I;
},
{
name = breve;
transform = "{1, 0, 0, 1, -28, 145}";
}
);
layerId = UUID0;
width = 278;
},
{
background = {
paths = (
{
closed = 1;
nodes = (
"212 0 LINE",
"212 686 LINE",
"67 686 LINE",
"67 0 LINE"
);
},
{
closed = 1;
nodes = (
"211 868 LINE",
"209 848 OFFCURVE",
"186 820 OFFCURVE",
"139 820 CURVE SMOOTH",
"92 820 OFFCURVE",
"71 848 OFFCURVE",
"68 868 CURVE",
"-22 868 LINE",
"-22 804 OFFCURVE",
"23 731 OFFCURVE",
"139 731 CURVE SMOOTH",
"255 731 OFFCURVE",
"301 804 OFFCURVE",
"301 868 CURVE"
);
}
);
};
components = (
{
name = I;
},
{
name = breve;
transform = "{1, 0, 0, 1, -28, 145}";
}
);
layerId = "4E7A989A-9DEE-440F-9785-5637679BA6FC";
width = 278;
}
);
unicode = 012C;
},
{
color = 10;
glyphname = Icircumflex;
lastChange = "2015-02-12 03:02:43 +0000";
layers = (
{
background = {
paths = (
{
closed = 1;
nodes = (
"187 0 LINE",
"187 686 LINE",
"92 686 LINE",
"92 0 LINE"
);
},
{
closed = 1;
nodes = (
"287 737 LINE",
"182 872 LINE",
"98 872 LINE",
"-8 737 LINE",
"82 737 LINE",
"140 816 LINE",
"197 737 LINE"
);
}
);
};
components = (
{
name = I;
},
{
name = circumflex;
transform = "{1, 0, 0, 1, -28, 145}";
}
);
layerId = UUID0;
width = 278;
},
{
background = {
paths = (
{
closed = 1;
nodes = (
"212 0 LINE",
"212 686 LINE",
"67 686 LINE",
"67 0 LINE"
);
},
{
closed = 1;
nodes = (
"306 737 LINE",
"201 872 LINE",
"79 872 LINE",
"-27 737 LINE",
"84 737 LINE",
"140 806 LINE",
"195 737 LINE"
);
}
);
};
components = (
{
name = I;
},
{
name = circumflex;
transform = "{1, 0, 0, 1, -28, 145}";
}
);
layerId = "4E7A989A-9DEE-440F-9785-5637679BA6FC";
width = 278;
}
);
unicode = 00CE;
},
{
color = 10;
glyphname = Idieresis;
lastChange = "2015-02-12 03:02:43 +0000";
layers = (
{
background = {
paths = (
{
closed = 1;
nodes = (
"187 0 LINE",
"187 686 LINE",
"92 686 LINE",
"92 0 LINE"
);
},
{
closed = 1;
nodes = (
"89 752 LINE",
"89 847 LINE",
"2 847 LINE",
"2 752 LINE"
);
},
{
closed = 1;
nodes = (
"276 752 LINE",
"276 847 LINE",
"189 847 LINE",
"189 752 LINE"
);
}
);
};
components = (
{
name = I;
},
{
name = dieresis;
transform = "{1, 0, 0, 1, -28, 145}";
}
);
layerId = UUID0;
width = 278;
},
{
background = {
paths = (
{
closed = 1;
nodes = (
"212 0 LINE",
"212 686 LINE",
"67 686 LINE",
"67 0 LINE"
);
},
{
closed = 1;
nodes = (
"93 741 LINE",
"93 859 LINE",
"-25 859 LINE",
"-25 741 LINE"
);
},
{
closed = 1;
nodes = (
"304 741 LINE",
"304 859 LINE",
"185 859 LINE",
"185 741 LINE"
);
}
);
};
components = (
{
name = I;
},
{
name = dieresis;
transform = "{1, 0, 0, 1, -27, 145}";
}
);
layerId = "4E7A989A-9DEE-440F-9785-5637679BA6FC";
width = 278;
}
);
unicode = 00CF;
},
{
color = 10;
glyphname = Idotaccent;
lastChange = "2015-02-12 03:02:43 +0000";
layers = (
{
background = {
paths = (
{
closed = 1;
nodes = (
"187 0 LINE",
"187 686 LINE",
"92 686 LINE",
"92 0 LINE"
);
},
{
closed = 1;
nodes = (
"183 753 LINE",
"183 848 LINE",
"96 848 LINE",
"96 753 LINE"
);
}
);
};
components = (
{
name = I;
},
{
name = dotaccent;
transform = "{1, 0, 0, 1, -28, 145}";
}
);
layerId = UUID0;
width = 278;
},
{
background = {
paths = (
{
closed = 1;
nodes = (
"212 0 LINE",
"212 686 LINE",
"67 686 LINE",
"67 0 LINE"
);
},
{
closed = 1;
nodes = (
"207 735 LINE",
"207 865 LINE",
"72 865 LINE",
"72 735 LINE"
);
}
);
};
components = (
{
name = I;
},
{
name = dotaccent;
transform = "{1, 0, 0, 1, -29, 145}";
}
);
layerId = "4E7A989A-9DEE-440F-9785-5637679BA6FC";
width = 278;
}
);
unicode = 0130;
},
{
color = 10;
glyphname = Igrave;
lastChange = "2015-02-12 03:02:43 +0000";
layers = (
{
background = {
paths = (
{
closed = 1;
nodes = (
"187 0 LINE",
"187 686 LINE",
"92 686 LINE",
"92 0 LINE"
);
},
{
closed = 1;
nodes = (
"198 737 LINE",
"112 869 LINE",
"16 869 LINE",
"15 866 LINE",
"123 737 LINE"
);
}
);
};
components = (
{
name = I;
},
{
name = grave;
transform = "{1, 0, 0, 1, -82, 145}";
}
);
layerId = UUID0;
width = 278;
},
{
background = {
paths = (
{
closed = 1;
nodes = (
"212 0 LINE",
"212 686 LINE",
"67 686 LINE",
"67 0 LINE"
);
},
{
closed = 1;
nodes = (
"215 737 LINE",
"136 869 LINE",
"3 869 LINE",
"2 866 LINE",
"110 737 LINE"
);
}
);
};
components = (
{
name = I;
},
{
name = grave;
transform = "{1, 0, 0, 1, -97, 145}";
}
);
layerId = "4E7A989A-9DEE-440F-9785-5637679BA6FC";
width = 278;
}
);
unicode = 00CC;
},
{
color = 10;
glyphname = Imacron;
lastChange = "2015-02-12 03:02:09 +0000";
layers = (
{
background = {
paths = (
{
closed = 1;
nodes = (
"291 763 LINE",
"291 835 LINE",
"-14 835 LINE",
"-14 763 LINE"
);
},
{
closed = 1;
nodes = (
"187 0 LINE",
"187 686 LINE",
"92 686 LINE",
"92 0 LINE"
);
}
);
};
components = (
{
name = I;
}
);
layerId = UUID0;
paths = (
{
closed = 1;
nodes = (
"291 763 LINE",
"291 835 LINE",
"-14 835 LINE",
"-14 763 LINE"
);
}
);
width = 278;
},
{
background = {
paths = (
{
closed = 1;
nodes = (
"212 0 LINE",
"212 686 LINE",
"67 686 LINE",
"67 0 LINE"
);
},
{
closed = 1;
nodes = (
"291 755 LINE",
"291 843 LINE",
"-14 843 LINE",
"-14 755 LINE"
);
}
);
};
components = (
{
name = I;
},
{
name = macron;
transform = "{1, 0, 0, 1, -28, 145}";
}
);
layerId = "4E7A989A-9DEE-440F-9785-5637679BA6FC";
width = 278;
}
);
unicode = 012A;
},
{
color = 10;
glyphname = Iogonek;
lastChange = "2015-02-12 01:36:50 +0000";
layers = (
{
background = {
paths = (
{
closed = 1;
nodes = (
"212 -117 LINE",
"188 -117 LINE SMOOTH",
"143 -117 OFFCURVE",
"127 -90 OFFCURVE",
"127 -62 CURVE SMOOTH",
"127 -37 OFFCURVE",
"138 -3 OFFCURVE",
"187 0 CURVE",
"187 686 LINE",
"92 686 LINE",
"92 0 LINE",
"67 -16 OFFCURVE",
"49 -47 OFFCURVE",
"49 -86 CURVE SMOOTH",
"49 -160 OFFCURVE",
"100 -182 OFFCURVE",
"146 -182 CURVE SMOOTH",
"168 -182 OFFCURVE",
"189 -177 OFFCURVE",
"212 -168 CURVE"
);
}
);
};
layerId = UUID0;
paths = (
{
closed = 1;
nodes = (
"212 -117 LINE",
"188 -117 LINE SMOOTH",
"143 -117 OFFCURVE",
"127 -90 OFFCURVE",
"127 -62 CURVE SMOOTH",
"127 -37 OFFCURVE",
"138 -3 OFFCURVE",
"187 0 CURVE",
"187 686 LINE",
"92 686 LINE",
"92 0 LINE",
"67 -16 OFFCURVE",
"49 -47 OFFCURVE",
"49 -86 CURVE SMOOTH",
"49 -160 OFFCURVE",
"100 -182 OFFCURVE",
"146 -182 CURVE SMOOTH",
"168 -182 OFFCURVE",
"189 -177 OFFCURVE",
"212 -168 CURVE"
);
}
);
width = 278;
},
{
background = {
paths = (
{
closed = 1;
nodes = (
"233 -113 LINE",
"209 -113 LINE SMOOTH",
"174 -113 OFFCURVE",
"161 -88 OFFCURVE",
"161 -62 CURVE SMOOTH",
"161 -38 OFFCURVE",
"174 -15 OFFCURVE",
"186 0 CURVE",
"212 0 LINE",
"212 686 LINE",
"67 686 LINE",
"67 0 LINE",
"95 0 LINE",
"74 -23 OFFCURVE",
"56 -51 OFFCURVE",
"56 -94 CURVE SMOOTH",
"56 -161 OFFCURVE",
"111 -182 OFFCURVE",
"162 -182 CURVE SMOOTH",
"186 -182 OFFCURVE",
"208 -177 OFFCURVE",
"233 -168 CURVE"
);
}
);
};
layerId = "4E7A989A-9DEE-440F-9785-5637679BA6FC";
paths = (
{
closed = 1;
nodes = (
"233 -113 LINE",
"209 -113 LINE SMOOTH",
"174 -113 OFFCURVE",
"161 -88 OFFCURVE",
"161 -62 CURVE SMOOTH",
"161 -38 OFFCURVE",
"174 -15 OFFCURVE",
"186 0 CURVE",
"212 0 LINE",
"212 686 LINE",
"67 686 LINE",
"67 0 LINE",
"95 0 LINE",
"74 -23 OFFCURVE",
"56 -51 OFFCURVE",
"56 -94 CURVE SMOOTH",
"56 -161 OFFCURVE",
"111 -182 OFFCURVE",
"162 -182 CURVE SMOOTH",
"186 -182 OFFCURVE",
"208 -177 OFFCURVE",
"233 -168 CURVE"
);
}
);
width = 278;
}
);
unicode = 012E;
},
{
color = 10;
glyphname = Itilde;
lastChange = "2015-02-12 03:02:43 +0000";
layers = (
{
background = {
paths = (
{
closed = 1;
nodes = (
"187 0 LINE",
"187 686 LINE",
"92 686 LINE",
"92 0 LINE"
);
},
{
closed = 1;
nodes = (
"238 852 LINE",
"236 829 OFFCURVE",
"225 821 OFFCURVE",
"210 821 CURVE SMOOTH",
"160 821 OFFCURVE",
"117 852 OFFCURVE",
"61 852 CURVE SMOOTH",
"1 852 OFFCURVE",
"-24 804 OFFCURVE",
"-24 748 CURVE",
"41 748 LINE",
"43 771 OFFCURVE",
"54 779 OFFCURVE",
"69 779 CURVE SMOOTH",
"119 779 OFFCURVE",
"162 748 OFFCURVE",
"218 748 CURVE SMOOTH",
"278 748 OFFCURVE",
"303 796 OFFCURVE",
"303 852 CURVE"
);
}
);
};
components = (
{
name = I;
},
{
name = tilde;
transform = "{1, 0, 0, 1, -28, 145}";
}
);
layerId = UUID0;
width = 278;
},
{
background = {
paths = (
{
closed = 1;
nodes = (
"212 0 LINE",
"212 686 LINE",
"67 686 LINE",
"67 0 LINE"
);
},
{
closed = 1;
nodes = (
"238 858 LINE",
"234 830 OFFCURVE",
"222 821 OFFCURVE",
"203 821 CURVE SMOOTH",
"158 821 OFFCURVE",
"119 858 OFFCURVE",
"70 858 CURVE SMOOTH",
"0 858 OFFCURVE",
"-28 801 OFFCURVE",
"-28 736 CURVE",
"42 736 LINE",
"46 763 OFFCURVE",
"58 773 OFFCURVE",
"77 773 CURVE SMOOTH",
"122 773 OFFCURVE",
"161 736 OFFCURVE",
"209 736 CURVE SMOOTH",
"280 736 OFFCURVE",
"308 793 OFFCURVE",
"308 858 CURVE"
);
}
);
};
components = (
{
name = I;
},
{
name = tilde;
transform = "{1, 0, 0, 1, -28, 145}";
}
);
layerId = "4E7A989A-9DEE-440F-9785-5637679BA6FC";
width = 278;
}
);
unicode = 0128;
},
{
color = 10;
glyphname = J;
lastChange = "2015-02-14 23:42:34 +0000";
layers = (
{
anchors = (
{
name = bottom;
position = "{250, 0}";
},
{
name = top;
position = "{375, 671}";
}
);
background = {
paths = (
{
closed = 1;
nodes = (
"327 194 LINE",
"327 111 OFFCURVE",
"291 69 OFFCURVE",
"225 69 CURVE SMOOTH",
"160 69 OFFCURVE",
"124 106 OFFCURVE",
"124 178 CURVE SMOOTH",
"124 208 LINE",
"29 208 LINE",
"29 183 LINE SMOOTH",
"29 55 OFFCURVE",
"101 -12 OFFCURVE",
"225 -12 CURVE SMOOTH",
"350 -12 OFFCURVE",
"422 57 OFFCURVE",
"422 199 CURVE SMOOTH",
"422 686 LINE",
"327 686 LINE"
);
}
);
};
layerId = UUID0;
paths = (
{
closed = 1;
nodes = (
"327 194 LINE",
"327 111 OFFCURVE",
"291 69 OFFCURVE",
"225 69 CURVE SMOOTH",
"160 69 OFFCURVE",
"124 106 OFFCURVE",
"124 178 CURVE SMOOTH",
"124 208 LINE",
"29 208 LINE",
"29 183 LINE SMOOTH",
"29 55 OFFCURVE",
"101 -12 OFFCURVE",
"225 -12 CURVE SMOOTH",
"350 -12 OFFCURVE",
"422 57 OFFCURVE",
"422 199 CURVE SMOOTH",
"422 686 LINE",
"327 686 LINE"
);
}
);
width = 500;
},
{
anchors = (
{
name = bottom;
position = "{278, 0}";
},
{
name = top;
position = "{422, 671}";
}
);
background = {
paths = (
{
closed = 1;
nodes = (
"349 195 LINE",
"349 141 OFFCURVE",
"320 110 OFFCURVE",
"261 110 CURVE SMOOTH",
"200 110 OFFCURVE",
"169 141 OFFCURVE",
"169 195 CURVE SMOOTH",
"169 236 LINE",
"25 236 LINE",
"25 193 LINE SMOOTH",
"25 58 OFFCURVE",
"110 -12 OFFCURVE",
"261 -12 CURVE SMOOTH",
"412 -12 OFFCURVE",
"495 58 OFFCURVE",
"495 193 CURVE SMOOTH",
"495 686 LINE",
"349 686 LINE"
);
}
);
};
layerId = "4E7A989A-9DEE-440F-9785-5637679BA6FC";
paths = (
{
closed = 1;
nodes = (
"349 195 LINE",
"349 141 OFFCURVE",
"320 110 OFFCURVE",
"261 110 CURVE SMOOTH",
"200 110 OFFCURVE",
"169 141 OFFCURVE",
"169 195 CURVE SMOOTH",
"169 236 LINE",
"25 236 LINE",
"25 193 LINE SMOOTH",
"25 58 OFFCURVE",
"110 -12 OFFCURVE",
"261 -12 CURVE SMOOTH",
"412 -12 OFFCURVE",
"495 58 OFFCURVE",
"495 193 CURVE SMOOTH",
"495 686 LINE",
"349 686 LINE"
);
}
);
width = 556;
}
);
unicode = 004A;
},
{
color = 10;
glyphname = Jcircumflex;
lastChange = "2015-02-14 23:42:34 +0000";
layers = (
{
background = {
paths = (
{
closed = 1;
nodes = (
"327 194 LINE",
"327 111 OFFCURVE",
"291 69 OFFCURVE",
"225 69 CURVE SMOOTH",
"160 69 OFFCURVE",
"124 106 OFFCURVE",
"124 178 CURVE SMOOTH",
"124 208 LINE",
"29 208 LINE",
"29 183 LINE SMOOTH",
"29 55 OFFCURVE",
"101 -12 OFFCURVE",
"225 -12 CURVE SMOOTH",
"350 -12 OFFCURVE",
"422 57 OFFCURVE",
"422 199 CURVE SMOOTH",
"422 686 LINE",
"327 686 LINE"
);
},
{
closed = 1;
nodes = (
"519 748 LINE",
"414 883 LINE",
"330 883 LINE",
"224 748 LINE",
"314 748 LINE",
"372 827 LINE",
"429 748 LINE"
);
}
);
};
components = (
{
name = J;
},
{
name = circumflex;
transform = "{1, 0, 0, 1, 208, 145}";
}
);
layerId = UUID0;
width = 500;
},
{
background = {
paths = (
{
closed = 1;
nodes = (
"349 195 LINE",
"349 141 OFFCURVE",
"320 110 OFFCURVE",
"261 110 CURVE SMOOTH",
"200 110 OFFCURVE",
"169 141 OFFCURVE",
"169 195 CURVE SMOOTH",
"169 236 LINE",
"25 236 LINE",
"25 193 LINE SMOOTH",
"25 58 OFFCURVE",
"110 -12 OFFCURVE",
"261 -12 CURVE SMOOTH",
"412 -12 OFFCURVE",
"495 58 OFFCURVE",
"495 193 CURVE SMOOTH",
"495 686 LINE",
"349 686 LINE"
);
},
{
closed = 1;
nodes = (
"585 737 LINE",
"480 872 LINE",
"358 872 LINE",
"252 737 LINE",
"363 737 LINE",
"419 806 LINE",
"474 737 LINE"
);
}
);
};
components = (
{
name = J;
},
{
name = circumflex;
transform = "{1, 0, 0, 1, 255, 145}";
}
);
layerId = "4E7A989A-9DEE-440F-9785-5637679BA6FC";
width = 556;
}
);
unicode = 0134;
},
{
color = 10;
glyphname = K;
lastChange = "2015-02-12 03:02:41 +0000";
layers = (
{
anchors = (
{
name = bottom;
position = "{334, 0}";
},
{
name = top;
position = "{334, 671}";
}
);
background = {
paths = (
{
closed = 1;
nodes = (
"664 0 LINE",
"394 412 LINE",
"655 686 LINE",
"537 686 LINE",
"174 308 LINE",
"174 686 LINE",
"79 686 LINE",
"79 0 LINE",
"174 0 LINE",
"174 200 LINE",
"328 344 LINE",
"551 0 LINE"
);
}
);
};
layerId = UUID0;
paths = (
{
closed = 1;
nodes = (
"664 0 LINE",
"394 412 LINE",
"655 686 LINE",
"537 686 LINE",
"174 308 LINE",
"174 686 LINE",
"79 686 LINE",
"79 0 LINE",
"174 0 LINE",
"174 200 LINE",
"328 344 LINE",
"551 0 LINE"
);
}
);
width = 667;
},
{
anchors = (
{
name = bottom;
position = "{361, 0}";
},
{
name = top;
position = "{361, 671}";
}
);
background = {
paths = (
{
closed = 1;
nodes = (
"709 0 LINE",
"437 407 LINE",
"705 686 LINE",
"529 686 LINE",
"212 355 LINE",
"212 686 LINE",
"67 686 LINE",
"67 0 LINE",
"212 0 LINE",
"212 199 LINE",
"340 305 LINE",
"537 0 LINE"
);
}
);
};
layerId = "4E7A989A-9DEE-440F-9785-5637679BA6FC";
paths = (
{
closed = 1;
nodes = (
"709 0 LINE",
"437 407 LINE",
"705 686 LINE",
"529 686 LINE",
"212 355 LINE",
"212 686 LINE",
"67 686 LINE",
"67 0 LINE",
"212 0 LINE",
"212 199 LINE",
"340 305 LINE",
"537 0 LINE"
);
}
);
width = 722;
}
);
unicode = 004B;
},
{
color = 10;
glyphname = Kcommaaccent;
lastChange = "2015-02-15 02:56:57 +0000";
layers = (
{
background = {
paths = (
{
closed = 1;
nodes = (
"361 -230 LINE",
"404 -142 LINE",
"404 -58 LINE",
"316 -58 LINE",
"316 -149 LINE",
"353 -149 LINE",
"316 -230 LINE"
);
},
{
closed = 1;
nodes = (
"664 0 LINE",
"394 412 LINE",
"655 686 LINE",
"537 686 LINE",
"174 308 LINE",
"174 686 LINE",
"79 686 LINE",
"79 0 LINE",
"174 0 LINE",
"174 200 LINE",
"328 344 LINE",
"551 0 LINE"
);
}
);
};
components = (
{
name = K;
},
{
name = commaaccent;
transform = "{1, 0, 0, 1, 223, 0}";
}
);
layerId = UUID0;
width = 667;
},
{
background = {
paths = (
{
closed = 1;
nodes = (
"377 -250 LINE",
"443 -141 LINE",
"443 -55 LINE",
"305 -55 LINE",
"305 -153 LINE",
"360 -153 LINE",
"305 -250 LINE"
);
},
{
closed = 1;
nodes = (
"709 0 LINE",
"437 407 LINE",
"705 686 LINE",
"529 686 LINE",
"212 355 LINE",
"212 686 LINE",
"67 686 LINE",
"67 0 LINE",
"212 0 LINE",
"212 199 LINE",
"340 305 LINE",
"537 0 LINE"
);
}
);
};
components = (
{
name = K;
},
{
name = commaaccent;
transform = "{1, 0, 0, 1, 195, 0}";
}
);
layerId = "4E7A989A-9DEE-440F-9785-5637679BA6FC";
width = 722;
}
);
unicode = 0136;
},
{
color = 10;
glyphname = L;
lastChange = "2015-02-16 21:42:34 +0000";
layers = (
{
anchors = (
{
name = bottom;
position = "{303, 0}";
},
{
name = center;
position = "{278, 343}";
},
{
name = top;
position = "{127, 671}";
},
{
name = topright;
position = "{416, 686}";
}
);
background = {
paths = (
{
closed = 1;
nodes = (
"526 0 LINE",
"526 83 LINE",
"174 83 LINE",
"174 686 LINE",
"79 686 LINE",
"79 0 LINE"
);
}
);
};
layerId = UUID0;
paths = (
{
closed = 1;
nodes = (
"526 0 LINE",
"526 83 LINE",
"174 83 LINE",
"174 686 LINE",
"79 686 LINE",
"79 0 LINE"
);
}
);
width = 556;
},
{
anchors = (
{
name = bottom;
position = "{325, 0}";
},
{
name = center;
position = "{306, 343}";
},
{
name = top;
position = "{140, 671}";
},
{
name = topright;
position = "{447, 686}";
}
);
background = {
paths = (
{
closed = 1;
nodes = (
"582 0 LINE",
"582 126 LINE",
"212 126 LINE",
"212 686 LINE",
"67 686 LINE",
"67 0 LINE"
);
}
);
};
layerId = "4E7A989A-9DEE-440F-9785-5637679BA6FC";
paths = (
{
closed = 1;
nodes = (
"582 0 LINE",
"582 126 LINE",
"212 126 LINE",
"212 686 LINE",
"67 686 LINE",
"67 0 LINE"
);
}
);
width = 611;
}
);
rightKerningGroup = L;
unicode = 004C;
},
{
color = 10;
glyphname = Lacute;
lastChange = "2015-02-16 21:42:34 +0000";
layers = (
{
background = {
paths = (
{
closed = 1;
nodes = (
"526 0 LINE",
"526 83 LINE",
"174 83 LINE",
"174 686 LINE",
"79 686 LINE",
"79 0 LINE"
);
},
{
closed = 1;
nodes = (
"154 737 LINE",
"262 866 LINE",
"261 869 LINE",
"165 869 LINE",
"79 737 LINE"
);
}
);
};
components = (
{
name = L;
},
{
anchor = top;
name = acute;
transform = "{1, 0, 0, 1, 14, 145}";
}
);
layerId = UUID0;
width = 556;
},
{
background = {
paths = (
{
closed = 1;
nodes = (
"582 0 LINE",
"582 126 LINE",
"212 126 LINE",
"212 686 LINE",
"67 686 LINE",
"67 0 LINE"
);
},
{
closed = 1;
nodes = (
"171 737 LINE",
"279 866 LINE",
"278 869 LINE",
"145 869 LINE",
"66 737 LINE"
);
}
);
};
components = (
{
name = L;
},
{
anchor = top;
name = acute;
transform = "{1, 0, 0, 1, 12, 145}";
}
);
layerId = "4E7A989A-9DEE-440F-9785-5637679BA6FC";
width = 611;
}
);
rightKerningGroup = L;
unicode = 0139;
},
{
color = 10;
glyphname = Lcaron;
lastChange = "2015-02-12 01:36:50 +0000";
layers = (
{
background = {
paths = (
{
closed = 1;
nodes = (
"364 490 LINE",
"405 602 LINE",
"405 686 LINE",
"320 686 LINE",
"320 595 LINE",
"354 595 LINE",
"320 490 LINE"
);
},
{
closed = 1;
nodes = (
"526 0 LINE",
"526 83 LINE",
"174 83 LINE",
"174 686 LINE",
"79 686 LINE",
"79 0 LINE"
);
}
);
};
components = (
{
name = L;
}
);
layerId = UUID0;
paths = (
{
closed = 1;
nodes = (
"364 490 LINE",
"405 602 LINE",
"405 686 LINE",
"320 686 LINE",
"320 595 LINE",
"354 595 LINE",
"320 490 LINE"
);
}
);
width = 556;
},
{
background = {
paths = (
{
closed = 1;
nodes = (
"426 442 LINE",
"492 571 LINE",
"492 686 LINE",
"354 686 LINE",
"354 559 LINE",
"409 559 LINE",
"354 442 LINE"
);
},
{
closed = 1;
nodes = (
"582 0 LINE",
"582 126 LINE",
"212 126 LINE",
"212 686 LINE",
"67 686 LINE",
"67 0 LINE"
);
}
);
};
components = (
{
name = L;
}
);
layerId = "4E7A989A-9DEE-440F-9785-5637679BA6FC";
paths = (
{
closed = 1;
nodes = (
"426 442 LINE",
"492 571 LINE",
"492 686 LINE",
"354 686 LINE",
"354 559 LINE",
"409 559 LINE",
"354 442 LINE"
);
}
);
width = 611;
}
);
unicode = 013D;
},
{
color = 10;
glyphname = Lcommaaccent;
lastChange = "2015-02-16 21:42:34 +0000";
layers = (
{
background = {
paths = (
{
closed = 1;
nodes = (
"327 -230 LINE",
"370 -142 LINE",
"370 -58 LINE",
"282 -58 LINE",
"282 -149 LINE",
"319 -149 LINE",
"282 -230 LINE"
);
},
{
closed = 1;
nodes = (
"526 0 LINE",
"526 83 LINE",
"174 83 LINE",
"174 686 LINE",
"79 686 LINE",
"79 0 LINE"
);
}
);
};
components = (
{
name = L;
},
{
name = commaaccent;
transform = "{1, 0, 0, 1, 192, 0}";
}
);
layerId = UUID0;
width = 556;
},
{
background = {
paths = (
{
closed = 1;
nodes = (
"350 -250 LINE",
"416 -141 LINE",
"416 -55 LINE",
"278 -55 LINE",
"278 -153 LINE",
"333 -153 LINE",
"278 -250 LINE"
);
},
{
closed = 1;
nodes = (
"582 0 LINE",
"582 126 LINE",
"212 126 LINE",
"212 686 LINE",
"67 686 LINE",
"67 0 LINE"
);
}
);
};
components = (
{
name = L;
},
{
name = commaaccent;
transform = "{1, 0, 0, 1, 159, 0}";
}
);
layerId = "4E7A989A-9DEE-440F-9785-5637679BA6FC";
width = 611;
}
);
rightKerningGroup = L;
unicode = 013B;
},
{
color = 10;
glyphname = Ldot;
lastChange = "2015-02-12 01:36:50 +0000";
layers = (
{
background = {
paths = (
{
closed = 1;
nodes = (
"526 0 LINE",
"526 83 LINE",
"174 83 LINE",
"174 686 LINE",
"79 686 LINE",
"79 0 LINE"
);
},
{
closed = 1;
nodes = (
"451 418 LINE",
"451 526 LINE",
"351 526 LINE",
"351 418 LINE"
);
}
);
};
components = (
{
name = L;
},
{
name = periodcentered;
transform = "{1, 0, 0, 1, 235, 115}";
}
);
layerId = UUID0;
width = 556;
},
{
background = {
paths = (
{
closed = 1;
nodes = (
"582 0 LINE",
"582 126 LINE",
"212 126 LINE",
"212 686 LINE",
"67 686 LINE",
"67 0 LINE"
);
},
{
closed = 1;
nodes = (
"481 389 LINE",
"481 526 LINE",
"343 526 LINE",
"343 389 LINE"
);
}
);
};
components = (
{
name = L;
},
{
name = periodcentered;
transform = "{1, 0, 0, 1, 247, 100}";
}
);
layerId = "4E7A989A-9DEE-440F-9785-5637679BA6FC";
width = 611;
}
);
unicode = 013F;
},
{
color = 10;
glyphname = Lslash;
lastChange = "2015-02-12 01:36:49 +0000";
layers = (
{
background = {
paths = (
{
closed = 1;
nodes = (
"526 0 LINE",
"526 83 LINE",
"174 83 LINE",
"174 327 LINE",
"341 438 LINE",
"341 520 LINE",
"174 409 LINE",
"174 686 LINE",
"79 686 LINE",
"79 346 LINE",
"5 297 LINE",
"5 216 LINE",
"79 265 LINE",
"79 0 LINE"
);
}
);
};
layerId = UUID0;
paths = (
{
closed = 1;
nodes = (
"526 0 LINE",
"526 83 LINE",
"174 83 LINE",
"174 327 LINE",
"341 438 LINE",
"341 520 LINE",
"174 409 LINE",
"174 686 LINE",
"79 686 LINE",
"79 346 LINE",
"5 297 LINE",
"5 216 LINE",
"79 265 LINE",
"79 0 LINE"
);
}
);
width = 556;
},
{
background = {
paths = (
{
closed = 1;
nodes = (
"582 0 LINE",
"582 126 LINE",
"212 126 LINE",
"212 342 LINE",
"353 435 LINE",
"353 537 LINE",
"212 444 LINE",
"212 686 LINE",
"67 686 LINE",
"67 348 LINE",
"0 304 LINE",
"0 202 LINE",
"67 246 LINE",
"67 0 LINE"
);
}
);
};
layerId = "4E7A989A-9DEE-440F-9785-5637679BA6FC";
paths = (
{
closed = 1;
nodes = (
"582 0 LINE",
"582 126 LINE",
"212 126 LINE",
"212 342 LINE",
"353 435 LINE",
"353 537 LINE",
"212 444 LINE",
"212 686 LINE",
"67 686 LINE",
"67 348 LINE",
"0 304 LINE",
"0 202 LINE",
"67 246 LINE",
"67 0 LINE"
);
}
);
width = 611;
}
);
unicode = 0141;
},
{
color = 10;
glyphname = M;
lastChange = "2015-02-12 03:02:41 +0000";
layers = (
{
anchors = (
{
name = bottom;
position = "{417, 0}";
},
{
name = top;
position = "{417, 671}";
}
);
background = {
paths = (
{
closed = 1;
nodes = (
"754 0 LINE",
"754 686 LINE",
"614 686 LINE",
"449 218 LINE SMOOTH",
"436 183 OFFCURVE",
"419 115 OFFCURVE",
"419 115 CURVE",
"415 115 LINE",
"415 115 OFFCURVE",
"399 176 OFFCURVE",
"384 218 CURVE SMOOTH",
"220 686 LINE",
"79 686 LINE",
"79 0 LINE",
"168 0 LINE",
"168 453 LINE SMOOTH",
"168 481 OFFCURVE",
"166 581 OFFCURVE",
"166 581 CURVE",
"172 581 LINE",
"172 581 OFFCURVE",
"181 537 OFFCURVE",
"189 515 CURVE SMOOTH",
"372 0 LINE",
"451 0 LINE",
"637 515 LINE SMOOTH",
"646 541 OFFCURVE",
"654 581 OFFCURVE",
"654 581 CURVE",
"661 581 LINE",
"661 581 OFFCURVE",
"659 470 OFFCURVE",
"659 453 CURVE SMOOTH",
"659 0 LINE"
);
}
);
};
layerId = UUID0;
paths = (
{
closed = 1;
nodes = (
"754 0 LINE",
"754 686 LINE",
"614 686 LINE",
"449 218 LINE SMOOTH",
"436 183 OFFCURVE",
"419 115 OFFCURVE",
"419 115 CURVE",
"415 115 LINE",
"415 115 OFFCURVE",
"399 176 OFFCURVE",
"384 218 CURVE SMOOTH",
"220 686 LINE",
"79 686 LINE",
"79 0 LINE",
"168 0 LINE",
"168 453 LINE SMOOTH",
"168 481 OFFCURVE",
"166 581 OFFCURVE",
"166 581 CURVE",
"172 581 LINE",
"172 581 OFFCURVE",
"181 537 OFFCURVE",
"189 515 CURVE SMOOTH",
"372 0 LINE",
"451 0 LINE",
"637 515 LINE SMOOTH",
"646 541 OFFCURVE",
"654 581 OFFCURVE",
"654 581 CURVE",
"661 581 LINE",
"661 581 OFFCURVE",
"659 470 OFFCURVE",
"659 453 CURVE SMOOTH",
"659 0 LINE"
);
}
);
width = 833;
},
{
anchors = (
{
name = bottom;
position = "{417, 0}";
},
{
name = top;
position = "{417, 671}";
}
);
background = {
paths = (
{
closed = 1;
nodes = (
"766 0 LINE",
"766 686 LINE",
"550 686 LINE",
"454 308 LINE SMOOTH",
"444 268 OFFCURVE",
"426 153 OFFCURVE",
"426 153 CURVE",
"421 153 LINE",
"421 153 OFFCURVE",
"401 263 OFFCURVE",
"389 308 CURVE SMOOTH",
"293 686 LINE",
"67 686 LINE",
"67 0 LINE",
"207 0 LINE",
"207 437 LINE SMOOTH",
"207 464 OFFCURVE",
"201 547 OFFCURVE",
"201 547 CURVE",
"206 547 LINE",
"345 0 LINE",
"483 0 LINE",
"622 547 LINE",
"627 547 LINE",
"627 547 OFFCURVE",
"621 468 OFFCURVE",
"621 437 CURVE SMOOTH",
"621 0 LINE"
);
}
);
};
layerId = "4E7A989A-9DEE-440F-9785-5637679BA6FC";
paths = (
{
closed = 1;
nodes = (
"766 0 LINE",
"766 686 LINE",
"550 686 LINE",
"454 308 LINE SMOOTH",
"444 268 OFFCURVE",
"426 153 OFFCURVE",
"426 153 CURVE",
"421 153 LINE",
"421 153 OFFCURVE",
"401 263 OFFCURVE",
"389 308 CURVE SMOOTH",
"293 686 LINE",
"67 686 LINE",
"67 0 LINE",
"207 0 LINE",
"207 437 LINE SMOOTH",
"207 464 OFFCURVE",
"201 547 OFFCURVE",
"201 547 CURVE",
"206 547 LINE",
"345 0 LINE",
"483 0 LINE",
"622 547 LINE",
"627 547 LINE",
"627 547 OFFCURVE",
"621 468 OFFCURVE",
"621 437 CURVE SMOOTH",
"621 0 LINE"
);
}
);
width = 833;
}
);
unicode = 004D;
},
{
color = 10;
glyphname = N;
lastChange = "2015-02-12 03:02:41 +0000";
layers = (
{
anchors = (
{
name = bottom;
position = "{361, 0}";
},
{
name = top;
position = "{361, 671}";
}
);
background = {
paths = (
{
closed = 1;
nodes = (
"643 0 LINE",
"643 686 LINE",
"554 686 LINE",
"554 177 LINE",
"550 176 LINE",
"164 686 LINE",
"79 686 LINE",
"79 0 LINE",
"168 0 LINE",
"168 518 LINE",
"172 519 LINE",
"562 0 LINE"
);
}
);
};
layerId = UUID0;
paths = (
{
closed = 1;
nodes = (
"643 0 LINE",
"643 686 LINE",
"554 686 LINE",
"554 177 LINE",
"550 176 LINE",
"164 686 LINE",
"79 686 LINE",
"79 0 LINE",
"168 0 LINE",
"168 518 LINE",
"172 519 LINE",
"562 0 LINE"
);
}
);
width = 722;
},
{
anchors = (
{
name = bottom;
position = "{361, 0}";
},
{
name = top;
position = "{361, 671}";
}
);
background = {
paths = (
{
closed = 1;
nodes = (
"655 0 LINE",
"655 686 LINE",
"514 686 LINE",
"514 307 LINE SMOOTH",
"514 296 OFFCURVE",
"517 249 OFFCURVE",
"517 249 CURVE",
"512 246 LINE",
"512 246 OFFCURVE",
"485 295 OFFCURVE",
"472 313 CURVE SMOOTH",
"208 686 LINE",
"67 686 LINE",
"67 0 LINE",
"208 0 LINE",
"208 379 LINE SMOOTH",
"208 397 OFFCURVE",
"205 439 OFFCURVE",
"205 439 CURVE",
"210 442 LINE",
"210 442 OFFCURVE",
"229 404 OFFCURVE",
"249 376 CURVE SMOOTH",
"514 0 LINE"
);
}
);
};
layerId = "4E7A989A-9DEE-440F-9785-5637679BA6FC";
paths = (
{
closed = 1;
nodes = (
"655 0 LINE",
"655 686 LINE",
"514 686 LINE",
"514 307 LINE SMOOTH",
"514 296 OFFCURVE",
"517 249 OFFCURVE",
"517 249 CURVE",
"512 246 LINE",
"512 246 OFFCURVE",
"485 295 OFFCURVE",
"472 313 CURVE SMOOTH",
"208 686 LINE",
"67 686 LINE",
"67 0 LINE",
"208 0 LINE",
"208 379 LINE SMOOTH",
"208 397 OFFCURVE",
"205 439 OFFCURVE",
"205 439 CURVE",
"210 442 LINE",
"210 442 OFFCURVE",
"229 404 OFFCURVE",
"249 376 CURVE SMOOTH",
"514 0 LINE"
);
}
);
width = 722;
}
);
unicode = 004E;
},
{
color = 10;
glyphname = Nacute;
lastChange = "2015-02-12 03:02:43 +0000";
layers = (
{
background = {
paths = (
{
closed = 1;
nodes = (
"643 0 LINE",
"643 686 LINE",
"554 686 LINE",
"554 177 LINE",
"550 176 LINE",
"164 686 LINE",
"79 686 LINE",
"79 0 LINE",
"168 0 LINE",
"168 518 LINE",
"172 519 LINE",
"562 0 LINE"
);
},
{
closed = 1;
nodes = (
"405 737 LINE",
"513 866 LINE",
"512 869 LINE",
"416 869 LINE",
"330 737 LINE"
);
}
);
};
components = (
{
name = N;
},
{
name = acute;
transform = "{1, 0, 0, 1, 248, 145}";
}
);
layerId = UUID0;
width = 722;
},
{
background = {
paths = (
{
closed = 1;
nodes = (
"655 0 LINE",
"655 686 LINE",
"514 686 LINE",
"514 307 LINE SMOOTH",
"514 296 OFFCURVE",
"517 249 OFFCURVE",
"517 249 CURVE",
"512 246 LINE",
"512 246 OFFCURVE",
"485 295 OFFCURVE",
"472 313 CURVE SMOOTH",
"208 686 LINE",
"67 686 LINE",
"67 0 LINE",
"208 0 LINE",
"208 379 LINE SMOOTH",
"208 397 OFFCURVE",
"205 439 OFFCURVE",
"205 439 CURVE",
"210 442 LINE",
"210 442 OFFCURVE",
"229 404 OFFCURVE",
"249 376 CURVE SMOOTH",
"514 0 LINE"
);
},
{
closed = 1;
nodes = (
"417 737 LINE",
"525 866 LINE",
"524 869 LINE",
"391 869 LINE",
"312 737 LINE"
);
}
);
};
components = (
{
name = N;
},
{
name = acute;
transform = "{1, 0, 0, 1, 233, 145}";
}
);
layerId = "4E7A989A-9DEE-440F-9785-5637679BA6FC";
width = 722;
}
);
unicode = 0143;
},
{
color = 10;
glyphname = Ncaron;
lastChange = "2015-02-12 03:02:43 +0000";
layers = (
{
background = {
paths = (
{
closed = 1;
nodes = (
"643 0 LINE",
"643 686 LINE",
"554 686 LINE",
"554 177 LINE",
"550 176 LINE",
"164 686 LINE",
"79 686 LINE",
"79 0 LINE",
"168 0 LINE",
"168 518 LINE",
"172 519 LINE",
"562 0 LINE"
);
},
{
closed = 1;
nodes = (
"411 737 LINE",
"516 872 LINE",
"426 872 LINE",
"369 793 LINE",
"311 872 LINE",
"221 872 LINE",
"327 737 LINE"
);
}
);
};
components = (
{
name = N;
},
{
name = caron;
transform = "{1, 0, 0, 1, 194, 145}";
}
);
layerId = UUID0;
width = 722;
},
{
background = {
paths = (
{
closed = 1;
nodes = (
"655 0 LINE",
"655 686 LINE",
"514 686 LINE",
"514 307 LINE SMOOTH",
"514 296 OFFCURVE",
"517 249 OFFCURVE",
"517 249 CURVE",
"512 246 LINE",
"512 246 OFFCURVE",
"485 295 OFFCURVE",
"472 313 CURVE SMOOTH",
"208 686 LINE",
"67 686 LINE",
"67 0 LINE",
"208 0 LINE",
"208 379 LINE SMOOTH",
"208 397 OFFCURVE",
"205 439 OFFCURVE",
"205 439 CURVE",
"210 442 LINE",
"210 442 OFFCURVE",
"229 404 OFFCURVE",
"249 376 CURVE SMOOTH",
"514 0 LINE"
);
},
{
closed = 1;
nodes = (
"433 737 LINE",
"538 872 LINE",
"427 872 LINE",
"372 803 LINE",
"316 872 LINE",
"205 872 LINE",
"311 737 LINE"
);
}
);
};
components = (
{
name = N;
},
{
name = caron;
transform = "{1, 0, 0, 1, 194, 145}";
}
);
layerId = "4E7A989A-9DEE-440F-9785-5637679BA6FC";
width = 722;
}
);
unicode = 0147;
},
{
color = 10;
glyphname = Ncommaaccent;
lastChange = "2015-02-15 02:57:14 +0000";
layers = (
{
background = {
paths = (
{
closed = 1;
nodes = (
"373 -230 LINE",
"416 -142 LINE",
"416 -58 LINE",
"328 -58 LINE",
"328 -149 LINE",
"365 -149 LINE",
"328 -230 LINE"
);
},
{
closed = 1;
nodes = (
"643 0 LINE",
"643 686 LINE",
"554 686 LINE",
"554 177 LINE",
"550 176 LINE",
"164 686 LINE",
"79 686 LINE",
"79 0 LINE",
"168 0 LINE",
"168 518 LINE",
"172 519 LINE",
"562 0 LINE"
);
}
);
};
components = (
{
name = N;
},
{
name = commaaccent;
transform = "{1, 0, 0, 1, 250, 0}";
}
);
layerId = UUID0;
width = 722;
},
{
background = {
paths = (
{
closed = 1;
nodes = (
"387 -250 LINE",
"453 -141 LINE",
"453 -55 LINE",
"315 -55 LINE",
"315 -153 LINE",
"370 -153 LINE",
"315 -250 LINE"
);
},
{
closed = 1;
nodes = (
"655 0 LINE",
"655 686 LINE",
"514 686 LINE",
"514 307 LINE SMOOTH",
"514 296 OFFCURVE",
"517 249 OFFCURVE",
"517 249 CURVE",
"512 246 LINE",
"512 246 OFFCURVE",
"485 295 OFFCURVE",
"472 313 CURVE SMOOTH",
"208 686 LINE",
"67 686 LINE",
"67 0 LINE",
"208 0 LINE",
"208 379 LINE SMOOTH",
"208 397 OFFCURVE",
"205 439 OFFCURVE",
"205 439 CURVE",
"210 442 LINE",
"210 442 OFFCURVE",
"229 404 OFFCURVE",
"249 376 CURVE SMOOTH",
"514 0 LINE"
);
}
);
};
components = (
{
name = N;
},
{
name = commaaccent;
transform = "{1, 0, 0, 1, 195, 0}";
}
);
layerId = "4E7A989A-9DEE-440F-9785-5637679BA6FC";
width = 722;
}
);
unicode = 0145;
},
{
color = 10;
glyphname = Eng;
lastChange = "2015-02-12 01:36:49 +0000";
layers = (
{
background = {
paths = (
{
closed = 1;
nodes = (
"464 -170 LINE",
"481 -176 OFFCURVE",
"509 -182 OFFCURVE",
"533 -182 CURVE SMOOTH",
"618 -182 OFFCURVE",
"643 -121 OFFCURVE",
"643 -61 CURVE SMOOTH",
"643 686 LINE",
"554 686 LINE",
"554 167 LINE",
"550 166 LINE",
"164 686 LINE",
"79 686 LINE",
"79 0 LINE",
"168 0 LINE",
"168 518 LINE",
"172 519 LINE",
"554 0 LINE",
"554 -65 LINE",
"554 -96 OFFCURVE",
"538 -113 OFFCURVE",
"507 -113 CURVE SMOOTH",
"464 -113 LINE"
);
}
);
};
layerId = UUID0;
paths = (
{
closed = 1;
nodes = (
"464 -170 LINE",
"481 -176 OFFCURVE",
"509 -182 OFFCURVE",
"533 -182 CURVE SMOOTH",
"618 -182 OFFCURVE",
"643 -121 OFFCURVE",
"643 -61 CURVE SMOOTH",
"643 686 LINE",
"554 686 LINE",
"554 167 LINE",
"550 166 LINE",
"164 686 LINE",
"79 686 LINE",
"79 0 LINE",
"168 0 LINE",
"168 518 LINE",
"172 519 LINE",
"554 0 LINE",
"554 -65 LINE",
"554 -96 OFFCURVE",
"538 -113 OFFCURVE",
"507 -113 CURVE SMOOTH",
"464 -113 LINE"
);
}
);
width = 722;
},
{
background = {
paths = (
{
closed = 1;
nodes = (
"419 -166 LINE",
"442 -174 OFFCURVE",
"485 -182 OFFCURVE",
"517 -182 CURVE SMOOTH",
"624 -182 OFFCURVE",
"655 -111 OFFCURVE",
"655 -41 CURVE SMOOTH",
"655 686 LINE",
"514 686 LINE",
"514 310 LINE SMOOTH",
"514 299 OFFCURVE",
"517 252 OFFCURVE",
"517 252 CURVE",
"512 249 LINE",
"512 249 OFFCURVE",
"485 298 OFFCURVE",
"472 316 CURVE SMOOTH",
"208 686 LINE",
"67 686 LINE",
"67 0 LINE",
"208 0 LINE",
"208 376 LINE SMOOTH",
"208 394 OFFCURVE",
"205 436 OFFCURVE",
"205 436 CURVE",
"210 439 LINE",
"210 439 OFFCURVE",
"229 401 OFFCURVE",
"249 373 CURVE SMOOTH",
"514 0 LINE",
"514 -27 LINE",
"514 -55 OFFCURVE",
"499 -70 OFFCURVE",
"471 -70 CURVE SMOOTH",
"419 -70 LINE"
);
}
);
};
layerId = "4E7A989A-9DEE-440F-9785-5637679BA6FC";
paths = (
{
closed = 1;
nodes = (
"419 -166 LINE",
"442 -174 OFFCURVE",
"485 -182 OFFCURVE",
"517 -182 CURVE SMOOTH",
"624 -182 OFFCURVE",
"655 -111 OFFCURVE",
"655 -41 CURVE SMOOTH",
"655 686 LINE",
"514 686 LINE",
"514 310 LINE SMOOTH",
"514 299 OFFCURVE",
"517 252 OFFCURVE",
"517 252 CURVE",
"512 249 LINE",
"512 249 OFFCURVE",
"485 298 OFFCURVE",
"472 316 CURVE SMOOTH",
"208 686 LINE",
"67 686 LINE",
"67 0 LINE",
"208 0 LINE",
"208 376 LINE SMOOTH",
"208 394 OFFCURVE",
"205 436 OFFCURVE",
"205 436 CURVE",
"210 439 LINE",
"210 439 OFFCURVE",
"229 401 OFFCURVE",
"249 373 CURVE SMOOTH",
"514 0 LINE",
"514 -27 LINE",
"514 -55 OFFCURVE",
"499 -70 OFFCURVE",
"471 -70 CURVE SMOOTH",
"419 -70 LINE"
);
}
);
width = 722;
}
);
unicode = 014A;
},
{
glyphname = Nhookleft;
lastChange = "2015-02-15 20:13:28 +0000";
layers = (
{
anchors = (
{
name = bottom;
position = "{361, 0}";
},
{
name = top;
position = "{361, 671}";
}
);
layerId = UUID0;
paths = (
{
closed = 1;
nodes = (
"554 177 LINE",
"550 176 LINE",
"164 686 LINE",
"79 686 LINE",
"79 -65 LINE SMOOTH",
"79 -96 OFFCURVE",
"63 -113 OFFCURVE",
"32 -113 CURVE SMOOTH",
"-11 -113 LINE",
"-11 -170 LINE",
"6 -176 OFFCURVE",
"34 -182 OFFCURVE",
"58 -182 CURVE SMOOTH",
"143 -182 OFFCURVE",
"168 -121 OFFCURVE",
"168 -61 CURVE SMOOTH",
"168 518 LINE",
"172 519 LINE",
"562 0 LINE",
"643 0 LINE",
"643 686 LINE",
"554 686 LINE"
);
}
);
width = 722;
},
{
anchors = (
{
name = bottom;
position = "{361, 0}";
},
{
name = top;
position = "{361, 671}";
}
);
layerId = "4E7A989A-9DEE-440F-9785-5637679BA6FC";
paths = (
{
closed = 1;
nodes = (
"514 307 LINE SMOOTH",
"514 296 OFFCURVE",
"517 249 OFFCURVE",
"517 249 CURVE",
"512 246 LINE",
"512 246 OFFCURVE",
"485 295 OFFCURVE",
"472 313 CURVE SMOOTH",
"208 686 LINE",
"67 686 LINE",
"67 -27 LINE SMOOTH",
"67 -55 OFFCURVE",
"52 -70 OFFCURVE",
"24 -70 CURVE SMOOTH",
"-28 -70 LINE",
"-28 -166 LINE",
"-5 -174 OFFCURVE",
"38 -182 OFFCURVE",
"70 -182 CURVE SMOOTH",
"177 -182 OFFCURVE",
"208 -111 OFFCURVE",
"208 -41 CURVE SMOOTH",
"208 379 LINE SMOOTH",
"208 397 OFFCURVE",
"205 439 OFFCURVE",
"205 439 CURVE",
"210 442 LINE",
"210 442 OFFCURVE",
"229 404 OFFCURVE",
"249 376 CURVE SMOOTH",
"514 0 LINE",
"655 0 LINE",
"655 686 LINE",
"514 686 LINE"
);
}
);
width = 722;
}
);
unicode = 019D;
},
{
color = 10;
glyphname = Ntilde;
lastChange = "2015-02-12 03:02:43 +0000";
layers = (
{
background = {
paths = (
{
closed = 1;
nodes = (
"643 0 LINE",
"643 686 LINE",
"554 686 LINE",
"554 177 LINE",
"550 176 LINE",
"164 686 LINE",
"79 686 LINE",
"79 0 LINE",
"168 0 LINE",
"168 518 LINE",
"172 519 LINE",
"562 0 LINE"
);
},
{
closed = 1;
nodes = (
"470 851 LINE",
"468 828 OFFCURVE",
"457 820 OFFCURVE",
"442 820 CURVE SMOOTH",
"392 820 OFFCURVE",
"349 851 OFFCURVE",
"293 851 CURVE SMOOTH",
"233 851 OFFCURVE",
"208 803 OFFCURVE",
"208 747 CURVE",
"273 747 LINE",
"275 770 OFFCURVE",
"286 778 OFFCURVE",
"301 778 CURVE SMOOTH",
"351 778 OFFCURVE",
"394 747 OFFCURVE",
"450 747 CURVE SMOOTH",
"510 747 OFFCURVE",
"535 795 OFFCURVE",
"535 851 CURVE"
);
}
);
};
components = (
{
name = N;
},
{
name = tilde;
transform = "{1, 0, 0, 1, 194, 145}";
}
);
layerId = UUID0;
width = 722;
},
{
background = {
paths = (
{
closed = 1;
nodes = (
"655 0 LINE",
"655 686 LINE",
"514 686 LINE",
"514 307 LINE SMOOTH",
"514 296 OFFCURVE",
"517 249 OFFCURVE",
"517 249 CURVE",
"512 246 LINE",
"512 246 OFFCURVE",
"485 295 OFFCURVE",
"472 313 CURVE SMOOTH",
"208 686 LINE",
"67 686 LINE",
"67 0 LINE",
"208 0 LINE",
"208 379 LINE SMOOTH",
"208 397 OFFCURVE",
"205 439 OFFCURVE",
"205 439 CURVE",
"210 442 LINE",
"210 442 OFFCURVE",
"229 404 OFFCURVE",
"249 376 CURVE SMOOTH",
"514 0 LINE"
);
},
{
closed = 1;
nodes = (
"464 859 LINE",
"460 831 OFFCURVE",
"448 822 OFFCURVE",
"429 822 CURVE SMOOTH",
"384 822 OFFCURVE",
"345 859 OFFCURVE",
"296 859 CURVE SMOOTH",
"226 859 OFFCURVE",
"198 802 OFFCURVE",
"198 737 CURVE",
"268 737 LINE",
"272 764 OFFCURVE",
"284 774 OFFCURVE",
"303 774 CURVE SMOOTH",
"348 774 OFFCURVE",
"387 737 OFFCURVE",
"435 737 CURVE SMOOTH",
"506 737 OFFCURVE",
"534 794 OFFCURVE",
"534 859 CURVE"
);
}
);
};
components = (
{
name = N;
},
{
name = tilde;
transform = "{1, 0, 0, 1, 194, 145}";
}
);
layerId = "4E7A989A-9DEE-440F-9785-5637679BA6FC";
width = 722;
}
);
unicode = 00D1;
},
{
color = 9;
glyphname = O;
lastChange = "2015-02-16 21:47:37 +0000";
layers = (
{
anchors = (
{
name = bottom;
position = "{389, 0}";
},
{
name = center;
position = "{389, 343}";
},
{
name = ogonek;
position = "{529, 10}";
},
{
name = top;
position = "{389, 671}";
},
{
name = topright;
position = "{698, 828}";
}
);
background = {
paths = (
{
closed = 1;
nodes = (
"603 -12 OFFCURVE",
"732 105 OFFCURVE",
"732 343 CURVE SMOOTH",
"732 581 OFFCURVE",
"603 698 OFFCURVE",
"389 698 CURVE SMOOTH",
"175 698 OFFCURVE",
"47 581 OFFCURVE",
"47 343 CURVE SMOOTH",
"47 105 OFFCURVE",
"175 -12 OFFCURVE",
"389 -12 CURVE SMOOTH"
);
},
{
closed = 1;
nodes = (
"238 69 OFFCURVE",
"145 145 OFFCURVE",
"145 343 CURVE SMOOTH",
"145 541 OFFCURVE",
"238 617 OFFCURVE",
"389 617 CURVE SMOOTH",
"541 617 OFFCURVE",
"634 541 OFFCURVE",
"634 343 CURVE SMOOTH",
"634 145 OFFCURVE",
"541 69 OFFCURVE",
"389 69 CURVE SMOOTH"
);
}
);
};
layerId = UUID0;
paths = (
{
closed = 1;
nodes = (
"603 -12 OFFCURVE",
"732 105 OFFCURVE",
"732 343 CURVE SMOOTH",
"732 581 OFFCURVE",
"603 698 OFFCURVE",
"389 698 CURVE SMOOTH",
"175 698 OFFCURVE",
"47 581 OFFCURVE",
"47 343 CURVE SMOOTH",
"47 105 OFFCURVE",
"175 -12 OFFCURVE",
"389 -12 CURVE SMOOTH"
);
},
{
closed = 1;
nodes = (
"238 69 OFFCURVE",
"145 145 OFFCURVE",
"145 343 CURVE SMOOTH",
"145 541 OFFCURVE",
"238 617 OFFCURVE",
"389 617 CURVE SMOOTH",
"541 617 OFFCURVE",
"634 541 OFFCURVE",
"634 343 CURVE SMOOTH",
"634 145 OFFCURVE",
"541 69 OFFCURVE",
"389 69 CURVE SMOOTH"
);
}
);
width = 778;
},
{
anchors = (
{
name = bottom;
position = "{389, 0}";
},
{
name = center;
position = "{389, 343}";
},
{
name = ogonek;
position = "{529, 10}";
},
{
name = top;
position = "{389, 671}";
},
{
name = topright;
position = "{678, 828}";
}
);
background = {
paths = (
{
closed = 1;
nodes = (
"605 -12 OFFCURVE",
"737 101 OFFCURVE",
"737 343 CURVE SMOOTH",
"737 585 OFFCURVE",
"605 698 OFFCURVE",
"389 698 CURVE SMOOTH",
"174 698 OFFCURVE",
"42 585 OFFCURVE",
"42 343 CURVE SMOOTH",
"42 101 OFFCURVE",
"174 -12 OFFCURVE",
"389 -12 CURVE SMOOTH"
);
},
{
closed = 1;
nodes = (
"257 111 OFFCURVE",
"191 192 OFFCURVE",
"191 328 CURVE SMOOTH",
"191 358 LINE",
"191 494 OFFCURVE",
"257 575 OFFCURVE",
"389 575 CURVE SMOOTH",
"522 575 OFFCURVE",
"588 494 OFFCURVE",
"588 358 CURVE SMOOTH",
"588 328 LINE",
"588 192 OFFCURVE",
"522 111 OFFCURVE",
"389 111 CURVE SMOOTH"
);
}
);
};
layerId = "4E7A989A-9DEE-440F-9785-5637679BA6FC";
paths = (
{
closed = 1;
nodes = (
"605 -12 OFFCURVE",
"737 101 OFFCURVE",
"737 343 CURVE SMOOTH",
"737 585 OFFCURVE",
"605 698 OFFCURVE",
"389 698 CURVE SMOOTH",
"174 698 OFFCURVE",
"42 585 OFFCURVE",
"42 343 CURVE SMOOTH",
"42 101 OFFCURVE",
"174 -12 OFFCURVE",
"389 -12 CURVE SMOOTH"
);
},
{
closed = 1;
nodes = (
"257 111 OFFCURVE",
"191 192 OFFCURVE",
"191 328 CURVE SMOOTH",
"191 358 LINE",
"191 494 OFFCURVE",
"257 575 OFFCURVE",
"389 575 CURVE SMOOTH",
"522 575 OFFCURVE",
"588 494 OFFCURVE",
"588 358 CURVE SMOOTH",
"588 328 LINE",
"588 192 OFFCURVE",
"522 111 OFFCURVE",
"389 111 CURVE SMOOTH"
);
}
);
width = 778;
}
);
leftKerningGroup = O;
rightKerningGroup = O;
unicode = 004F;
},
{
color = 9;
glyphname = Oacute;
lastChange = "2015-02-16 21:47:37 +0000";
layers = (
{
background = {
paths = (
{
closed = 1;
nodes = (
"603 -12 OFFCURVE",
"732 105 OFFCURVE",
"732 343 CURVE SMOOTH",
"732 581 OFFCURVE",
"603 698 OFFCURVE",
"389 698 CURVE SMOOTH",
"175 698 OFFCURVE",
"47 581 OFFCURVE",
"47 343 CURVE SMOOTH",
"47 105 OFFCURVE",
"175 -12 OFFCURVE",
"389 -12 CURVE SMOOTH"
);
},
{
closed = 1;
nodes = (
"238 69 OFFCURVE",
"145 145 OFFCURVE",
"145 343 CURVE SMOOTH",
"145 541 OFFCURVE",
"238 617 OFFCURVE",
"389 617 CURVE SMOOTH",
"541 617 OFFCURVE",
"634 541 OFFCURVE",
"634 343 CURVE SMOOTH",
"634 145 OFFCURVE",
"541 69 OFFCURVE",
"389 69 CURVE SMOOTH"
);
},
{
closed = 1;
nodes = (
"410 737 LINE",
"518 866 LINE",
"517 869 LINE",
"421 869 LINE",
"335 737 LINE"
);
}
);
};
components = (
{
name = O;
},
{
anchor = top;
name = acute;
transform = "{1, 0, 0, 1, 276, 145}";
}
);
layerId = UUID0;
width = 778;
},
{
background = {
paths = (
{
closed = 1;
nodes = (
"605 -12 OFFCURVE",
"737 101 OFFCURVE",
"737 343 CURVE SMOOTH",
"737 585 OFFCURVE",
"605 698 OFFCURVE",
"389 698 CURVE SMOOTH",
"174 698 OFFCURVE",
"42 585 OFFCURVE",
"42 343 CURVE SMOOTH",
"42 101 OFFCURVE",
"174 -12 OFFCURVE",
"389 -12 CURVE SMOOTH"
);
},
{
closed = 1;
nodes = (
"257 111 OFFCURVE",
"191 192 OFFCURVE",
"191 328 CURVE SMOOTH",
"191 358 LINE",
"191 494 OFFCURVE",
"257 575 OFFCURVE",
"389 575 CURVE SMOOTH",
"522 575 OFFCURVE",
"588 494 OFFCURVE",
"588 358 CURVE SMOOTH",
"588 328 LINE",
"588 192 OFFCURVE",
"522 111 OFFCURVE",
"389 111 CURVE SMOOTH"
);
},
{
closed = 1;
nodes = (
"440 737 LINE",
"548 866 LINE",
"547 869 LINE",
"414 869 LINE",
"335 737 LINE"
);
}
);
};
components = (
{
name = O;
},
{
anchor = top;
name = acute;
transform = "{1, 0, 0, 1, 261, 145}";
}
);
layerId = "4E7A989A-9DEE-440F-9785-5637679BA6FC";
width = 778;
}
);
leftKerningGroup = O;
rightKerningGroup = O;
unicode = 00D3;
},
{
color = 10;
glyphname = Obreve;
lastChange = "2015-02-16 21:47:37 +0000";
layers = (
{
background = {
paths = (
{
closed = 1;
nodes = (
"603 -12 OFFCURVE",
"732 105 OFFCURVE",
"732 343 CURVE SMOOTH",
"732 581 OFFCURVE",
"603 698 OFFCURVE",
"389 698 CURVE SMOOTH",
"175 698 OFFCURVE",
"47 581 OFFCURVE",
"47 343 CURVE SMOOTH",
"47 105 OFFCURVE",
"175 -12 OFFCURVE",
"389 -12 CURVE SMOOTH"
);
},
{
closed = 1;
nodes = (
"238 69 OFFCURVE",
"145 145 OFFCURVE",
"145 343 CURVE SMOOTH",
"145 541 OFFCURVE",
"238 617 OFFCURVE",
"389 617 CURVE SMOOTH",
"541 617 OFFCURVE",
"634 541 OFFCURVE",
"634 343 CURVE SMOOTH",
"634 145 OFFCURVE",
"541 69 OFFCURVE",
"389 69 CURVE SMOOTH"
);
},
{
closed = 1;
nodes = (
"474 860 LINE",
"471 838 OFFCURVE",
"453 807 OFFCURVE",
"389 807 CURVE SMOOTH",
"325 807 OFFCURVE",
"310 838 OFFCURVE",
"305 860 CURVE",
"244 860 LINE",
"244 805 OFFCURVE",
"277 743 OFFCURVE",
"389 743 CURVE SMOOTH",
"501 743 OFFCURVE",
"535 805 OFFCURVE",
"535 860 CURVE"
);
}
);
};
components = (
{
name = O;
},
{
name = breve;
transform = "{1, 0, 0, 1, 222, 145}";
}
);
layerId = UUID0;
width = 778;
},
{
background = {
paths = (
{
closed = 1;
nodes = (
"605 -12 OFFCURVE",
"737 101 OFFCURVE",
"737 343 CURVE SMOOTH",
"737 585 OFFCURVE",
"605 698 OFFCURVE",
"389 698 CURVE SMOOTH",
"174 698 OFFCURVE",
"42 585 OFFCURVE",
"42 343 CURVE SMOOTH",
"42 101 OFFCURVE",
"174 -12 OFFCURVE",
"389 -12 CURVE SMOOTH"
);
},
{
closed = 1;
nodes = (
"257 111 OFFCURVE",
"191 192 OFFCURVE",
"191 328 CURVE SMOOTH",
"191 358 LINE",
"191 494 OFFCURVE",
"257 575 OFFCURVE",
"389 575 CURVE SMOOTH",
"522 575 OFFCURVE",
"588 494 OFFCURVE",
"588 358 CURVE SMOOTH",
"588 328 LINE",
"588 192 OFFCURVE",
"522 111 OFFCURVE",
"389 111 CURVE SMOOTH"
);
},
{
closed = 1;
nodes = (
"461 868 LINE",
"459 848 OFFCURVE",
"436 820 OFFCURVE",
"389 820 CURVE SMOOTH",
"342 820 OFFCURVE",
"321 848 OFFCURVE",
"318 868 CURVE",
"228 868 LINE",
"228 804 OFFCURVE",
"273 731 OFFCURVE",
"389 731 CURVE SMOOTH",
"505 731 OFFCURVE",
"551 804 OFFCURVE",
"551 868 CURVE"
);
}
);
};
components = (
{
name = O;
},
{
name = breve;
transform = "{1, 0, 0, 1, 222, 145}";
}
);
layerId = "4E7A989A-9DEE-440F-9785-5637679BA6FC";
width = 778;
}
);
leftKerningGroup = O;
rightKerningGroup = O;
unicode = 014E;
},
{
color = 10;
glyphname = Ocircumflex;
lastChange = "2015-02-16 21:47:37 +0000";
layers = (
{
background = {
paths = (
{
closed = 1;
nodes = (
"603 -12 OFFCURVE",
"732 105 OFFCURVE",
"732 343 CURVE SMOOTH",
"732 581 OFFCURVE",
"603 698 OFFCURVE",
"389 698 CURVE SMOOTH",
"175 698 OFFCURVE",
"47 581 OFFCURVE",
"47 343 CURVE SMOOTH",
"47 105 OFFCURVE",
"175 -12 OFFCURVE",
"389 -12 CURVE SMOOTH"
);
},
{
closed = 1;
nodes = (
"238 69 OFFCURVE",
"145 145 OFFCURVE",
"145 343 CURVE SMOOTH",
"145 541 OFFCURVE",
"238 617 OFFCURVE",
"389 617 CURVE SMOOTH",
"541 617 OFFCURVE",
"634 541 OFFCURVE",
"634 343 CURVE SMOOTH",
"634 145 OFFCURVE",
"541 69 OFFCURVE",
"389 69 CURVE SMOOTH"
);
},
{
closed = 1;
nodes = (
"536 737 LINE",
"431 872 LINE",
"347 872 LINE",
"241 737 LINE",
"331 737 LINE",
"389 816 LINE",
"446 737 LINE"
);
}
);
};
components = (
{
name = O;
},
{
name = circumflex;
transform = "{1, 0, 0, 1, 222, 145}";
}
);
layerId = UUID0;
width = 778;
},
{
background = {
paths = (
{
closed = 1;
nodes = (
"605 -12 OFFCURVE",
"737 101 OFFCURVE",
"737 343 CURVE SMOOTH",
"737 585 OFFCURVE",
"605 698 OFFCURVE",
"389 698 CURVE SMOOTH",
"174 698 OFFCURVE",
"42 585 OFFCURVE",
"42 343 CURVE SMOOTH",
"42 101 OFFCURVE",
"174 -12 OFFCURVE",
"389 -12 CURVE SMOOTH"
);
},
{
closed = 1;
nodes = (
"257 111 OFFCURVE",
"191 192 OFFCURVE",
"191 328 CURVE SMOOTH",
"191 358 LINE",
"191 494 OFFCURVE",
"257 575 OFFCURVE",
"389 575 CURVE SMOOTH",
"522 575 OFFCURVE",
"588 494 OFFCURVE",
"588 358 CURVE SMOOTH",
"588 328 LINE",
"588 192 OFFCURVE",
"522 111 OFFCURVE",
"389 111 CURVE SMOOTH"
);
},
{
closed = 1;
nodes = (
"559 737 LINE",
"454 872 LINE",
"332 872 LINE",
"226 737 LINE",
"337 737 LINE",
"393 806 LINE",
"448 737 LINE"
);
}
);
};
components = (
{
name = O;
},
{
name = circumflex;
transform = "{1, 0, 0, 1, 222, 145}";
}
);
layerId = "4E7A989A-9DEE-440F-9785-5637679BA6FC";
width = 778;
}
);
leftKerningGroup = O;
rightKerningGroup = O;
unicode = 00D4;
},
{
color = 10;
glyphname = Odieresis;
lastChange = "2015-02-16 21:47:37 +0000";
layers = (
{
background = {
paths = (
{
closed = 1;
nodes = (
"603 -12 OFFCURVE",
"732 105 OFFCURVE",
"732 343 CURVE SMOOTH",
"732 581 OFFCURVE",
"603 698 OFFCURVE",
"389 698 CURVE SMOOTH",
"175 698 OFFCURVE",
"47 581 OFFCURVE",
"47 343 CURVE SMOOTH",
"47 105 OFFCURVE",
"175 -12 OFFCURVE",
"389 -12 CURVE SMOOTH"
);
},
{
closed = 1;
nodes = (
"238 69 OFFCURVE",
"145 145 OFFCURVE",
"145 343 CURVE SMOOTH",
"145 541 OFFCURVE",
"238 617 OFFCURVE",
"389 617 CURVE SMOOTH",
"541 617 OFFCURVE",
"634 541 OFFCURVE",
"634 343 CURVE SMOOTH",
"634 145 OFFCURVE",
"541 69 OFFCURVE",
"389 69 CURVE SMOOTH"
);
},
{
closed = 1;
nodes = (
"340 752 LINE",
"340 847 LINE",
"253 847 LINE",
"253 752 LINE"
);
},
{
closed = 1;
nodes = (
"527 752 LINE",
"527 847 LINE",
"440 847 LINE",
"440 752 LINE"
);
}
);
};
components = (
{
name = O;
},
{
name = dieresis;
transform = "{1, 0, 0, 1, 222, 145}";
}
);
layerId = UUID0;
width = 778;
},
{
background = {
paths = (
{
closed = 1;
nodes = (
"605 -12 OFFCURVE",
"737 101 OFFCURVE",
"737 343 CURVE SMOOTH",
"737 585 OFFCURVE",
"605 698 OFFCURVE",
"389 698 CURVE SMOOTH",
"174 698 OFFCURVE",
"42 585 OFFCURVE",
"42 343 CURVE SMOOTH",
"42 101 OFFCURVE",
"174 -12 OFFCURVE",
"389 -12 CURVE SMOOTH"
);
},
{
closed = 1;
nodes = (
"257 111 OFFCURVE",
"191 192 OFFCURVE",
"191 328 CURVE SMOOTH",
"191 358 LINE",
"191 494 OFFCURVE",
"257 575 OFFCURVE",
"389 575 CURVE SMOOTH",
"522 575 OFFCURVE",
"588 494 OFFCURVE",
"588 358 CURVE SMOOTH",
"588 328 LINE",
"588 192 OFFCURVE",
"522 111 OFFCURVE",
"389 111 CURVE SMOOTH"
);
},
{
closed = 1;
nodes = (
"345 741 LINE",
"345 859 LINE",
"227 859 LINE",
"227 741 LINE"
);
},
{
closed = 1;
nodes = (
"556 741 LINE",
"556 859 LINE",
"437 859 LINE",
"437 741 LINE"
);
}
);
};
components = (
{
name = O;
},
{
name = dieresis;
transform = "{1, 0, 0, 1, 223, 145}";
}
);
layerId = "4E7A989A-9DEE-440F-9785-5637679BA6FC";
width = 778;
}
);
leftKerningGroup = O;
rightKerningGroup = O;
unicode = 00D6;
},
{
color = 9;
glyphname = Ograve;
lastChange = "2015-02-16 21:47:37 +0000";
layers = (
{
background = {
paths = (
{
closed = 1;
nodes = (
"603 -12 OFFCURVE",
"732 105 OFFCURVE",
"732 343 CURVE SMOOTH",
"732 581 OFFCURVE",
"603 698 OFFCURVE",
"389 698 CURVE SMOOTH",
"175 698 OFFCURVE",
"47 581 OFFCURVE",
"47 343 CURVE SMOOTH",
"47 105 OFFCURVE",
"175 -12 OFFCURVE",
"389 -12 CURVE SMOOTH"
);
},
{
closed = 1;
nodes = (
"238 69 OFFCURVE",
"145 145 OFFCURVE",
"145 343 CURVE SMOOTH",
"145 541 OFFCURVE",
"238 617 OFFCURVE",
"389 617 CURVE SMOOTH",
"541 617 OFFCURVE",
"634 541 OFFCURVE",
"634 343 CURVE SMOOTH",
"634 145 OFFCURVE",
"541 69 OFFCURVE",
"389 69 CURVE SMOOTH"
);
},
{
closed = 1;
nodes = (
"448 737 LINE",
"362 869 LINE",
"266 869 LINE",
"265 866 LINE",
"373 737 LINE"
);
}
);
};
components = (
{
name = O;
},
{
anchor = top;
name = grave;
transform = "{1, 0, 0, 1, 168, 145}";
}
);
layerId = UUID0;
width = 778;
},
{
background = {
paths = (
{
closed = 1;
nodes = (
"605 -12 OFFCURVE",
"737 101 OFFCURVE",
"737 343 CURVE SMOOTH",
"737 585 OFFCURVE",
"605 698 OFFCURVE",
"389 698 CURVE SMOOTH",
"174 698 OFFCURVE",
"42 585 OFFCURVE",
"42 343 CURVE SMOOTH",
"42 101 OFFCURVE",
"174 -12 OFFCURVE",
"389 -12 CURVE SMOOTH"
);
},
{
closed = 1;
nodes = (
"257 111 OFFCURVE",
"191 192 OFFCURVE",
"191 328 CURVE SMOOTH",
"191 358 LINE",
"191 494 OFFCURVE",
"257 575 OFFCURVE",
"389 575 CURVE SMOOTH",
"522 575 OFFCURVE",
"588 494 OFFCURVE",
"588 358 CURVE SMOOTH",
"588 328 LINE",
"588 192 OFFCURVE",
"522 111 OFFCURVE",
"389 111 CURVE SMOOTH"
);
},
{
closed = 1;
nodes = (
"453 737 LINE",
"374 869 LINE",
"241 869 LINE",
"240 866 LINE",
"348 737 LINE"
);
}
);
};
components = (
{
name = O;
},
{
anchor = top;
name = grave;
transform = "{1, 0, 0, 1, 153, 145}";
}
);
layerId = "4E7A989A-9DEE-440F-9785-5637679BA6FC";
width = 778;
}
);
leftKerningGroup = O;
rightKerningGroup = O;
unicode = 00D2;
},
{
color = 10;
glyphname = Ohungarumlaut;
lastChange = "2015-02-16 21:47:37 +0000";
layers = (
{
background = {
paths = (
{
closed = 1;
nodes = (
"603 -12 OFFCURVE",
"732 105 OFFCURVE",
"732 343 CURVE SMOOTH",
"732 581 OFFCURVE",
"603 698 OFFCURVE",
"389 698 CURVE SMOOTH",
"175 698 OFFCURVE",
"47 581 OFFCURVE",
"47 343 CURVE SMOOTH",
"47 105 OFFCURVE",
"175 -12 OFFCURVE",
"389 -12 CURVE SMOOTH"
);
},
{
closed = 1;
nodes = (
"238 69 OFFCURVE",
"145 145 OFFCURVE",
"145 343 CURVE SMOOTH",
"145 541 OFFCURVE",
"238 617 OFFCURVE",
"389 617 CURVE SMOOTH",
"541 617 OFFCURVE",
"634 541 OFFCURVE",
"634 343 CURVE SMOOTH",
"634 145 OFFCURVE",
"541 69 OFFCURVE",
"389 69 CURVE SMOOTH"
);
},
{
closed = 1;
nodes = (
"357 737 LINE",
"441 866 LINE",
"440 869 LINE",
"343 869 LINE",
"281 737 LINE"
);
},
{
closed = 1;
nodes = (
"496 737 LINE",
"580 866 LINE",
"579 869 LINE",
"482 869 LINE",
"420 737 LINE"
);
}
);
};
components = (
{
name = O;
},
{
name = hungarumlaut;
transform = "{1, 0, 0, 1, 254, 145}";
}
);
layerId = UUID0;
width = 778;
},
{
background = {
paths = (
{
closed = 1;
nodes = (
"605 -12 OFFCURVE",
"737 101 OFFCURVE",
"737 343 CURVE SMOOTH",
"737 585 OFFCURVE",
"605 698 OFFCURVE",
"389 698 CURVE SMOOTH",
"174 698 OFFCURVE",
"42 585 OFFCURVE",
"42 343 CURVE SMOOTH",
"42 101 OFFCURVE",
"174 -12 OFFCURVE",
"389 -12 CURVE SMOOTH"
);
},
{
closed = 1;
nodes = (
"257 111 OFFCURVE",
"191 192 OFFCURVE",
"191 328 CURVE SMOOTH",
"191 358 LINE",
"191 494 OFFCURVE",
"257 575 OFFCURVE",
"389 575 CURVE SMOOTH",
"522 575 OFFCURVE",
"588 494 OFFCURVE",
"588 358 CURVE SMOOTH",
"588 328 LINE",
"588 192 OFFCURVE",
"522 111 OFFCURVE",
"389 111 CURVE SMOOTH"
);
},
{
closed = 1;
nodes = (
"355 737 LINE",
"463 866 LINE",
"462 869 LINE",
"329 869 LINE",
"250 737 LINE"
);
},
{
closed = 1;
nodes = (
"530 737 LINE",
"638 866 LINE",
"637 869 LINE",
"504 869 LINE",
"425 737 LINE"
);
}
);
};
components = (
{
name = O;
},
{
name = hungarumlaut;
transform = "{1, 0, 0, 1, 242, 145}";
}
);
layerId = "4E7A989A-9DEE-440F-9785-5637679BA6FC";
width = 778;
}
);
leftKerningGroup = O;
rightKerningGroup = O;
unicode = 0150;
},
{
color = 10;
glyphname = Omacron;
lastChange = "2015-02-16 21:47:37 +0000";
layers = (
{
background = {
paths = (
{
closed = 1;
nodes = (
"545 763 LINE",
"545 835 LINE",
"240 835 LINE",
"240 763 LINE"
);
},
{
closed = 1;
nodes = (
"603 -12 OFFCURVE",
"732 105 OFFCURVE",
"732 343 CURVE SMOOTH",
"732 581 OFFCURVE",
"603 698 OFFCURVE",
"389 698 CURVE SMOOTH",
"175 698 OFFCURVE",
"47 581 OFFCURVE",
"47 343 CURVE SMOOTH",
"47 105 OFFCURVE",
"175 -12 OFFCURVE",
"389 -12 CURVE SMOOTH"
);
},
{
closed = 1;
nodes = (
"238 69 OFFCURVE",
"145 145 OFFCURVE",
"145 343 CURVE SMOOTH",
"145 541 OFFCURVE",
"238 617 OFFCURVE",
"389 617 CURVE SMOOTH",
"541 617 OFFCURVE",
"634 541 OFFCURVE",
"634 343 CURVE SMOOTH",
"634 145 OFFCURVE",
"541 69 OFFCURVE",
"389 69 CURVE SMOOTH"
);
}
);
};
components = (
{
name = O;
}
);
layerId = UUID0;
paths = (
{
closed = 1;
nodes = (
"545 763 LINE",
"545 835 LINE",
"240 835 LINE",
"240 763 LINE"
);
}
);
width = 778;
},
{
background = {
paths = (
{
closed = 1;
nodes = (
"605 -12 OFFCURVE",
"737 101 OFFCURVE",
"737 343 CURVE SMOOTH",
"737 585 OFFCURVE",
"605 698 OFFCURVE",
"389 698 CURVE SMOOTH",
"174 698 OFFCURVE",
"42 585 OFFCURVE",
"42 343 CURVE SMOOTH",
"42 101 OFFCURVE",
"174 -12 OFFCURVE",
"389 -12 CURVE SMOOTH"
);
},
{
closed = 1;
nodes = (
"257 111 OFFCURVE",
"191 192 OFFCURVE",
"191 328 CURVE SMOOTH",
"191 358 LINE",
"191 494 OFFCURVE",
"257 575 OFFCURVE",
"389 575 CURVE SMOOTH",
"522 575 OFFCURVE",
"588 494 OFFCURVE",
"588 358 CURVE SMOOTH",
"588 328 LINE",
"588 192 OFFCURVE",
"522 111 OFFCURVE",
"389 111 CURVE SMOOTH"
);
},
{
closed = 1;
nodes = (
"543 755 LINE",
"543 843 LINE",
"238 843 LINE",
"238 755 LINE"
);
}
);
};
components = (
{
name = O;
},
{
name = macron;
transform = "{1, 0, 0, 1, 222, 145}";
}
);
layerId = "4E7A989A-9DEE-440F-9785-5637679BA6FC";
width = 778;
}
);
leftKerningGroup = O;
rightKerningGroup = O;
unicode = 014C;
},
{
color = 10;
glyphname = Oslash;
lastChange = "2015-02-12 03:02:41 +0000";
layers = (
{
anchors = (
{
name = top;
position = "{389, 671}";
}
);
background = {
paths = (
{
closed = 1;
nodes = (
"132 -49 LINE",
"194 32 LINE",
"247 2 OFFCURVE",
"312 -12 OFFCURVE",
"389 -12 CURVE SMOOTH",
"603 -12 OFFCURVE",
"732 105 OFFCURVE",
"732 343 CURVE SMOOTH",
"732 463 OFFCURVE",
"699 553 OFFCURVE",
"638 612 CURVE",
"732 735 LINE",
"648 735 LINE",
"585 652 LINE",
"532 683 OFFCURVE",
"466 698 OFFCURVE",
"389 698 CURVE SMOOTH",
"175 698 OFFCURVE",
"47 581 OFFCURVE",
"47 343 CURVE SMOOTH",
"47 222 OFFCURVE",
"80 132 OFFCURVE",
"141 73 CURVE",
"47 -49 LINE"
);
},
{
closed = 1;
nodes = (
"197 147 LINE",
"163 191 OFFCURVE",
"145 254 OFFCURVE",
"145 343 CURVE SMOOTH",
"145 541 OFFCURVE",
"238 617 OFFCURVE",
"389 617 CURVE SMOOTH",
"445 617 OFFCURVE",
"493 606 OFFCURVE",
"532 583 CURVE"
);
},
{
closed = 1;
nodes = (
"582 538 LINE",
"615 494 OFFCURVE",
"634 431 OFFCURVE",
"634 343 CURVE SMOOTH",
"634 145 OFFCURVE",
"541 69 OFFCURVE",
"389 69 CURVE SMOOTH",
"333 69 OFFCURVE",
"286 79 OFFCURVE",
"248 102 CURVE"
);
}
);
};
layerId = UUID0;
paths = (
{
closed = 1;
nodes = (
"132 -49 LINE",
"194 32 LINE",
"247 2 OFFCURVE",
"312 -12 OFFCURVE",
"389 -12 CURVE SMOOTH",
"603 -12 OFFCURVE",
"732 105 OFFCURVE",
"732 343 CURVE SMOOTH",
"732 463 OFFCURVE",
"699 553 OFFCURVE",
"638 612 CURVE",
"732 735 LINE",
"648 735 LINE",
"585 652 LINE",
"532 683 OFFCURVE",
"466 698 OFFCURVE",
"389 698 CURVE SMOOTH",
"175 698 OFFCURVE",
"47 581 OFFCURVE",
"47 343 CURVE SMOOTH",
"47 222 OFFCURVE",
"80 132 OFFCURVE",
"141 73 CURVE",
"47 -49 LINE"
);
},
{
closed = 1;
nodes = (
"197 147 LINE",
"163 191 OFFCURVE",
"145 254 OFFCURVE",
"145 343 CURVE SMOOTH",
"145 541 OFFCURVE",
"238 617 OFFCURVE",
"389 617 CURVE SMOOTH",
"445 617 OFFCURVE",
"493 606 OFFCURVE",
"532 583 CURVE"
);
},
{
closed = 1;
nodes = (
"582 538 LINE",
"615 494 OFFCURVE",
"634 431 OFFCURVE",
"634 343 CURVE SMOOTH",
"634 145 OFFCURVE",
"541 69 OFFCURVE",
"389 69 CURVE SMOOTH",
"333 69 OFFCURVE",
"286 79 OFFCURVE",
"248 102 CURVE"
);
}
);
width = 778;
},
{
anchors = (
{
name = top;
position = "{389, 671}";
}
);
background = {
paths = (
{
closed = 1;
nodes = (
"142 -49 LINE",
"200 28 LINE",
"252 1 OFFCURVE",
"315 -12 OFFCURVE",
"389 -12 CURVE SMOOTH",
"605 -12 OFFCURVE",
"737 101 OFFCURVE",
"737 343 CURVE SMOOTH",
"737 466 OFFCURVE",
"703 556 OFFCURVE",
"641 614 CURVE",
"732 735 LINE",
"638 735 LINE",
"580 657 LINE",
"527 685 OFFCURVE",
"463 698 OFFCURVE",
"389 698 CURVE SMOOTH",
"174 698 OFFCURVE",
"42 585 OFFCURVE",
"42 343 CURVE SMOOTH",
"42 220 OFFCURVE",
"76 130 OFFCURVE",
"138 72 CURVE",
"47 -49 LINE"
);
},
{
closed = 1;
nodes = (
"225 188 LINE",
"202 224 OFFCURVE",
"191 271 OFFCURVE",
"191 328 CURVE SMOOTH",
"191 358 LINE",
"191 494 OFFCURVE",
"257 575 OFFCURVE",
"389 575 CURVE SMOOTH",
"433 575 OFFCURVE",
"469 566 OFFCURVE",
"498 549 CURVE"
);
},
{
closed = 1;
nodes = (
"588 328 LINE",
"588 192 OFFCURVE",
"522 111 OFFCURVE",
"389 111 CURVE SMOOTH",
"346 111 OFFCURVE",
"310 119 OFFCURVE",
"281 136 CURVE",
"553 498 LINE",
"576 462 OFFCURVE",
"588 415 OFFCURVE",
"588 358 CURVE"
);
}
);
};
layerId = "4E7A989A-9DEE-440F-9785-5637679BA6FC";
paths = (
{
closed = 1;
nodes = (
"142 -49 LINE",
"200 28 LINE",
"252 1 OFFCURVE",
"315 -12 OFFCURVE",
"389 -12 CURVE SMOOTH",
"605 -12 OFFCURVE",
"737 101 OFFCURVE",
"737 343 CURVE SMOOTH",
"737 466 OFFCURVE",
"703 556 OFFCURVE",
"641 614 CURVE",
"732 735 LINE",
"638 735 LINE",
"580 657 LINE",
"527 685 OFFCURVE",
"463 698 OFFCURVE",
"389 698 CURVE SMOOTH",
"174 698 OFFCURVE",
"42 585 OFFCURVE",
"42 343 CURVE SMOOTH",
"42 220 OFFCURVE",
"76 130 OFFCURVE",
"138 72 CURVE",
"47 -49 LINE"
);
},
{
closed = 1;
nodes = (
"225 188 LINE",
"202 224 OFFCURVE",
"191 271 OFFCURVE",
"191 328 CURVE SMOOTH",
"191 358 LINE",
"191 494 OFFCURVE",
"257 575 OFFCURVE",
"389 575 CURVE SMOOTH",
"433 575 OFFCURVE",
"469 566 OFFCURVE",
"498 549 CURVE"
);
},
{
closed = 1;
nodes = (
"588 328 LINE",
"588 192 OFFCURVE",
"522 111 OFFCURVE",
"389 111 CURVE SMOOTH",
"346 111 OFFCURVE",
"310 119 OFFCURVE",
"281 136 CURVE",
"553 498 LINE",
"576 462 OFFCURVE",
"588 415 OFFCURVE",
"588 358 CURVE"
);
}
);
width = 778;
}
);
unicode = 00D8;
},
{
color = 10;
glyphname = Oslashacute;
lastChange = "2015-02-12 01:36:50 +0000";
layers = (
{
background = {
paths = (
{
closed = 1;
nodes = (
"132 -49 LINE",
"194 32 LINE",
"247 2 OFFCURVE",
"312 -12 OFFCURVE",
"389 -12 CURVE SMOOTH",
"603 -12 OFFCURVE",
"732 105 OFFCURVE",
"732 343 CURVE SMOOTH",
"732 463 OFFCURVE",
"699 553 OFFCURVE",
"638 612 CURVE",
"732 735 LINE",
"648 735 LINE",
"585 652 LINE",
"532 683 OFFCURVE",
"466 698 OFFCURVE",
"389 698 CURVE SMOOTH",
"175 698 OFFCURVE",
"47 581 OFFCURVE",
"47 343 CURVE SMOOTH",
"47 222 OFFCURVE",
"80 132 OFFCURVE",
"141 73 CURVE",
"47 -49 LINE"
);
},
{
closed = 1;
nodes = (
"197 147 LINE",
"163 191 OFFCURVE",
"145 254 OFFCURVE",
"145 343 CURVE SMOOTH",
"145 541 OFFCURVE",
"238 617 OFFCURVE",
"389 617 CURVE SMOOTH",
"445 617 OFFCURVE",
"493 606 OFFCURVE",
"532 583 CURVE"
);
},
{
closed = 1;
nodes = (
"582 538 LINE",
"615 494 OFFCURVE",
"634 431 OFFCURVE",
"634 343 CURVE SMOOTH",
"634 145 OFFCURVE",
"541 69 OFFCURVE",
"389 69 CURVE SMOOTH",
"333 69 OFFCURVE",
"286 79 OFFCURVE",
"248 102 CURVE"
);
},
{
closed = 1;
nodes = (
"418 737 LINE",
"526 866 LINE",
"525 869 LINE",
"429 869 LINE",
"343 737 LINE"
);
}
);
};
components = (
{
name = acute;
transform = "{1, 0, 0, 1, 268, 146}";
}
);
layerId = UUID0;
paths = (
{
closed = 1;
nodes = (
"132 -49 LINE",
"194 32 LINE",
"247 2 OFFCURVE",
"312 -12 OFFCURVE",
"389 -12 CURVE SMOOTH",
"603 -12 OFFCURVE",
"732 105 OFFCURVE",
"732 343 CURVE SMOOTH",
"732 463 OFFCURVE",
"699 553 OFFCURVE",
"638 612 CURVE",
"732 735 LINE",
"648 735 LINE",
"585 652 LINE",
"532 683 OFFCURVE",
"466 698 OFFCURVE",
"389 698 CURVE SMOOTH",
"175 698 OFFCURVE",
"47 581 OFFCURVE",
"47 343 CURVE SMOOTH",
"47 222 OFFCURVE",
"80 132 OFFCURVE",
"141 73 CURVE",
"47 -49 LINE"
);
},
{
closed = 1;
nodes = (
"197 147 LINE",
"163 191 OFFCURVE",
"145 254 OFFCURVE",
"145 343 CURVE SMOOTH",
"145 541 OFFCURVE",
"238 617 OFFCURVE",
"389 617 CURVE SMOOTH",
"445 617 OFFCURVE",
"493 606 OFFCURVE",
"532 583 CURVE"
);
},
{
closed = 1;
nodes = (
"582 538 LINE",
"615 494 OFFCURVE",
"634 431 OFFCURVE",
"634 343 CURVE SMOOTH",
"634 145 OFFCURVE",
"541 69 OFFCURVE",
"389 69 CURVE SMOOTH",
"333 69 OFFCURVE",
"286 79 OFFCURVE",
"248 102 CURVE"
);
}
);
width = 778;
},
{
background = {
paths = (
{
closed = 1;
nodes = (
"448 737 LINE",
"556 866 LINE",
"555 869 LINE",
"422 869 LINE",
"343 737 LINE"
);
},
{
closed = 1;
nodes = (
"142 -49 LINE",
"200 28 LINE",
"252 1 OFFCURVE",
"315 -12 OFFCURVE",
"389 -12 CURVE SMOOTH",
"605 -12 OFFCURVE",
"737 101 OFFCURVE",
"737 343 CURVE SMOOTH",
"737 466 OFFCURVE",
"703 556 OFFCURVE",
"641 614 CURVE",
"732 735 LINE",
"638 735 LINE",
"580 657 LINE",
"527 685 OFFCURVE",
"463 698 OFFCURVE",
"389 698 CURVE SMOOTH",
"174 698 OFFCURVE",
"42 585 OFFCURVE",
"42 343 CURVE SMOOTH",
"42 220 OFFCURVE",
"76 130 OFFCURVE",
"138 72 CURVE",
"47 -49 LINE"
);
},
{
closed = 1;
nodes = (
"225 188 LINE",
"202 224 OFFCURVE",
"191 271 OFFCURVE",
"191 328 CURVE SMOOTH",
"191 358 LINE",
"191 494 OFFCURVE",
"257 575 OFFCURVE",
"389 575 CURVE SMOOTH",
"433 575 OFFCURVE",
"469 566 OFFCURVE",
"498 549 CURVE"
);
},
{
closed = 1;
nodes = (
"588 328 LINE",
"588 192 OFFCURVE",
"522 111 OFFCURVE",
"389 111 CURVE SMOOTH",
"346 111 OFFCURVE",
"310 119 OFFCURVE",
"281 136 CURVE",
"553 498 LINE",
"576 462 OFFCURVE",
"588 415 OFFCURVE",
"588 358 CURVE"
);
}
);
};
components = (
{
name = acute;
transform = "{1, 0, 0, 1, 268, 146}";
},
{
name = Oslash;
}
);
layerId = "4E7A989A-9DEE-440F-9785-5637679BA6FC";
width = 778;
}
);
unicode = 01FE;
},
{
color = 10;
glyphname = Otilde;
lastChange = "2015-02-16 21:47:37 +0000";
layers = (
{
background = {
paths = (
{
closed = 1;
nodes = (
"603 -12 OFFCURVE",
"732 105 OFFCURVE",
"732 343 CURVE SMOOTH",
"732 581 OFFCURVE",
"603 698 OFFCURVE",
"389 698 CURVE SMOOTH",
"175 698 OFFCURVE",
"47 581 OFFCURVE",
"47 343 CURVE SMOOTH",
"47 105 OFFCURVE",
"175 -12 OFFCURVE",
"389 -12 CURVE SMOOTH"
);
},
{
closed = 1;
nodes = (
"238 69 OFFCURVE",
"145 145 OFFCURVE",
"145 343 CURVE SMOOTH",
"145 541 OFFCURVE",
"238 617 OFFCURVE",
"389 617 CURVE SMOOTH",
"541 617 OFFCURVE",
"634 541 OFFCURVE",
"634 343 CURVE SMOOTH",
"634 145 OFFCURVE",
"541 69 OFFCURVE",
"389 69 CURVE SMOOTH"
);
},
{
closed = 1;
nodes = (
"487 852 LINE",
"485 829 OFFCURVE",
"474 821 OFFCURVE",
"459 821 CURVE SMOOTH",
"409 821 OFFCURVE",
"366 852 OFFCURVE",
"310 852 CURVE SMOOTH",
"250 852 OFFCURVE",
"225 804 OFFCURVE",
"225 748 CURVE",
"290 748 LINE",
"292 771 OFFCURVE",
"303 779 OFFCURVE",
"318 779 CURVE SMOOTH",
"368 779 OFFCURVE",
"411 748 OFFCURVE",
"467 748 CURVE SMOOTH",
"527 748 OFFCURVE",
"552 796 OFFCURVE",
"552 852 CURVE"
);
}
);
};
components = (
{
name = O;
},
{
name = tilde;
transform = "{1, 0, 0, 1, 222, 145}";
}
);
layerId = UUID0;
width = 778;
},
{
background = {
paths = (
{
closed = 1;
nodes = (
"605 -12 OFFCURVE",
"737 101 OFFCURVE",
"737 343 CURVE SMOOTH",
"737 585 OFFCURVE",
"605 698 OFFCURVE",
"389 698 CURVE SMOOTH",
"174 698 OFFCURVE",
"42 585 OFFCURVE",
"42 343 CURVE SMOOTH",
"42 101 OFFCURVE",
"174 -12 OFFCURVE",
"389 -12 CURVE SMOOTH"
);
},
{
closed = 1;
nodes = (
"257 111 OFFCURVE",
"191 192 OFFCURVE",
"191 328 CURVE SMOOTH",
"191 358 LINE",
"191 494 OFFCURVE",
"257 575 OFFCURVE",
"389 575 CURVE SMOOTH",
"522 575 OFFCURVE",
"588 494 OFFCURVE",
"588 358 CURVE SMOOTH",
"588 328 LINE",
"588 192 OFFCURVE",
"522 111 OFFCURVE",
"389 111 CURVE SMOOTH"
);
},
{
closed = 1;
nodes = (
"487 859 LINE",
"483 831 OFFCURVE",
"471 822 OFFCURVE",
"452 822 CURVE SMOOTH",
"407 822 OFFCURVE",
"368 859 OFFCURVE",
"319 859 CURVE SMOOTH",
"249 859 OFFCURVE",
"221 802 OFFCURVE",
"221 737 CURVE",
"291 737 LINE",
"295 764 OFFCURVE",
"307 774 OFFCURVE",
"326 774 CURVE SMOOTH",
"371 774 OFFCURVE",
"410 737 OFFCURVE",
"458 737 CURVE SMOOTH",
"529 737 OFFCURVE",
"557 794 OFFCURVE",
"557 859 CURVE"
);
}
);
};
components = (
{
name = O;
},
{
name = tilde;
transform = "{1, 0, 0, 1, 222, 145}";
}
);
layerId = "4E7A989A-9DEE-440F-9785-5637679BA6FC";
width = 778;
}
);
leftKerningGroup = O;
rightKerningGroup = O;
unicode = 00D5;
},
{
color = 10;
glyphname = OE;
lastChange = "2015-02-16 21:47:37 +0000";
layers = (
{
anchors = (
{
name = top;
position = "{500, 671}";
}
);
background = {
paths = (
{
closed = 1;
nodes = (
"946 0 LINE",
"946 80 LINE",
"602 80 LINE",
"602 311 LINE",
"884 311 LINE",
"884 391 LINE",
"602 391 LINE",
"602 606 LINE",
"939 606 LINE",
"939 686 LINE",
"507 686 LINE",
"507 610 LINE",
"462 668 OFFCURVE",
"400 698 OFFCURVE",
"321 698 CURVE SMOOTH",
"149 698 OFFCURVE",
"47 581 OFFCURVE",
"47 343 CURVE SMOOTH",
"47 105 OFFCURVE",
"149 -12 OFFCURVE",
"321 -12 CURVE SMOOTH",
"400 -12 OFFCURVE",
"462 17 OFFCURVE",
"507 76 CURVE",
"507 0 LINE"
);
},
{
closed = 1;
nodes = (
"211 69 OFFCURVE",
"145 142 OFFCURVE",
"145 343 CURVE SMOOTH",
"145 544 OFFCURVE",
"211 617 OFFCURVE",
"334 617 CURVE SMOOTH",
"441 617 OFFCURVE",
"507 544 OFFCURVE",
"507 343 CURVE SMOOTH",
"507 142 OFFCURVE",
"441 69 OFFCURVE",
"334 69 CURVE SMOOTH"
);
}
);
};
layerId = UUID0;
paths = (
{
closed = 1;
nodes = (
"946 0 LINE",
"946 80 LINE",
"602 80 LINE",
"602 311 LINE",
"884 311 LINE",
"884 391 LINE",
"602 391 LINE",
"602 606 LINE",
"939 606 LINE",
"939 686 LINE",
"507 686 LINE",
"507 610 LINE",
"462 668 OFFCURVE",
"400 698 OFFCURVE",
"321 698 CURVE SMOOTH",
"149 698 OFFCURVE",
"47 581 OFFCURVE",
"47 343 CURVE SMOOTH",
"47 105 OFFCURVE",
"149 -12 OFFCURVE",
"321 -12 CURVE SMOOTH",
"400 -12 OFFCURVE",
"462 17 OFFCURVE",
"507 76 CURVE",
"507 0 LINE"
);
},
{
closed = 1;
nodes = (
"211 69 OFFCURVE",
"145 142 OFFCURVE",
"145 343 CURVE SMOOTH",
"145 544 OFFCURVE",
"211 617 OFFCURVE",
"334 617 CURVE SMOOTH",
"441 617 OFFCURVE",
"507 544 OFFCURVE",
"507 343 CURVE SMOOTH",
"507 142 OFFCURVE",
"441 69 OFFCURVE",
"334 69 CURVE SMOOTH"
);
}
);
width = 1000;
},
{
anchors = (
{
name = top;
position = "{500, 671}";
}
);
background = {
paths = (
{
closed = 1;
nodes = (
"945 0 LINE",
"945 123 LINE",
"635 123 LINE",
"635 289 LINE",
"895 289 LINE",
"895 412 LINE",
"635 412 LINE",
"635 563 LINE",
"939 563 LINE",
"939 686 LINE",
"490 686 LINE",
"490 632 LINE",
"443 677 OFFCURVE",
"386 698 OFFCURVE",
"313 698 CURVE SMOOTH",
"144 698 OFFCURVE",
"42 575 OFFCURVE",
"42 343 CURVE SMOOTH",
"42 111 OFFCURVE",
"144 -12 OFFCURVE",
"313 -12 CURVE SMOOTH",
"382 -12 OFFCURVE",
"441 9 OFFCURVE",
"490 53 CURVE",
"490 0 LINE"
);
},
{
closed = 1;
nodes = (
"235 111 OFFCURVE",
"191 187 OFFCURVE",
"191 343 CURVE SMOOTH",
"191 499 OFFCURVE",
"235 575 OFFCURVE",
"343 575 CURVE SMOOTH",
"434 575 OFFCURVE",
"490 513 OFFCURVE",
"490 343 CURVE SMOOTH",
"490 173 OFFCURVE",
"434 111 OFFCURVE",
"343 111 CURVE SMOOTH"
);
}
);
};
layerId = "4E7A989A-9DEE-440F-9785-5637679BA6FC";
paths = (
{
closed = 1;
nodes = (
"945 0 LINE",
"945 123 LINE",
"635 123 LINE",
"635 289 LINE",
"895 289 LINE",
"895 412 LINE",
"635 412 LINE",
"635 563 LINE",
"939 563 LINE",
"939 686 LINE",
"490 686 LINE",
"490 632 LINE",
"443 677 OFFCURVE",
"386 698 OFFCURVE",
"313 698 CURVE SMOOTH",
"144 698 OFFCURVE",
"42 575 OFFCURVE",
"42 343 CURVE SMOOTH",
"42 111 OFFCURVE",
"144 -12 OFFCURVE",
"313 -12 CURVE SMOOTH",
"382 -12 OFFCURVE",
"441 9 OFFCURVE",
"490 53 CURVE",
"490 0 LINE"
);
},
{
closed = 1;
nodes = (
"235 111 OFFCURVE",
"191 187 OFFCURVE",
"191 343 CURVE SMOOTH",
"191 499 OFFCURVE",
"235 575 OFFCURVE",
"343 575 CURVE SMOOTH",
"434 575 OFFCURVE",
"490 513 OFFCURVE",
"490 343 CURVE SMOOTH",
"490 173 OFFCURVE",
"434 111 OFFCURVE",
"343 111 CURVE SMOOTH"
);
}
);
width = 1000;
}
);
leftKerningGroup = O;
unicode = 0152;
},
{
color = 10;
glyphname = P;
lastChange = "2015-02-12 03:02:41 +0000";
layers = (
{
anchors = (
{
name = bottom;
position = "{334, 0}";
},
{
name = top;
position = "{334, 671}";
}
);
background = {
paths = (
{
closed = 1;
nodes = (
"174 0 LINE",
"174 263 LINE",
"413 263 LINE",
"544 263 OFFCURVE",
"626 349 OFFCURVE",
"626 477 CURVE SMOOTH",
"626 600 OFFCURVE",
"554 686 OFFCURVE",
"413 686 CURVE SMOOTH",
"79 686 LINE",
"79 0 LINE"
);
},
{
closed = 1;
nodes = (
"174 346 LINE",
"174 603 LINE",
"408 603 LINE",
"489 603 OFFCURVE",
"530 556 OFFCURVE",
"530 476 CURVE SMOOTH",
"530 395 OFFCURVE",
"482 346 OFFCURVE",
"408 346 CURVE SMOOTH"
);
}
);
};
layerId = UUID0;
paths = (
{
closed = 1;
nodes = (
"174 0 LINE",
"174 263 LINE",
"413 263 LINE",
"544 263 OFFCURVE",
"626 349 OFFCURVE",
"626 477 CURVE SMOOTH",
"626 600 OFFCURVE",
"554 686 OFFCURVE",
"413 686 CURVE SMOOTH",
"79 686 LINE",
"79 0 LINE"
);
},
{
closed = 1;
nodes = (
"174 346 LINE",
"174 603 LINE",
"408 603 LINE",
"489 603 OFFCURVE",
"530 556 OFFCURVE",
"530 476 CURVE SMOOTH",
"530 395 OFFCURVE",
"482 346 OFFCURVE",
"408 346 CURVE SMOOTH"
);
}
);
width = 667;
},
{
anchors = (
{
name = bottom;
position = "{334, 0}";
},
{
name = top;
position = "{334, 671}";
}
);
background = {
paths = (
{
closed = 1;
nodes = (
"212 0 LINE",
"212 236 LINE",
"384 236 LINE",
"547 236 OFFCURVE",
"625 323 OFFCURVE",
"625 462 CURVE SMOOTH",
"625 601 OFFCURVE",
"550 686 OFFCURVE",
"394 686 CURVE SMOOTH",
"67 686 LINE",
"67 0 LINE"
);
},
{
closed = 1;
nodes = (
"212 359 LINE",
"212 563 LINE",
"381 563 LINE",
"444 563 OFFCURVE",
"478 526 OFFCURVE",
"478 462 CURVE SMOOTH",
"478 398 OFFCURVE",
"444 359 OFFCURVE",
"381 359 CURVE SMOOTH"
);
}
);
};
layerId = "4E7A989A-9DEE-440F-9785-5637679BA6FC";
paths = (
{
closed = 1;
nodes = (
"212 0 LINE",
"212 236 LINE",
"384 236 LINE",
"547 236 OFFCURVE",
"625 323 OFFCURVE",
"625 462 CURVE SMOOTH",
"625 601 OFFCURVE",
"550 686 OFFCURVE",
"394 686 CURVE SMOOTH",
"67 686 LINE",
"67 0 LINE"
);
},
{
closed = 1;
nodes = (
"212 359 LINE",
"212 563 LINE",
"381 563 LINE",
"444 563 OFFCURVE",
"478 526 OFFCURVE",
"478 462 CURVE SMOOTH",
"478 398 OFFCURVE",
"444 359 OFFCURVE",
"381 359 CURVE SMOOTH"
);
}
);
width = 667;
}
);
unicode = 0050;
},
{
color = 10;
glyphname = Thorn;
lastChange = "2015-02-12 01:36:50 +0000";
layers = (
{
background = {
paths = (
{
closed = 1;
nodes = (
"413 144 LINE",
"544 144 OFFCURVE",
"626 230 OFFCURVE",
"626 358 CURVE SMOOTH",
"626 481 OFFCURVE",
"554 567 OFFCURVE",
"413 567 CURVE SMOOTH",
"174 567 LINE",
"174 686 LINE",
"79 686 LINE",
"79 0 LINE",
"174 0 LINE",
"174 144 LINE"
);
},
{
closed = 1;
nodes = (
"174 227 LINE",
"174 484 LINE",
"408 484 LINE",
"489 484 OFFCURVE",
"530 437 OFFCURVE",
"530 357 CURVE SMOOTH",
"530 276 OFFCURVE",
"482 227 OFFCURVE",
"408 227 CURVE SMOOTH"
);
}
);
};
layerId = UUID0;
paths = (
{
closed = 1;
nodes = (
"413 144 LINE",
"544 144 OFFCURVE",
"626 230 OFFCURVE",
"626 358 CURVE SMOOTH",
"626 481 OFFCURVE",
"554 567 OFFCURVE",
"413 567 CURVE SMOOTH",
"174 567 LINE",
"174 686 LINE",
"79 686 LINE",
"79 0 LINE",
"174 0 LINE",
"174 144 LINE"
);
},
{
closed = 1;
nodes = (
"174 227 LINE",
"174 484 LINE",
"408 484 LINE",
"489 484 OFFCURVE",
"530 437 OFFCURVE",
"530 357 CURVE SMOOTH",
"530 276 OFFCURVE",
"482 227 OFFCURVE",
"408 227 CURVE SMOOTH"
);
}
);
width = 667;
},
{
background = {
paths = (
{
closed = 1;
nodes = (
"384 129 LINE",
"547 129 OFFCURVE",
"625 216 OFFCURVE",
"625 355 CURVE SMOOTH",
"625 494 OFFCURVE",
"550 579 OFFCURVE",
"394 579 CURVE SMOOTH",
"212 579 LINE",
"212 686 LINE",
"67 686 LINE",
"67 0 LINE",
"212 0 LINE",
"212 129 LINE"
);
},
{
closed = 1;
nodes = (
"212 252 LINE",
"212 456 LINE",
"381 456 LINE",
"444 456 OFFCURVE",
"478 419 OFFCURVE",
"478 355 CURVE SMOOTH",
"478 291 OFFCURVE",
"444 252 OFFCURVE",
"381 252 CURVE SMOOTH"
);
}
);
};
layerId = "4E7A989A-9DEE-440F-9785-5637679BA6FC";
paths = (
{
closed = 1;
nodes = (
"384 129 LINE",
"547 129 OFFCURVE",
"625 216 OFFCURVE",
"625 355 CURVE SMOOTH",
"625 494 OFFCURVE",
"550 579 OFFCURVE",
"394 579 CURVE SMOOTH",
"212 579 LINE",
"212 686 LINE",
"67 686 LINE",
"67 0 LINE",
"212 0 LINE",
"212 129 LINE"
);
},
{
closed = 1;
nodes = (
"212 252 LINE",
"212 456 LINE",
"381 456 LINE",
"444 456 OFFCURVE",
"478 419 OFFCURVE",
"478 355 CURVE SMOOTH",
"478 291 OFFCURVE",
"444 252 OFFCURVE",
"381 252 CURVE SMOOTH"
);
}
);
width = 667;
}
);
unicode = 00DE;
},
{
color = 10;
glyphname = Q;
lastChange = "2015-02-16 21:47:37 +0000";
layers = (
{
anchors = (
{
name = bottom;
position = "{389, 0}";
},
{
name = top;
position = "{389, 671}";
}
);
background = {
paths = (
{
closed = 1;
nodes = (
"693 -130 LINE",
"545 14 LINE",
"664 61 OFFCURVE",
"732 170 OFFCURVE",
"732 343 CURVE SMOOTH",
"732 581 OFFCURVE",
"603 698 OFFCURVE",
"389 698 CURVE SMOOTH",
"175 698 OFFCURVE",
"47 581 OFFCURVE",
"47 343 CURVE SMOOTH",
"47 105 OFFCURVE",
"175 -12 OFFCURVE",
"389 -12 CURVE SMOOTH",
"405 -12 OFFCURVE",
"421 -11 OFFCURVE",
"436 -10 CURVE",
"559 -130 LINE"
);
},
{
closed = 1;
nodes = (
"238 69 OFFCURVE",
"145 145 OFFCURVE",
"145 343 CURVE SMOOTH",
"145 541 OFFCURVE",
"238 617 OFFCURVE",
"389 617 CURVE SMOOTH",
"541 617 OFFCURVE",
"634 541 OFFCURVE",
"634 343 CURVE SMOOTH",
"634 145 OFFCURVE",
"541 69 OFFCURVE",
"389 69 CURVE SMOOTH"
);
}
);
};
layerId = UUID0;
paths = (
{
closed = 1;
nodes = (
"693 -130 LINE",
"545 14 LINE",
"664 61 OFFCURVE",
"732 170 OFFCURVE",
"732 343 CURVE SMOOTH",
"732 581 OFFCURVE",
"603 698 OFFCURVE",
"389 698 CURVE SMOOTH",
"175 698 OFFCURVE",
"47 581 OFFCURVE",
"47 343 CURVE SMOOTH",
"47 105 OFFCURVE",
"175 -12 OFFCURVE",
"389 -12 CURVE SMOOTH",
"405 -12 OFFCURVE",
"421 -11 OFFCURVE",
"436 -10 CURVE",
"559 -130 LINE"
);
},
{
closed = 1;
nodes = (
"238 69 OFFCURVE",
"145 145 OFFCURVE",
"145 343 CURVE SMOOTH",
"145 541 OFFCURVE",
"238 617 OFFCURVE",
"389 617 CURVE SMOOTH",
"541 617 OFFCURVE",
"634 541 OFFCURVE",
"634 343 CURVE SMOOTH",
"634 145 OFFCURVE",
"541 69 OFFCURVE",
"389 69 CURVE SMOOTH"
);
}
);
width = 778;
},
{
anchors = (
{
name = bottom;
position = "{389, 0}";
},
{
name = top;
position = "{389, 671}";
}
);
background = {
paths = (
{
closed = 1;
nodes = (
"718 -130 LINE",
"562 20 LINE",
"673 69 OFFCURVE",
"737 175 OFFCURVE",
"737 343 CURVE SMOOTH",
"737 585 OFFCURVE",
"605 698 OFFCURVE",
"389 698 CURVE SMOOTH",
"174 698 OFFCURVE",
"42 585 OFFCURVE",
"42 343 CURVE SMOOTH",
"42 101 OFFCURVE",
"174 -12 OFFCURVE",
"389 -12 CURVE SMOOTH",
"398 -12 OFFCURVE",
"407 -12 OFFCURVE",
"416 -11 CURVE",
"527 -130 LINE"
);
},
{
closed = 1;
nodes = (
"588 328 LINE",
"588 192 OFFCURVE",
"522 111 OFFCURVE",
"389 111 CURVE SMOOTH",
"257 111 OFFCURVE",
"191 192 OFFCURVE",
"191 328 CURVE SMOOTH",
"191 358 LINE",
"191 494 OFFCURVE",
"257 575 OFFCURVE",
"389 575 CURVE SMOOTH",
"522 575 OFFCURVE",
"588 494 OFFCURVE",
"588 358 CURVE SMOOTH"
);
}
);
};
layerId = "4E7A989A-9DEE-440F-9785-5637679BA6FC";
paths = (
{
closed = 1;
nodes = (
"718 -130 LINE",
"562 20 LINE",
"673 69 OFFCURVE",
"737 175 OFFCURVE",
"737 343 CURVE SMOOTH",
"737 585 OFFCURVE",
"605 698 OFFCURVE",
"389 698 CURVE SMOOTH",
"174 698 OFFCURVE",
"42 585 OFFCURVE",
"42 343 CURVE SMOOTH",
"42 101 OFFCURVE",
"174 -12 OFFCURVE",
"389 -12 CURVE SMOOTH",
"398 -12 OFFCURVE",
"407 -12 OFFCURVE",
"416 -11 CURVE",
"527 -130 LINE"
);
},
{
closed = 1;
nodes = (
"588 328 LINE",
"588 192 OFFCURVE",
"522 111 OFFCURVE",
"389 111 CURVE SMOOTH",
"257 111 OFFCURVE",
"191 192 OFFCURVE",
"191 328 CURVE SMOOTH",
"191 358 LINE",
"191 494 OFFCURVE",
"257 575 OFFCURVE",
"389 575 CURVE SMOOTH",
"522 575 OFFCURVE",
"588 494 OFFCURVE",
"588 358 CURVE SMOOTH"
);
}
);
width = 778;
}
);
leftKerningGroup = O;
rightKerningGroup = O;
unicode = 0051;
},
{
color = 10;
glyphname = R;
lastChange = "2015-02-16 21:49:54 +0000";
layers = (
{
anchors = (
{
name = bottom;
position = "{361, 0}";
},
{
name = top;
position = "{361, 671}";
}
);
background = {
paths = (
{
closed = 1;
nodes = (
"174 0 LINE",
"174 283 LINE",
"426 283 LINE",
"575 0 LINE",
"681 0 LINE",
"523 297 LINE",
"602 326 OFFCURVE",
"649 397 OFFCURVE",
"649 491 CURVE SMOOTH",
"649 606 OFFCURVE",
"577 686 OFFCURVE",
"436 686 CURVE SMOOTH",
"79 686 LINE",
"79 0 LINE"
);
},
{
closed = 1;
nodes = (
"174 366 LINE",
"174 603 LINE",
"431 603 LINE SMOOTH",
"512 603 OFFCURVE",
"553 561 OFFCURVE",
"553 490 CURVE SMOOTH",
"553 412 OFFCURVE",
"505 366 OFFCURVE",
"431 366 CURVE SMOOTH"
);
}
);
};
layerId = UUID0;
paths = (
{
closed = 1;
nodes = (
"174 0 LINE",
"174 283 LINE",
"426 283 LINE",
"575 0 LINE",
"681 0 LINE",
"523 297 LINE",
"602 326 OFFCURVE",
"649 397 OFFCURVE",
"649 491 CURVE SMOOTH",
"649 606 OFFCURVE",
"577 686 OFFCURVE",
"436 686 CURVE SMOOTH",
"79 686 LINE",
"79 0 LINE"
);
},
{
closed = 1;
nodes = (
"174 366 LINE",
"174 603 LINE",
"431 603 LINE SMOOTH",
"512 603 OFFCURVE",
"553 561 OFFCURVE",
"553 490 CURVE SMOOTH",
"553 412 OFFCURVE",
"505 366 OFFCURVE",
"431 366 CURVE SMOOTH"
);
}
);
width = 722;
},
{
anchors = (
{
name = bottom;
position = "{361, 0}";
},
{
name = top;
position = "{361, 671}";
}
);
background = {
paths = (
{
closed = 1;
nodes = (
"682 0 LINE",
"542 279 LINE",
"624 312 OFFCURVE",
"662 379 OFFCURVE",
"662 471 CURVE SMOOTH",
"662 604 OFFCURVE",
"587 686 OFFCURVE",
"431 686 CURVE SMOOTH",
"67 686 LINE",
"67 0 LINE",
"212 0 LINE",
"212 256 LINE",
"404 256 LINE",
"525 0 LINE"
);
},
{
closed = 1;
nodes = (
"418 563 LINE",
"481 563 OFFCURVE",
"515 529 OFFCURVE",
"515 471 CURVE SMOOTH",
"515 413 OFFCURVE",
"481 377 OFFCURVE",
"418 377 CURVE SMOOTH",
"212 377 LINE",
"212 563 LINE"
);
}
);
};
layerId = "4E7A989A-9DEE-440F-9785-5637679BA6FC";
paths = (
{
closed = 1;
nodes = (
"682 0 LINE",
"542 279 LINE",
"624 312 OFFCURVE",
"662 379 OFFCURVE",
"662 471 CURVE SMOOTH",
"662 604 OFFCURVE",
"587 686 OFFCURVE",
"431 686 CURVE SMOOTH",
"67 686 LINE",
"67 0 LINE",
"212 0 LINE",
"212 256 LINE",
"404 256 LINE",
"525 0 LINE"
);
},
{
closed = 1;
nodes = (
"418 563 LINE",
"481 563 OFFCURVE",
"515 529 OFFCURVE",
"515 471 CURVE SMOOTH",
"515 413 OFFCURVE",
"481 377 OFFCURVE",
"418 377 CURVE SMOOTH",
"212 377 LINE",
"212 563 LINE"
);
}
);
width = 722;
}
);
rightKerningGroup = R;
unicode = 0052;
},
{
color = 10;
glyphname = Racute;
lastChange = "2015-02-16 21:49:54 +0000";
layers = (
{
background = {
paths = (
{
closed = 1;
nodes = (
"174 0 LINE",
"174 283 LINE",
"426 283 LINE",
"575 0 LINE",
"681 0 LINE",
"523 297 LINE",
"602 326 OFFCURVE",
"649 397 OFFCURVE",
"649 491 CURVE SMOOTH",
"649 606 OFFCURVE",
"577 686 OFFCURVE",
"436 686 CURVE SMOOTH",
"79 686 LINE",
"79 0 LINE"
);
},
{
closed = 1;
nodes = (
"174 366 LINE",
"174 603 LINE",
"431 603 LINE SMOOTH",
"512 603 OFFCURVE",
"553 561 OFFCURVE",
"553 490 CURVE SMOOTH",
"553 412 OFFCURVE",
"505 366 OFFCURVE",
"431 366 CURVE SMOOTH"
);
},
{
closed = 1;
nodes = (
"388 737 LINE",
"496 866 LINE",
"495 869 LINE",
"399 869 LINE",
"313 737 LINE"
);
}
);
};
components = (
{
name = R;
},
{
name = acute;
transform = "{1, 0, 0, 1, 248, 145}";
}
);
layerId = UUID0;
width = 722;
},
{
background = {
paths = (
{
closed = 1;
nodes = (
"682 0 LINE",
"542 279 LINE",
"624 312 OFFCURVE",
"662 379 OFFCURVE",
"662 471 CURVE SMOOTH",
"662 604 OFFCURVE",
"587 686 OFFCURVE",
"431 686 CURVE SMOOTH",
"67 686 LINE",
"67 0 LINE",
"212 0 LINE",
"212 256 LINE",
"404 256 LINE",
"525 0 LINE"
);
},
{
closed = 1;
nodes = (
"418 563 LINE",
"481 563 OFFCURVE",
"515 529 OFFCURVE",
"515 471 CURVE SMOOTH",
"515 413 OFFCURVE",
"481 377 OFFCURVE",
"418 377 CURVE SMOOTH",
"212 377 LINE",
"212 563 LINE"
);
},
{
closed = 1;
nodes = (
"395 737 LINE",
"503 866 LINE",
"502 869 LINE",
"369 869 LINE",
"290 737 LINE"
);
}
);
};
components = (
{
name = R;
},
{
name = acute;
transform = "{1, 0, 0, 1, 233, 145}";
}
);
layerId = "4E7A989A-9DEE-440F-9785-5637679BA6FC";
width = 722;
}
);
rightKerningGroup = R;
unicode = 0154;
},
{
color = 10;
glyphname = Rcaron;
lastChange = "2015-02-16 21:49:54 +0000";
layers = (
{
background = {
paths = (
{
closed = 1;
nodes = (
"174 0 LINE",
"174 283 LINE",
"426 283 LINE",
"575 0 LINE",
"681 0 LINE",
"523 297 LINE",
"602 326 OFFCURVE",
"649 397 OFFCURVE",
"649 491 CURVE SMOOTH",
"649 606 OFFCURVE",
"577 686 OFFCURVE",
"436 686 CURVE SMOOTH",
"79 686 LINE",
"79 0 LINE"
);
},
{
closed = 1;
nodes = (
"174 366 LINE",
"174 603 LINE",
"431 603 LINE SMOOTH",
"512 603 OFFCURVE",
"553 561 OFFCURVE",
"553 490 CURVE SMOOTH",
"553 412 OFFCURVE",
"505 366 OFFCURVE",
"431 366 CURVE SMOOTH"
);
},
{
closed = 1;
nodes = (
"409 737 LINE",
"514 872 LINE",
"424 872 LINE",
"367 793 LINE",
"309 872 LINE",
"219 872 LINE",
"325 737 LINE"
);
}
);
};
components = (
{
name = R;
},
{
name = caron;
transform = "{1, 0, 0, 1, 194, 145}";
}
);
layerId = UUID0;
width = 722;
},
{
background = {
paths = (
{
closed = 1;
nodes = (
"682 0 LINE",
"542 279 LINE",
"624 312 OFFCURVE",
"662 379 OFFCURVE",
"662 471 CURVE SMOOTH",
"662 604 OFFCURVE",
"587 686 OFFCURVE",
"431 686 CURVE SMOOTH",
"67 686 LINE",
"67 0 LINE",
"212 0 LINE",
"212 256 LINE",
"404 256 LINE",
"525 0 LINE"
);
},
{
closed = 1;
nodes = (
"418 563 LINE",
"481 563 OFFCURVE",
"515 529 OFFCURVE",
"515 471 CURVE SMOOTH",
"515 413 OFFCURVE",
"481 377 OFFCURVE",
"418 377 CURVE SMOOTH",
"212 377 LINE",
"212 563 LINE"
);
},
{
closed = 1;
nodes = (
"428 737 LINE",
"533 872 LINE",
"422 872 LINE",
"367 803 LINE",
"311 872 LINE",
"200 872 LINE",
"306 737 LINE"
);
}
);
};
components = (
{
name = R;
},
{
name = caron;
transform = "{1, 0, 0, 1, 194, 145}";
}
);
layerId = "4E7A989A-9DEE-440F-9785-5637679BA6FC";
width = 722;
}
);
rightKerningGroup = R;
unicode = 0158;
},
{
color = 10;
glyphname = Rcommaaccent;
lastChange = "2015-02-16 21:49:54 +0000";
layers = (
{
background = {
paths = (
{
closed = 1;
nodes = (
"372 -239 LINE",
"413 -127 LINE",
"413 -43 LINE",
"328 -43 LINE",
"328 -134 LINE",
"362 -134 LINE",
"328 -239 LINE"
);
},
{
closed = 1;
nodes = (
"174 0 LINE",
"174 283 LINE",
"426 283 LINE",
"575 0 LINE",
"681 0 LINE",
"523 297 LINE",
"602 326 OFFCURVE",
"649 397 OFFCURVE",
"649 491 CURVE SMOOTH",
"649 606 OFFCURVE",
"577 686 OFFCURVE",
"436 686 CURVE SMOOTH",
"79 686 LINE",
"79 0 LINE"
);
},
{
closed = 1;
nodes = (
"174 366 LINE",
"174 603 LINE",
"431 603 LINE SMOOTH",
"512 603 OFFCURVE",
"553 561 OFFCURVE",
"553 490 CURVE SMOOTH",
"553 412 OFFCURVE",
"505 366 OFFCURVE",
"431 366 CURVE SMOOTH"
);
}
);
};
components = (
{
name = R;
},
{
name = commaaccent;
transform = "{1, 0, 0, 1, 250, 0}";
}
);
layerId = UUID0;
width = 722;
},
{
background = {
paths = (
{
closed = 1;
nodes = (
"373 -250 LINE",
"439 -141 LINE",
"439 -55 LINE",
"301 -55 LINE",
"301 -153 LINE",
"356 -153 LINE",
"301 -250 LINE"
);
},
{
closed = 1;
nodes = (
"682 0 LINE",
"542 279 LINE",
"624 312 OFFCURVE",
"662 379 OFFCURVE",
"662 471 CURVE SMOOTH",
"662 604 OFFCURVE",
"587 686 OFFCURVE",
"431 686 CURVE SMOOTH",
"67 686 LINE",
"67 0 LINE",
"212 0 LINE",
"212 256 LINE",
"404 256 LINE",
"525 0 LINE"
);
},
{
closed = 1;
nodes = (
"418 563 LINE",
"481 563 OFFCURVE",
"515 529 OFFCURVE",
"515 471 CURVE SMOOTH",
"515 413 OFFCURVE",
"481 377 OFFCURVE",
"418 377 CURVE SMOOTH",
"212 377 LINE",
"212 563 LINE"
);
}
);
};
components = (
{
name = R;
},
{
name = commaaccent;
transform = "{1, 0, 0, 1, 195, 0}";
}
);
layerId = "4E7A989A-9DEE-440F-9785-5637679BA6FC";
width = 722;
}
);
rightKerningGroup = R;
unicode = 0156;
},
{
color = 10;
glyphname = S;
lastChange = "2015-02-12 03:02:41 +0000";
layers = (
{
anchors = (
{
name = bottom;
position = "{334, 0}";
},
{
name = top;
position = "{334, 671}";
}
);
background = {
paths = (
{
closed = 1;
nodes = (
"596 493 LINE",
"596 505 LINE SMOOTH",
"596 642 OFFCURVE",
"479 698 OFFCURVE",
"333 698 CURVE SMOOTH",
"186 698 OFFCURVE",
"66 640 OFFCURVE",
"66 514 CURVE SMOOTH",
"66 266 OFFCURVE",
"521 359 OFFCURVE",
"521 183 CURVE SMOOTH",
"521 109 OFFCURVE",
"452 69 OFFCURVE",
"327 69 CURVE SMOOTH",
"219 69 OFFCURVE",
"142 109 OFFCURVE",
"142 193 CURVE SMOOTH",
"142 199 OFFCURVE",
"144 213 OFFCURVE",
"144 214 CURVE",
"50 214 LINE",
"50 211 OFFCURVE",
"49 201 OFFCURVE",
"49 194 CURVE SMOOTH",
"49 43 OFFCURVE",
"179 -12 OFFCURVE",
"332 -12 CURVE SMOOTH",
"495 -12 OFFCURVE",
"616 44 OFFCURVE",
"616 198 CURVE SMOOTH",
"616 442 OFFCURVE",
"162 357 OFFCURVE",
"162 521 CURVE SMOOTH",
"162 587 OFFCURVE",
"235 617 OFFCURVE",
"336 617 CURVE SMOOTH",
"432 617 OFFCURVE",
"503 578 OFFCURVE",
"503 508 CURVE SMOOTH",
"503 493 LINE"
);
}
);
};
layerId = UUID0;
paths = (
{
closed = 1;
nodes = (
"596 493 LINE",
"596 505 LINE SMOOTH",
"596 642 OFFCURVE",
"479 698 OFFCURVE",
"333 698 CURVE SMOOTH",
"186 698 OFFCURVE",
"66 640 OFFCURVE",
"66 514 CURVE SMOOTH",
"66 266 OFFCURVE",
"521 359 OFFCURVE",
"521 183 CURVE SMOOTH",
"521 109 OFFCURVE",
"452 69 OFFCURVE",
"327 69 CURVE SMOOTH",
"219 69 OFFCURVE",
"142 109 OFFCURVE",
"142 193 CURVE SMOOTH",
"142 199 OFFCURVE",
"144 213 OFFCURVE",
"144 214 CURVE",
"50 214 LINE",
"50 211 OFFCURVE",
"49 201 OFFCURVE",
"49 194 CURVE SMOOTH",
"49 43 OFFCURVE",
"179 -12 OFFCURVE",
"332 -12 CURVE SMOOTH",
"495 -12 OFFCURVE",
"616 44 OFFCURVE",
"616 198 CURVE SMOOTH",
"616 442 OFFCURVE",
"162 357 OFFCURVE",
"162 521 CURVE SMOOTH",
"162 587 OFFCURVE",
"235 617 OFFCURVE",
"336 617 CURVE SMOOTH",
"432 617 OFFCURVE",
"503 578 OFFCURVE",
"503 508 CURVE SMOOTH",
"503 493 LINE"
);
}
);
width = 667;
},
{
anchors = (
{
name = bottom;
position = "{334, 0}";
},
{
name = top;
position = "{334, 671}";
}
);
background = {
paths = (
{
closed = 1;
nodes = (
"607 484 LINE",
"607 496 LINE SMOOTH",
"607 637 OFFCURVE",
"485 698 OFFCURVE",
"337 698 CURVE SMOOTH",
"176 698 OFFCURVE",
"59 636 OFFCURVE",
"59 506 CURVE SMOOTH",
"59 251 OFFCURVE",
"477 327 OFFCURVE",
"477 183 CURVE SMOOTH",
"477 142 OFFCURVE",
"441 111 OFFCURVE",
"337 111 CURVE SMOOTH",
"242 111 OFFCURVE",
"189 149 OFFCURVE",
"189 207 CURVE SMOOTH",
"189 212 OFFCURVE",
"190 221 OFFCURVE",
"190 223 CURVE",
"43 223 LINE",
"43 218 OFFCURVE",
"42 209 OFFCURVE",
"42 201 CURVE SMOOTH",
"42 60 OFFCURVE",
"177 -12 OFFCURVE",
"330 -12 CURVE SMOOTH",
"501 -12 OFFCURVE",
"623 48 OFFCURVE",
"623 202 CURVE SMOOTH",
"623 450 OFFCURVE",
"205 389 OFFCURVE",
"205 511 CURVE SMOOTH",
"205 551 OFFCURVE",
"250 575 OFFCURVE",
"335 575 CURVE SMOOTH",
"414 575 OFFCURVE",
"463 544 OFFCURVE",
"463 493 CURVE SMOOTH",
"463 484 LINE"
);
}
);
};
layerId = "4E7A989A-9DEE-440F-9785-5637679BA6FC";
paths = (
{
closed = 1;
nodes = (
"607 484 LINE",
"607 496 LINE SMOOTH",
"607 637 OFFCURVE",
"485 698 OFFCURVE",
"337 698 CURVE SMOOTH",
"176 698 OFFCURVE",
"59 636 OFFCURVE",
"59 506 CURVE SMOOTH",
"59 251 OFFCURVE",
"477 327 OFFCURVE",
"477 183 CURVE SMOOTH",
"477 142 OFFCURVE",
"441 111 OFFCURVE",
"337 111 CURVE SMOOTH",
"242 111 OFFCURVE",
"189 149 OFFCURVE",
"189 207 CURVE SMOOTH",
"189 212 OFFCURVE",
"190 221 OFFCURVE",
"190 223 CURVE",
"43 223 LINE",
"43 218 OFFCURVE",
"42 209 OFFCURVE",
"42 201 CURVE SMOOTH",
"42 60 OFFCURVE",
"177 -12 OFFCURVE",
"330 -12 CURVE SMOOTH",
"501 -12 OFFCURVE",
"623 48 OFFCURVE",
"623 202 CURVE SMOOTH",
"623 450 OFFCURVE",
"205 389 OFFCURVE",
"205 511 CURVE SMOOTH",
"205 551 OFFCURVE",
"250 575 OFFCURVE",
"335 575 CURVE SMOOTH",
"414 575 OFFCURVE",
"463 544 OFFCURVE",
"463 493 CURVE SMOOTH",
"463 484 LINE"
);
}
);
width = 667;
}
);
unicode = 0053;
},
{
color = 10;
glyphname = Sacute;
lastChange = "2015-02-12 03:02:43 +0000";
layers = (
{
background = {
paths = (
{
closed = 1;
nodes = (
"596 493 LINE",
"596 505 LINE SMOOTH",
"596 642 OFFCURVE",
"479 698 OFFCURVE",
"333 698 CURVE SMOOTH",
"186 698 OFFCURVE",
"66 640 OFFCURVE",
"66 514 CURVE SMOOTH",
"66 266 OFFCURVE",
"521 359 OFFCURVE",
"521 183 CURVE SMOOTH",
"521 109 OFFCURVE",
"452 69 OFFCURVE",
"327 69 CURVE SMOOTH",
"219 69 OFFCURVE",
"142 109 OFFCURVE",
"142 193 CURVE SMOOTH",
"142 199 OFFCURVE",
"144 213 OFFCURVE",
"144 214 CURVE",
"50 214 LINE",
"50 211 OFFCURVE",
"49 201 OFFCURVE",
"49 194 CURVE SMOOTH",
"49 43 OFFCURVE",
"179 -12 OFFCURVE",
"332 -12 CURVE SMOOTH",
"495 -12 OFFCURVE",
"616 44 OFFCURVE",
"616 198 CURVE SMOOTH",
"616 442 OFFCURVE",
"162 357 OFFCURVE",
"162 521 CURVE SMOOTH",
"162 587 OFFCURVE",
"235 617 OFFCURVE",
"336 617 CURVE SMOOTH",
"432 617 OFFCURVE",
"503 578 OFFCURVE",
"503 508 CURVE SMOOTH",
"503 493 LINE"
);
},
{
closed = 1;
nodes = (
"354 738 LINE",
"462 867 LINE",
"461 870 LINE",
"365 870 LINE",
"279 738 LINE"
);
}
);
};
components = (
{
name = S;
},
{
name = acute;
transform = "{1, 0, 0, 1, 221, 145}";
}
);
layerId = UUID0;
width = 667;
},
{
background = {
paths = (
{
closed = 1;
nodes = (
"607 484 LINE",
"607 496 LINE SMOOTH",
"607 637 OFFCURVE",
"485 698 OFFCURVE",
"337 698 CURVE SMOOTH",
"176 698 OFFCURVE",
"59 636 OFFCURVE",
"59 506 CURVE SMOOTH",
"59 251 OFFCURVE",
"477 327 OFFCURVE",
"477 183 CURVE SMOOTH",
"477 142 OFFCURVE",
"441 111 OFFCURVE",
"337 111 CURVE SMOOTH",
"242 111 OFFCURVE",
"189 149 OFFCURVE",
"189 207 CURVE SMOOTH",
"189 212 OFFCURVE",
"190 221 OFFCURVE",
"190 223 CURVE",
"43 223 LINE",
"43 218 OFFCURVE",
"42 209 OFFCURVE",
"42 201 CURVE SMOOTH",
"42 60 OFFCURVE",
"177 -12 OFFCURVE",
"330 -12 CURVE SMOOTH",
"501 -12 OFFCURVE",
"623 48 OFFCURVE",
"623 202 CURVE SMOOTH",
"623 450 OFFCURVE",
"205 389 OFFCURVE",
"205 511 CURVE SMOOTH",
"205 551 OFFCURVE",
"250 575 OFFCURVE",
"335 575 CURVE SMOOTH",
"414 575 OFFCURVE",
"463 544 OFFCURVE",
"463 493 CURVE SMOOTH",
"463 484 LINE"
);
},
{
closed = 1;
nodes = (
"384 737 LINE",
"492 866 LINE",
"491 869 LINE",
"358 869 LINE",
"279 737 LINE"
);
}
);
};
components = (
{
name = S;
},
{
name = acute;
transform = "{1, 0, 0, 1, 206, 145}";
}
);
layerId = "4E7A989A-9DEE-440F-9785-5637679BA6FC";
width = 667;
}
);
unicode = 015A;
},
{
color = 4;
glyphname = Saltillo;
lastChange = "2015-02-23 19:50:41 +0000";
layers = (
{
background = {
paths = (
{
closed = 1;
nodes = (
"120 208 LINE",
"146 440 LINE",
"146 686 LINE",
"46 686 LINE",
"46 440 LINE",
"72 208 LINE"
);
}
);
};
layerId = UUID0;
paths = (
{
closed = 1;
nodes = (
"94 208 LINE",
"146 587 LINE",
"146 686 LINE",
"46 686 LINE",
"46 208 LINE"
);
}
);
width = 171;
},
{
background = {
paths = (
{
closed = 1;
nodes = (
"177 207 LINE",
"198 439 LINE",
"198 686 LINE",
"49 686 LINE",
"49 439 LINE",
"71 207 LINE"
);
}
);
};
layerId = "4E7A989A-9DEE-440F-9785-5637679BA6FC";
paths = (
{
closed = 1;
nodes = (
"140 207 LINE",
"183 566 LINE",
"183 686 LINE",
"49 686 LINE",
"49 207 LINE"
);
}
);
width = 223;
}
);
unicode = A78B;
},
{
color = 10;
glyphname = Scaron;
lastChange = "2015-02-12 03:02:43 +0000";
layers = (
{
background = {
paths = (
{
closed = 1;
nodes = (
"596 493 LINE",
"596 505 LINE SMOOTH",
"596 642 OFFCURVE",
"479 698 OFFCURVE",
"333 698 CURVE SMOOTH",
"186 698 OFFCURVE",
"66 640 OFFCURVE",
"66 514 CURVE SMOOTH",
"66 266 OFFCURVE",
"521 359 OFFCURVE",
"521 183 CURVE SMOOTH",
"521 109 OFFCURVE",
"452 69 OFFCURVE",
"327 69 CURVE SMOOTH",
"219 69 OFFCURVE",
"142 109 OFFCURVE",
"142 193 CURVE SMOOTH",
"142 199 OFFCURVE",
"144 213 OFFCURVE",
"144 214 CURVE",
"50 214 LINE",
"50 211 OFFCURVE",
"49 201 OFFCURVE",
"49 194 CURVE SMOOTH",
"49 43 OFFCURVE",
"179 -12 OFFCURVE",
"332 -12 CURVE SMOOTH",
"495 -12 OFFCURVE",
"616 44 OFFCURVE",
"616 198 CURVE SMOOTH",
"616 442 OFFCURVE",
"162 357 OFFCURVE",
"162 521 CURVE SMOOTH",
"162 587 OFFCURVE",
"235 617 OFFCURVE",
"336 617 CURVE SMOOTH",
"432 617 OFFCURVE",
"503 578 OFFCURVE",
"503 508 CURVE SMOOTH",
"503 493 LINE"
);
},
{
closed = 1;
nodes = (
"380 738 LINE",
"485 873 LINE",
"395 873 LINE",
"338 794 LINE",
"280 873 LINE",
"190 873 LINE",
"296 738 LINE"
);
}
);
};
components = (
{
name = S;
},
{
name = caron;
transform = "{1, 0, 0, 1, 167, 145}";
}
);
layerId = UUID0;
width = 667;
},
{
background = {
paths = (
{
closed = 1;
nodes = (
"607 484 LINE",
"607 496 LINE SMOOTH",
"607 637 OFFCURVE",
"485 698 OFFCURVE",
"337 698 CURVE SMOOTH",
"176 698 OFFCURVE",
"59 636 OFFCURVE",
"59 506 CURVE SMOOTH",
"59 251 OFFCURVE",
"477 327 OFFCURVE",
"477 183 CURVE SMOOTH",
"477 142 OFFCURVE",
"441 111 OFFCURVE",
"337 111 CURVE SMOOTH",
"242 111 OFFCURVE",
"189 149 OFFCURVE",
"189 207 CURVE SMOOTH",
"189 212 OFFCURVE",
"190 221 OFFCURVE",
"190 223 CURVE",
"43 223 LINE",
"43 218 OFFCURVE",
"42 209 OFFCURVE",
"42 201 CURVE SMOOTH",
"42 60 OFFCURVE",
"177 -12 OFFCURVE",
"330 -12 CURVE SMOOTH",
"501 -12 OFFCURVE",
"623 48 OFFCURVE",
"623 202 CURVE SMOOTH",
"623 450 OFFCURVE",
"205 389 OFFCURVE",
"205 511 CURVE SMOOTH",
"205 551 OFFCURVE",
"250 575 OFFCURVE",
"335 575 CURVE SMOOTH",
"414 575 OFFCURVE",
"463 544 OFFCURVE",
"463 493 CURVE SMOOTH",
"463 484 LINE"
);
},
{
closed = 1;
nodes = (
"403 737 LINE",
"508 872 LINE",
"397 872 LINE",
"342 803 LINE",
"286 872 LINE",
"175 872 LINE",
"281 737 LINE"
);
}
);
};
components = (
{
name = S;
},
{
name = caron;
transform = "{1, 0, 0, 1, 167, 145}";
}
);
layerId = "4E7A989A-9DEE-440F-9785-5637679BA6FC";
width = 667;
}
);
unicode = 0160;
},
{
color = 10;
glyphname = Scedilla;
lastChange = "2015-02-12 01:36:50 +0000";
layers = (
{
background = {
paths = (
{
closed = 1;
nodes = (
"344 -77 LINE",
"374 -77 OFFCURVE",
"383 -85 OFFCURVE",
"383 -101 CURVE SMOOTH",
"383 -120 OFFCURVE",
"367 -125 OFFCURVE",
"342 -125 CURVE SMOOTH",
"242 -125 LINE",
"242 -174 LINE",
"269 -179 OFFCURVE",
"305 -182 OFFCURVE",
"337 -182 CURVE SMOOTH",
"384 -182 OFFCURVE",
"455 -168 OFFCURVE",
"455 -101 CURVE SMOOTH",
"455 -55 OFFCURVE",
"412 -39 OFFCURVE",
"363 -36 CURVE",
"367 -11 LINE",
"512 -3 OFFCURVE",
"616 55 OFFCURVE",
"616 198 CURVE SMOOTH",
"616 442 OFFCURVE",
"162 357 OFFCURVE",
"162 521 CURVE SMOOTH",
"162 587 OFFCURVE",
"235 617 OFFCURVE",
"336 617 CURVE SMOOTH",
"432 617 OFFCURVE",
"503 578 OFFCURVE",
"503 508 CURVE SMOOTH",
"503 493 LINE",
"596 493 LINE",
"596 505 LINE SMOOTH",
"596 642 OFFCURVE",
"479 698 OFFCURVE",
"333 698 CURVE SMOOTH",
"186 698 OFFCURVE",
"66 640 OFFCURVE",
"66 514 CURVE SMOOTH",
"66 266 OFFCURVE",
"521 359 OFFCURVE",
"521 183 CURVE SMOOTH",
"521 109 OFFCURVE",
"452 69 OFFCURVE",
"327 69 CURVE SMOOTH",
"219 69 OFFCURVE",
"142 109 OFFCURVE",
"142 193 CURVE SMOOTH",
"142 199 OFFCURVE",
"144 213 OFFCURVE",
"144 214 CURVE",
"50 214 LINE",
"50 211 OFFCURVE",
"49 201 OFFCURVE",
"49 194 CURVE SMOOTH",
"49 52 OFFCURVE",
"164 -5 OFFCURVE",
"305 -11 CURVE",
"293 -77 LINE"
);
}
);
};
layerId = UUID0;
paths = (
{
closed = 1;
nodes = (
"344 -77 LINE",
"374 -77 OFFCURVE",
"383 -85 OFFCURVE",
"383 -101 CURVE SMOOTH",
"383 -120 OFFCURVE",
"367 -125 OFFCURVE",
"342 -125 CURVE SMOOTH",
"242 -125 LINE",
"242 -174 LINE",
"269 -179 OFFCURVE",
"305 -182 OFFCURVE",
"337 -182 CURVE SMOOTH",
"384 -182 OFFCURVE",
"455 -168 OFFCURVE",
"455 -101 CURVE SMOOTH",
"455 -55 OFFCURVE",
"412 -39 OFFCURVE",
"363 -36 CURVE",
"367 -11 LINE",
"512 -3 OFFCURVE",
"616 55 OFFCURVE",
"616 198 CURVE SMOOTH",
"616 442 OFFCURVE",
"162 357 OFFCURVE",
"162 521 CURVE SMOOTH",
"162 587 OFFCURVE",
"235 617 OFFCURVE",
"336 617 CURVE SMOOTH",
"432 617 OFFCURVE",
"503 578 OFFCURVE",
"503 508 CURVE SMOOTH",
"503 493 LINE",
"596 493 LINE",
"596 505 LINE SMOOTH",
"596 642 OFFCURVE",
"479 698 OFFCURVE",
"333 698 CURVE SMOOTH",
"186 698 OFFCURVE",
"66 640 OFFCURVE",
"66 514 CURVE SMOOTH",
"66 266 OFFCURVE",
"521 359 OFFCURVE",
"521 183 CURVE SMOOTH",
"521 109 OFFCURVE",
"452 69 OFFCURVE",
"327 69 CURVE SMOOTH",
"219 69 OFFCURVE",
"142 109 OFFCURVE",
"142 193 CURVE SMOOTH",
"142 199 OFFCURVE",
"144 213 OFFCURVE",
"144 214 CURVE",
"50 214 LINE",
"50 211 OFFCURVE",
"49 201 OFFCURVE",
"49 194 CURVE SMOOTH",
"49 52 OFFCURVE",
"164 -5 OFFCURVE",
"305 -11 CURVE",
"293 -77 LINE"
);
}
);
width = 667;
},
{
background = {
paths = (
{
closed = 1;
nodes = (
"232 -174 LINE",
"262 -179 OFFCURVE",
"302 -182 OFFCURVE",
"336 -182 CURVE SMOOTH",
"390 -182 OFFCURVE",
"472 -168 OFFCURVE",
"472 -101 CURVE SMOOTH",
"472 -55 OFFCURVE",
"427 -36 OFFCURVE",
"374 -33 CURVE",
"377 -10 LINE",
"523 0 OFFCURVE",
"623 62 OFFCURVE",
"623 202 CURVE SMOOTH",
"623 450 OFFCURVE",
"205 389 OFFCURVE",
"205 511 CURVE SMOOTH",
"205 551 OFFCURVE",
"250 575 OFFCURVE",
"335 575 CURVE SMOOTH",
"414 575 OFFCURVE",
"463 544 OFFCURVE",
"463 493 CURVE SMOOTH",
"463 484 LINE",
"607 484 LINE",
"607 496 LINE SMOOTH",
"607 637 OFFCURVE",
"485 698 OFFCURVE",
"337 698 CURVE SMOOTH",
"176 698 OFFCURVE",
"59 636 OFFCURVE",
"59 506 CURVE SMOOTH",
"59 251 OFFCURVE",
"477 327 OFFCURVE",
"477 183 CURVE SMOOTH",
"477 142 OFFCURVE",
"441 111 OFFCURVE",
"337 111 CURVE SMOOTH",
"242 111 OFFCURVE",
"189 149 OFFCURVE",
"189 207 CURVE SMOOTH",
"189 212 OFFCURVE",
"190 221 OFFCURVE",
"190 223 CURVE",
"43 223 LINE",
"43 218 OFFCURVE",
"42 209 OFFCURVE",
"42 201 CURVE SMOOTH",
"42 72 OFFCURVE",
"155 0 OFFCURVE",
"292 -10 CURVE",
"282 -77 LINE",
"323 -77 LINE SMOOTH",
"355 -77 OFFCURVE",
"365 -85 OFFCURVE",
"365 -101 CURVE SMOOTH",
"365 -120 OFFCURVE",
"348 -125 OFFCURVE",
"320 -125 CURVE SMOOTH",
"232 -125 LINE"
);
}
);
};
layerId = "4E7A989A-9DEE-440F-9785-5637679BA6FC";
paths = (
{
closed = 1;
nodes = (
"232 -174 LINE",
"262 -179 OFFCURVE",
"302 -182 OFFCURVE",
"336 -182 CURVE SMOOTH",
"390 -182 OFFCURVE",
"472 -168 OFFCURVE",
"472 -101 CURVE SMOOTH",
"472 -55 OFFCURVE",
"427 -36 OFFCURVE",
"374 -33 CURVE",
"377 -10 LINE",
"523 0 OFFCURVE",
"623 62 OFFCURVE",
"623 202 CURVE SMOOTH",
"623 450 OFFCURVE",
"205 389 OFFCURVE",
"205 511 CURVE SMOOTH",
"205 551 OFFCURVE",
"250 575 OFFCURVE",
"335 575 CURVE SMOOTH",
"414 575 OFFCURVE",
"463 544 OFFCURVE",
"463 493 CURVE SMOOTH",
"463 484 LINE",
"607 484 LINE",
"607 496 LINE SMOOTH",
"607 637 OFFCURVE",
"485 698 OFFCURVE",
"337 698 CURVE SMOOTH",
"176 698 OFFCURVE",
"59 636 OFFCURVE",
"59 506 CURVE SMOOTH",
"59 251 OFFCURVE",
"477 327 OFFCURVE",
"477 183 CURVE SMOOTH",
"477 142 OFFCURVE",
"441 111 OFFCURVE",
"337 111 CURVE SMOOTH",
"242 111 OFFCURVE",
"189 149 OFFCURVE",
"189 207 CURVE SMOOTH",
"189 212 OFFCURVE",
"190 221 OFFCURVE",
"190 223 CURVE",
"43 223 LINE",
"43 218 OFFCURVE",
"42 209 OFFCURVE",
"42 201 CURVE SMOOTH",
"42 72 OFFCURVE",
"155 0 OFFCURVE",
"292 -10 CURVE",
"282 -77 LINE",
"323 -77 LINE SMOOTH",
"355 -77 OFFCURVE",
"365 -85 OFFCURVE",
"365 -101 CURVE SMOOTH",
"365 -120 OFFCURVE",
"348 -125 OFFCURVE",
"320 -125 CURVE SMOOTH",
"232 -125 LINE"
);
}
);
width = 667;
}
);
unicode = 015E;
},
{
color = 10;
glyphname = Scircumflex;
lastChange = "2015-02-12 03:02:43 +0000";
layers = (
{
background = {
paths = (
{
closed = 1;
nodes = (
"596 493 LINE",
"596 505 LINE SMOOTH",
"596 642 OFFCURVE",
"479 698 OFFCURVE",
"333 698 CURVE SMOOTH",
"186 698 OFFCURVE",
"66 640 OFFCURVE",
"66 514 CURVE SMOOTH",
"66 266 OFFCURVE",
"521 359 OFFCURVE",
"521 183 CURVE SMOOTH",
"521 109 OFFCURVE",
"452 69 OFFCURVE",
"327 69 CURVE SMOOTH",
"219 69 OFFCURVE",
"142 109 OFFCURVE",
"142 193 CURVE SMOOTH",
"142 199 OFFCURVE",
"144 213 OFFCURVE",
"144 214 CURVE",
"50 214 LINE",
"50 211 OFFCURVE",
"49 201 OFFCURVE",
"49 194 CURVE SMOOTH",
"49 43 OFFCURVE",
"179 -12 OFFCURVE",
"332 -12 CURVE SMOOTH",
"495 -12 OFFCURVE",
"616 44 OFFCURVE",
"616 198 CURVE SMOOTH",
"616 442 OFFCURVE",
"162 357 OFFCURVE",
"162 521 CURVE SMOOTH",
"162 587 OFFCURVE",
"235 617 OFFCURVE",
"336 617 CURVE SMOOTH",
"432 617 OFFCURVE",
"503 578 OFFCURVE",
"503 508 CURVE SMOOTH",
"503 493 LINE"
);
},
{
closed = 1;
nodes = (
"486 738 LINE",
"381 873 LINE",
"297 873 LINE",
"191 738 LINE",
"281 738 LINE",
"339 817 LINE",
"396 738 LINE"
);
}
);
};
components = (
{
name = S;
},
{
name = circumflex;
transform = "{1, 0, 0, 1, 167, 145}";
}
);
layerId = UUID0;
width = 667;
},
{
background = {
paths = (
{
closed = 1;
nodes = (
"607 484 LINE",
"607 496 LINE SMOOTH",
"607 637 OFFCURVE",
"485 698 OFFCURVE",
"337 698 CURVE SMOOTH",
"176 698 OFFCURVE",
"59 636 OFFCURVE",
"59 506 CURVE SMOOTH",
"59 251 OFFCURVE",
"477 327 OFFCURVE",
"477 183 CURVE SMOOTH",
"477 142 OFFCURVE",
"441 111 OFFCURVE",
"337 111 CURVE SMOOTH",
"242 111 OFFCURVE",
"189 149 OFFCURVE",
"189 207 CURVE SMOOTH",
"189 212 OFFCURVE",
"190 221 OFFCURVE",
"190 223 CURVE",
"43 223 LINE",
"43 218 OFFCURVE",
"42 209 OFFCURVE",
"42 201 CURVE SMOOTH",
"42 60 OFFCURVE",
"177 -12 OFFCURVE",
"330 -12 CURVE SMOOTH",
"501 -12 OFFCURVE",
"623 48 OFFCURVE",
"623 202 CURVE SMOOTH",
"623 450 OFFCURVE",
"205 389 OFFCURVE",
"205 511 CURVE SMOOTH",
"205 551 OFFCURVE",
"250 575 OFFCURVE",
"335 575 CURVE SMOOTH",
"414 575 OFFCURVE",
"463 544 OFFCURVE",
"463 493 CURVE SMOOTH",
"463 484 LINE"
);
},
{
closed = 1;
nodes = (
"505 737 LINE",
"400 872 LINE",
"278 872 LINE",
"172 737 LINE",
"283 737 LINE",
"339 806 LINE",
"394 737 LINE"
);
}
);
};
components = (
{
name = S;
},
{
name = circumflex;
transform = "{1, 0, 0, 1, 167, 145}";
}
);
layerId = "4E7A989A-9DEE-440F-9785-5637679BA6FC";
width = 667;
}
);
unicode = 015C;
},
{
color = 4;
glyphname = Germandbls;
lastChange = "2015-02-12 01:15:24 +0000";
layers = (
{
background = {
paths = (
{
closed = 1;
nodes = (
"174 0 LINE",
"174 414 LINE SMOOTH",
"174 552 OFFCURVE",
"258 617 OFFCURVE",
"401 617 CURVE SMOOTH",
"525 617 OFFCURVE",
"578 568 OFFCURVE",
"578 494 CURVE SMOOTH",
"578 426 OFFCURVE",
"533 381 OFFCURVE",
"470 381 CURVE SMOOTH",
"284 381 LINE",
"284 298 LINE",
"473 298 LINE SMOOTH",
"561 298 OFFCURVE",
"612 254 OFFCURVE",
"612 192 CURVE SMOOTH",
"612 137 OFFCURVE",
"571 83 OFFCURVE",
"493 83 CURVE SMOOTH",
"284 83 LINE",
"284 0 LINE",
"506 0 LINE SMOOTH",
"633 0 OFFCURVE",
"709 82 OFFCURVE",
"709 187 CURVE SMOOTH",
"709 271 OFFCURVE",
"661 327 OFFCURVE",
"584 347 CURVE",
"584 351 LINE",
"634 371 OFFCURVE",
"675 431 OFFCURVE",
"675 503 CURVE SMOOTH",
"675 621 OFFCURVE",
"564 698 OFFCURVE",
"392 698 CURVE SMOOTH",
"204 698 OFFCURVE",
"79 605 OFFCURVE",
"79 421 CURVE SMOOTH",
"79 0 LINE"
);
}
);
};
layerId = UUID0;
paths = (
{
closed = 1;
nodes = (
"174 0 LINE",
"174 414 LINE SMOOTH",
"174 552 OFFCURVE",
"258 617 OFFCURVE",
"401 617 CURVE SMOOTH",
"525 617 OFFCURVE",
"578 568 OFFCURVE",
"578 494 CURVE SMOOTH",
"578 426 OFFCURVE",
"533 381 OFFCURVE",
"470 381 CURVE SMOOTH",
"284 381 LINE",
"284 298 LINE",
"473 298 LINE SMOOTH",
"561 298 OFFCURVE",
"612 254 OFFCURVE",
"612 192 CURVE SMOOTH",
"612 137 OFFCURVE",
"571 83 OFFCURVE",
"493 83 CURVE SMOOTH",
"284 83 LINE",
"284 0 LINE",
"506 0 LINE SMOOTH",
"633 0 OFFCURVE",
"709 82 OFFCURVE",
"709 187 CURVE SMOOTH",
"709 271 OFFCURVE",
"661 327 OFFCURVE",
"584 347 CURVE",
"584 351 LINE",
"634 371 OFFCURVE",
"675 431 OFFCURVE",
"675 503 CURVE SMOOTH",
"675 621 OFFCURVE",
"564 698 OFFCURVE",
"392 698 CURVE SMOOTH",
"204 698 OFFCURVE",
"79 605 OFFCURVE",
"79 421 CURVE SMOOTH",
"79 0 LINE"
);
}
);
width = 768;
},
{
background = {
paths = (
{
closed = 1;
nodes = (
"212 0 LINE",
"212 384 LINE SMOOTH",
"212 514 OFFCURVE",
"283 575 OFFCURVE",
"424 575 CURVE SMOOTH",
"516 575 OFFCURVE",
"564 540 OFFCURVE",
"564 486 CURVE SMOOTH",
"564 447 OFFCURVE",
"537 402 OFFCURVE",
"488 402 CURVE SMOOTH",
"297 402 LINE",
"297 277 LINE",
"491 277 LINE SMOOTH",
"559 277 OFFCURVE",
"598 246 OFFCURVE",
"598 202 CURVE SMOOTH",
"598 163 OFFCURVE",
"568 125 OFFCURVE",
"511 125 CURVE SMOOTH",
"297 125 LINE",
"297 0 LINE",
"524 0 LINE SMOOTH",
"663 0 OFFCURVE",
"747 81 OFFCURVE",
"747 189 CURVE SMOOTH",
"747 270 OFFCURVE",
"699 327 OFFCURVE",
"622 347 CURVE",
"622 351 LINE",
"672 371 OFFCURVE",
"713 430 OFFCURVE",
"713 499 CURVE SMOOTH",
"713 620 OFFCURVE",
"589 698 OFFCURVE",
"413 698 CURVE SMOOTH",
"197 698 OFFCURVE",
"67 595 OFFCURVE",
"67 391 CURVE SMOOTH",
"67 0 LINE"
);
}
);
};
layerId = "4E7A989A-9DEE-440F-9785-5637679BA6FC";
paths = (
{
closed = 1;
nodes = (
"212 0 LINE",
"212 384 LINE SMOOTH",
"212 514 OFFCURVE",
"283 575 OFFCURVE",
"424 575 CURVE SMOOTH",
"516 575 OFFCURVE",
"564 540 OFFCURVE",
"564 486 CURVE SMOOTH",
"564 447 OFFCURVE",
"537 402 OFFCURVE",
"488 402 CURVE SMOOTH",
"297 402 LINE",
"297 277 LINE",
"491 277 LINE SMOOTH",
"559 277 OFFCURVE",
"598 246 OFFCURVE",
"598 202 CURVE SMOOTH",
"598 163 OFFCURVE",
"568 125 OFFCURVE",
"511 125 CURVE SMOOTH",
"297 125 LINE",
"297 0 LINE",
"524 0 LINE SMOOTH",
"663 0 OFFCURVE",
"747 81 OFFCURVE",
"747 189 CURVE SMOOTH",
"747 270 OFFCURVE",
"699 327 OFFCURVE",
"622 347 CURVE",
"622 351 LINE",
"672 371 OFFCURVE",
"713 430 OFFCURVE",
"713 499 CURVE SMOOTH",
"713 620 OFFCURVE",
"589 698 OFFCURVE",
"413 698 CURVE SMOOTH",
"197 698 OFFCURVE",
"67 595 OFFCURVE",
"67 391 CURVE SMOOTH",
"67 0 LINE"
);
}
);
width = 798;
}
);
unicode = 1E9E;
},
{
color = 4;
glyphname = Schwa;
lastChange = "2015-02-16 21:45:07 +0000";
layers = (
{
background = {
paths = (
{
closed = 1;
nodes = (
"47 371 LINE",
"47 309 LINE SMOOTH",
"47 79 OFFCURVE",
"164 -12 OFFCURVE",
"372 -12 CURVE SMOOTH",
"600 -12 OFFCURVE",
"708 97 OFFCURVE",
"708 338 CURVE SMOOTH",
"708 585 OFFCURVE",
"595 698 OFFCURVE",
"371 698 CURVE SMOOTH",
"180 698 OFFCURVE",
"47 616 OFFCURVE",
"47 454 CURVE",
"138 454 LINE",
"138 573 OFFCURVE",
"241 617 OFFCURVE",
"361 617 CURVE SMOOTH",
"520 617 OFFCURVE",
"600 539 OFFCURVE",
"610 371 CURVE"
);
},
{
closed = 1;
nodes = (
"607 283 LINE",
"591 129 OFFCURVE",
"522 69 OFFCURVE",
"380 69 CURVE SMOOTH",
"239 69 OFFCURVE",
"145 128 OFFCURVE",
"145 283 CURVE"
);
}
);
};
layerId = UUID0;
paths = (
{
closed = 1;
nodes = (
"47 371 LINE",
"47 309 LINE SMOOTH",
"47 79 OFFCURVE",
"164 -12 OFFCURVE",
"372 -12 CURVE SMOOTH",
"600 -12 OFFCURVE",
"708 97 OFFCURVE",
"708 338 CURVE SMOOTH",
"708 585 OFFCURVE",
"595 698 OFFCURVE",
"371 698 CURVE SMOOTH",
"180 698 OFFCURVE",
"47 616 OFFCURVE",
"47 454 CURVE",
"138 454 LINE",
"138 573 OFFCURVE",
"241 617 OFFCURVE",
"361 617 CURVE SMOOTH",
"520 617 OFFCURVE",
"600 539 OFFCURVE",
"610 371 CURVE"
);
},
{
closed = 1;
nodes = (
"607 283 LINE",
"591 129 OFFCURVE",
"522 69 OFFCURVE",
"380 69 CURVE SMOOTH",
"239 69 OFFCURVE",
"145 128 OFFCURVE",
"145 283 CURVE"
);
}
);
width = 758;
},
{
background = {
paths = (
{
closed = 1;
nodes = (
"42 379 LINE",
"42 331 LINE SMOOTH",
"42 92 OFFCURVE",
"159 -12 OFFCURVE",
"376 -12 CURVE SMOOTH",
"601 -12 OFFCURVE",
"710 99 OFFCURVE",
"710 339 CURVE SMOOTH",
"710 586 OFFCURVE",
"595 698 OFFCURVE",
"368 698 CURVE SMOOTH",
"177 698 OFFCURVE",
"42 619 OFFCURVE",
"42 446 CURVE",
"185 446 LINE",
"185 541 OFFCURVE",
"261 582 OFFCURVE",
"364 582 CURVE SMOOTH",
"495 582 OFFCURVE",
"554 515 OFFCURVE",
"560 379 CURVE"
);
},
{
closed = 1;
nodes = (
"558 273 LINE",
"545 157 OFFCURVE",
"493 105 OFFCURVE",
"378 105 CURVE SMOOTH",
"269 105 OFFCURVE",
"194 152 OFFCURVE",
"194 273 CURVE"
);
}
);
};
layerId = "4E7A989A-9DEE-440F-9785-5637679BA6FC";
paths = (
{
closed = 1;
nodes = (
"42 379 LINE",
"42 331 LINE SMOOTH",
"42 92 OFFCURVE",
"159 -12 OFFCURVE",
"376 -12 CURVE SMOOTH",
"601 -12 OFFCURVE",
"710 99 OFFCURVE",
"710 339 CURVE SMOOTH",
"710 586 OFFCURVE",
"595 698 OFFCURVE",
"368 698 CURVE SMOOTH",
"177 698 OFFCURVE",
"42 619 OFFCURVE",
"42 446 CURVE",
"185 446 LINE",
"185 541 OFFCURVE",
"261 582 OFFCURVE",
"364 582 CURVE SMOOTH",
"495 582 OFFCURVE",
"554 515 OFFCURVE",
"560 379 CURVE"
);
},
{
closed = 1;
nodes = (
"558 273 LINE",
"545 157 OFFCURVE",
"493 105 OFFCURVE",
"378 105 CURVE SMOOTH",
"269 105 OFFCURVE",
"194 152 OFFCURVE",
"194 273 CURVE"
);
}
);
width = 758;
}
);
rightKerningGroup = O;
unicode = 018F;
},
{
color = 10;
glyphname = T;
lastChange = "2015-02-16 21:50:42 +0000";
layers = (
{
anchors = (
{
name = bottom;
position = "{306, 0}";
},
{
name = center;
position = "{306, 343}";
},
{
name = top;
position = "{306, 671}";
}
);
background = {
paths = (
{
closed = 1;
nodes = (
"353 0 LINE",
"353 603 LINE",
"589 603 LINE",
"589 686 LINE",
"22 686 LINE",
"22 603 LINE",
"258 603 LINE",
"258 0 LINE"
);
}
);
};
layerId = UUID0;
paths = (
{
closed = 1;
nodes = (
"353 0 LINE",
"353 603 LINE",
"589 603 LINE",
"589 686 LINE",
"22 686 LINE",
"22 603 LINE",
"258 603 LINE",
"258 0 LINE"
);
}
);
width = 611;
},
{
anchors = (
{
name = bottom;
position = "{306, 0}";
},
{
name = center;
position = "{306, 343}";
},
{
name = top;
position = "{306, 671}";
}
);
background = {
paths = (
{
closed = 1;
nodes = (
"378 0 LINE",
"378 561 LINE",
"590 561 LINE",
"590 686 LINE",
"21 686 LINE",
"21 561 LINE",
"233 561 LINE",
"233 0 LINE"
);
}
);
};
layerId = "4E7A989A-9DEE-440F-9785-5637679BA6FC";
paths = (
{
closed = 1;
nodes = (
"378 0 LINE",
"378 561 LINE",
"590 561 LINE",
"590 686 LINE",
"21 686 LINE",
"21 561 LINE",
"233 561 LINE",
"233 0 LINE"
);
}
);
width = 611;
}
);
leftKerningGroup = T;
rightKerningGroup = T;
unicode = 0054;
},
{
color = 10;
glyphname = Tbar;
lastChange = "2015-02-12 01:36:50 +0000";
layers = (
{
background = {
paths = (
{
closed = 1;
nodes = (
"353 0 LINE",
"353 381 LINE",
"458 381 LINE",
"458 453 LINE",
"353 453 LINE",
"353 603 LINE",
"589 603 LINE",
"589 686 LINE",
"22 686 LINE",
"22 603 LINE",
"258 603 LINE",
"258 453 LINE",
"153 453 LINE",
"153 381 LINE",
"258 381 LINE",
"258 0 LINE"
);
}
);
};
layerId = UUID0;
paths = (
{
closed = 1;
nodes = (
"353 0 LINE",
"353 381 LINE",
"458 381 LINE",
"458 453 LINE",
"353 453 LINE",
"353 603 LINE",
"589 603 LINE",
"589 686 LINE",
"22 686 LINE",
"22 603 LINE",
"258 603 LINE",
"258 453 LINE",
"153 453 LINE",
"153 381 LINE",
"258 381 LINE",
"258 0 LINE"
);
}
);
width = 611;
},
{
background = {
paths = (
{
closed = 1;
nodes = (
"378 0 LINE",
"378 352 LINE",
"467 352 LINE",
"467 443 LINE",
"378 443 LINE",
"378 561 LINE",
"590 561 LINE",
"590 686 LINE",
"21 686 LINE",
"21 561 LINE",
"233 561 LINE",
"233 443 LINE",
"144 443 LINE",
"144 352 LINE",
"233 352 LINE",
"233 0 LINE"
);
}
);
};
layerId = "4E7A989A-9DEE-440F-9785-5637679BA6FC";
paths = (
{
closed = 1;
nodes = (
"378 0 LINE",
"378 352 LINE",
"467 352 LINE",
"467 443 LINE",
"378 443 LINE",
"378 561 LINE",
"590 561 LINE",
"590 686 LINE",
"21 686 LINE",
"21 561 LINE",
"233 561 LINE",
"233 443 LINE",
"144 443 LINE",
"144 352 LINE",
"233 352 LINE",
"233 0 LINE"
);
}
);
width = 611;
}
);
unicode = 0166;
},
{
color = 10;
glyphname = Tcaron;
lastChange = "2015-02-16 21:50:42 +0000";
layers = (
{
background = {
paths = (
{
closed = 1;
nodes = (
"353 0 LINE",
"353 603 LINE",
"589 603 LINE",
"589 686 LINE",
"22 686 LINE",
"22 603 LINE",
"258 603 LINE",
"258 0 LINE"
);
},
{
closed = 1;
nodes = (
"348 737 LINE",
"453 872 LINE",
"363 872 LINE",
"306 793 LINE",
"248 872 LINE",
"158 872 LINE",
"264 737 LINE"
);
}
);
};
components = (
{
name = T;
},
{
name = caron;
transform = "{1, 0, 0, 1, 139, 145}";
}
);
layerId = UUID0;
width = 611;
},
{
background = {
paths = (
{
closed = 1;
nodes = (
"378 0 LINE",
"378 561 LINE",
"590 561 LINE",
"590 686 LINE",
"21 686 LINE",
"21 561 LINE",
"233 561 LINE",
"233 0 LINE"
);
},
{
closed = 1;
nodes = (
"367 737 LINE",
"472 872 LINE",
"361 872 LINE",
"306 803 LINE",
"250 872 LINE",
"139 872 LINE",
"245 737 LINE"
);
}
);
};
components = (
{
name = T;
},
{
name = caron;
transform = "{1, 0, 0, 1, 139, 145}";
}
);
layerId = "4E7A989A-9DEE-440F-9785-5637679BA6FC";
width = 611;
}
);
leftKerningGroup = T;
rightKerningGroup = T;
unicode = 0164;
},
{
color = 10;
glyphname = Tcommaaccent;
lastChange = "2015-02-16 21:50:42 +0000";
layers = (
{
background = {
paths = (
{
closed = 1;
nodes = (
"307 -239 LINE",
"348 -127 LINE",
"348 -43 LINE",
"263 -43 LINE",
"263 -134 LINE",
"297 -134 LINE",
"263 -239 LINE"
);
},
{
closed = 1;
nodes = (
"353 0 LINE",
"353 603 LINE",
"589 603 LINE",
"589 686 LINE",
"22 686 LINE",
"22 603 LINE",
"258 603 LINE",
"258 0 LINE"
);
}
);
};
components = (
{
name = T;
},
{
name = commaaccent;
transform = "{1, 0, 0, 1, 195, 0}";
}
);
layerId = UUID0;
width = 611;
},
{
background = {
paths = (
{
closed = 1;
nodes = (
"308 -250 LINE",
"374 -141 LINE",
"374 -55 LINE",
"236 -55 LINE",
"236 -153 LINE",
"291 -153 LINE",
"236 -250 LINE"
);
},
{
closed = 1;
nodes = (
"378 0 LINE",
"378 561 LINE",
"590 561 LINE",
"590 686 LINE",
"21 686 LINE",
"21 561 LINE",
"233 561 LINE",
"233 0 LINE"
);
}
);
};
components = (
{
name = T;
},
{
name = commaaccent;
transform = "{1, 0, 0, 1, 140, 0}";
}
);
layerId = "4E7A989A-9DEE-440F-9785-5637679BA6FC";
width = 611;
}
);
leftKerningGroup = T;
rightKerningGroup = T;
unicode = 021A;
},
{
color = 9;
glyphname = U;
lastChange = "2015-02-15 01:45:35 +0000";
layers = (
{
anchors = (
{
name = bottom;
position = "{361, 0}";
},
{
name = ogonek;
position = "{650, 10}";
},
{
name = top;
position = "{361, 671}";
},
{
name = topright;
position = "{682, 868}";
}
);
background = {
paths = (
{
closed = 1;
nodes = (
"548 248 LINE",
"548 130 OFFCURVE",
"478 69 OFFCURVE",
"360 69 CURVE SMOOTH",
"243 69 OFFCURVE",
"174 130 OFFCURVE",
"174 248 CURVE SMOOTH",
"174 686 LINE",
"79 686 LINE",
"79 253 LINE",
"79 68 OFFCURVE",
"185 -12 OFFCURVE",
"360 -12 CURVE SMOOTH",
"537 -12 OFFCURVE",
"643 68 OFFCURVE",
"643 253 CURVE SMOOTH",
"643 686 LINE",
"548 686 LINE"
);
}
);
};
layerId = UUID0;
paths = (
{
closed = 1;
nodes = (
"548 248 LINE",
"548 130 OFFCURVE",
"478 69 OFFCURVE",
"360 69 CURVE SMOOTH",
"243 69 OFFCURVE",
"174 130 OFFCURVE",
"174 248 CURVE SMOOTH",
"174 686 LINE",
"79 686 LINE",
"79 253 LINE",
"79 68 OFFCURVE",
"185 -12 OFFCURVE",
"360 -12 CURVE SMOOTH",
"537 -12 OFFCURVE",
"643 68 OFFCURVE",
"643 253 CURVE SMOOTH",
"643 686 LINE",
"548 686 LINE"
);
}
);
width = 722;
},
{
anchors = (
{
name = bottom;
position = "{361, 0}";
},
{
name = ogonek;
position = "{650, 10}";
},
{
name = top;
position = "{361, 671}";
},
{
name = topright;
position = "{637, 868}";
}
);
background = {
paths = (
{
closed = 1;
nodes = (
"510 262 LINE",
"510 162 OFFCURVE",
"454 111 OFFCURVE",
"360 111 CURVE SMOOTH",
"266 111 OFFCURVE",
"212 162 OFFCURVE",
"212 262 CURVE SMOOTH",
"212 686 LINE",
"67 686 LINE",
"67 255 LINE",
"67 78 OFFCURVE",
"177 -12 OFFCURVE",
"360 -12 CURVE SMOOTH",
"544 -12 OFFCURVE",
"655 78 OFFCURVE",
"655 255 CURVE SMOOTH",
"655 686 LINE",
"510 686 LINE"
);
}
);
};
layerId = "4E7A989A-9DEE-440F-9785-5637679BA6FC";
paths = (
{
closed = 1;
nodes = (
"510 262 LINE",
"510 162 OFFCURVE",
"454 111 OFFCURVE",
"360 111 CURVE SMOOTH",
"266 111 OFFCURVE",
"212 162 OFFCURVE",
"212 262 CURVE SMOOTH",
"212 686 LINE",
"67 686 LINE",
"67 255 LINE",
"67 78 OFFCURVE",
"177 -12 OFFCURVE",
"360 -12 CURVE SMOOTH",
"544 -12 OFFCURVE",
"655 78 OFFCURVE",
"655 255 CURVE SMOOTH",
"655 686 LINE",
"510 686 LINE"
);
}
);
width = 722;
}
);
unicode = 0055;
},
